0
SECTION
2
HEADER
9
$INSUNITS
70
4
9
$ACADVER
1
AC1014
9
$HANDSEED
5
FFFF
0
ENDSEC
0
SECTION
2
TABLES
0
TABLE
2
VPORT
5
8
100
AcDbSymbolTable
0
ENDTAB
0
TABLE
2
LTYPE
5
5
100
AcDbSymbolTable
0
LTYPE
5
14
100
AcDbSymbolTableRecord
100
AcDbLinetypeTableRecord
2
BYBLOCK
70
0
0
LTYPE
5
15
100
AcDbSymbolTableRecord
100
AcDbLinetypeTableRecord
2
BYLAYER
70
0
0
ENDTAB
0
TABLE
2
LAYER
5
2
100
AcDbSymbolTable
70
2
0
LAYER
5
50
100
AcDbSymbolTableRecord
100
AcDbLayerTableRecord
2
0
70
0
6
CONTINUOUS
0
ENDTAB
0
TABLE
2
STYLE
5
3
100
AcDbSymbolTable
70
1
0
STYLE
5
11
100
AcDbSymbolTableRecord
100
AcDbTextStyleTableRecord
2
STANDARD
70
0
0
ENDTAB
0
TABLE
2
VIEW
5
6
100
AcDbSymbolTable
70
0
0
ENDTAB
0
TABLE
2
UCS
5
7
100
AcDbSymbolTable
70
0
0
ENDTAB
0
TABLE
2
APPID
5
9
100
AcDbSymbolTable
70
2
0
APPID
5
12
100
AcDbSymbolTableRecord
100
AcDbRegAppTableRecord
2
ACAD
70
0
0
ENDTAB
0
TABLE
2
DIMSTYLE
5
A
100
AcDbSymbolTable
70
1
0
ENDTAB
0
TABLE
2
BLOCK_RECORD
5
1
100
AcDbSymbolTable
70
1
0
BLOCK_RECORD
5
1F
100
AcDbSymbolTableRecord
100
AcDbBlockTableRecord
2
*MODEL_SPACE
0
BLOCK_RECORD
5
1B
100
AcDbSymbolTableRecord
100
AcDbBlockTableRecord
2
*PAPER_SPACE
0
ENDTAB
0
ENDSEC
0
SECTION
2
BLOCKS
0
BLOCK
5
20
100
AcDbEntity
100
AcDbBlockBegin
2
*MODEL_SPACE
0
ENDBLK
5
21
100
AcDbEntity
100
AcDbBlockEnd
0
BLOCK
5
1C
100
AcDbEntity
100
AcDbBlockBegin
2
*PAPER_SPACE
0
ENDBLK
5
1D
100
AcDbEntity
100
AcDbBlockEnd
0
ENDSEC
0
SECTION
2
ENTITIES
0
CIRCLE
5
100
100
AcDbEntity
8
0
100
AcDbCircle
10
177.68805006981779
20
-36.500000000000014
30
0
40
1.3499999999999979
210
0
220
0
230
1
0
CIRCLE
5
101
100
AcDbEntity
8
0
100
AcDbCircle
10
54.688050068153203
20
-8.5000000000000409
30
0
40
1.3500000000000001
210
0
220
0
230
1
0
CIRCLE
5
102
100
AcDbEntity
8
0
100
AcDbCircle
10
177.68805006981779
20
-8.5000000000000178
30
0
40
1.3499999999999979
210
0
220
0
230
1
0
CIRCLE
5
103
100
AcDbEntity
8
0
100
AcDbCircle
10
54.688050068153217
20
-36.500000000000043
30
0
40
1.3500000000000001
210
0
220
0
230
1
0
SPLINE
5
104
100
AcDbEntity
8
0
100
AcDbSpline
70
0
71
3
72
8
73
4
74
0
42
0.000000001
43
0.0000000001
44
0.0000000001
40
5
40
5
40
5
40
5
40
6
40
6
40
6
40
6
10
109.70965330425734
20
-27.25138888328857
30
0
10
109.70965330425734
20
-27.941786018532643
30
0
10
110.26913681106194
20
-28.501269525337221
30
0
10
110.959533946306
20
-28.501269525337221
30
0
0
LINE
5
105
100
AcDbEntity
8
0
100
AcDbLine
10
109.70965330425733
20
-17.373611107980238
30
0
11
109.70965330425734
21
-27.25138888328857
31
0
0
SPLINE
5
106
100
AcDbEntity
8
0
100
AcDbSpline
70
0
71
3
72
10
73
6
74
0
42
0.000000001
43
0.0000000001
44
0.0000000001
40
2
40
2
40
2
40
2
40
3
40
3
40
4
40
4
40
4
40
4
10
112.20941458835462
20
-17.373611107980238
30
0
10
112.20941458835462
20
-16.683213972736169
30
0
10
111.64993108155005
20
-16.123558211157331
30
0
10
110.26913681106194
20
-16.123558211157331
30
0
10
109.70965330425734
20
-16.683213972736169
30
0
10
109.70965330425734
20
-17.373611107980238
30
0
0
LINE
5
107
100
AcDbEntity
8
0
100
AcDbLine
10
112.20941458835462
20
-27.25138888328857
30
0
11
112.20941458835462
21
-17.373611107980238
31
0
0
SPLINE
5
108
100
AcDbEntity
8
0
100
AcDbSpline
70
0
71
3
72
8
73
4
74
0
42
0.000000001
43
0.0000000001
44
0.0000000001
40
0
40
0
40
0
40
0
40
1
40
1
40
1
40
1
10
110.959533946306
20
-28.501269525337221
30
0
10
111.64993108155005
20
-28.501269525337221
30
0
10
112.20941458835462
20
-27.941786018532639
30
0
10
112.20941458835462
20
-27.25138888328857
30
0
0
SPLINE
5
109
100
AcDbEntity
8
0
100
AcDbSpline
70
0
71
3
72
8
73
4
74
0
42
0.000000001
43
0.0000000001
44
0.0000000001
40
5
40
5
40
5
40
5
40
6
40
6
40
6
40
6
10
134.75670326544349
20
-35.012499992459404
30
0
10
134.75670326544349
20
-35.702897127703473
30
0
10
135.31635902702234
20
-36.262380634508048
30
0
10
136.00675616226641
20
-36.262380634508048
30
0
0
LINE
5
110
100
AcDbEntity
8
0
100
AcDbLine
10
134.75670326544349
20
-9.9652777764989793
30
0
11
134.75670326544349
21
-35.012499992459404
31
0
0
SPLINE
5
111
100
AcDbEntity
8
0
100
AcDbSpline
70
0
71
3
72
10
73
6
74
0
42
0.000000001
43
0.0000000001
44
0.0000000001
40
2
40
2
40
2
40
2
40
3
40
3
40
4
40
4
40
4
40
4
10
137.25680905908931
20
-9.9652777764989775
30
0
10
137.25680905908931
20
-9.2748806412549101
30
0
10
136.69715329751048
20
-8.7152248796760787
30
0
10
135.31635902702232
20
-8.7152248796760787
30
0
10
134.75670326544349
20
-9.2748806412549101
30
0
10
134.75670326544349
20
-9.9652777764989775
30
0
0
LINE
5
112
100
AcDbEntity
8
0
100
AcDbLine
10
137.25680905908931
20
-35.012499992459396
30
0
11
137.25680905908931
21
-9.9652777764989775
31
0
0
SPLINE
5
113
100
AcDbEntity
8
0
100
AcDbSpline
70
0
71
3
72
8
73
4
74
0
42
0.000000001
43
0.0000000001
44
0.0000000001
40
0
40
0
40
0
40
0
40
1
40
1
40
1
40
1
10
136.00675616226641
20
-36.262380634508048
30
0
10
136.69715329751051
20
-36.262380634508048
30
0
10
137.25680905908931
20
-35.702897127703466
30
0
10
137.25680905908931
20
-35.012499992459396
30
0
0
SPLINE
5
114
100
AcDbEntity
8
0
100
AcDbSpline
70
0
71
3
72
8
73
4
74
0
42
0.000000001
43
0.0000000001
44
0.0000000001
40
5
40
5
40
5
40
5
40
6
40
6
40
6
40
6
10
84.662431088296941
20
-35.012499992459411
30
0
10
84.662431088296941
20
-35.70289712770348
30
0
10
85.221914595101524
20
-36.262380634508055
30
0
10
85.912311730345593
20
-36.262380634508055
30
0
0
LINE
5
115
100
AcDbEntity
8
0
100
AcDbLine
10
84.662431088296941
20
-9.9652777764989882
30
0
11
84.662431088296941
21
-35.012499992459411
31
0
0
SPLINE
5
116
100
AcDbEntity
8
0
100
AcDbSpline
70
0
71
3
72
10
73
6
74
0
42
0.000000001
43
0.0000000001
44
0.0000000001
40
2
40
2
40
2
40
2
40
3
40
3
40
4
40
4
40
4
40
4
10
87.162192372394216
20
-9.9652777764989899
30
0
10
87.162192372394216
20
-9.2748806412549243
30
0
10
86.602708865589634
20
-8.7152248796760912
30
0
10
85.221914595101509
20
-8.7152248796760912
30
0
10
84.662431088296927
20
-9.2748806412549243
30
0
10
84.662431088296927
20
-9.9652777764989899
30
0
0
LINE
5
117
100
AcDbEntity
8
0
100
AcDbLine
10
87.162192372394216
20
-35.012499992459418
30
0
11
87.162192372394216
21
-9.9652777764989899
31
0
0
SPLINE
5
118
100
AcDbEntity
8
0
100
AcDbSpline
70
0
71
3
72
8
73
4
74
0
42
0.000000001
43
0.0000000001
44
0.0000000001
40
0
40
0
40
0
40
0
40
1
40
1
40
1
40
1
10
85.912311730345593
20
-36.262380634508055
30
0
10
86.602708865589648
20
-36.262380634508055
30
0
10
87.162192372394216
20
-35.70289712770348
30
0
10
87.162192372394216
20
-35.012499992459411
30
0
0
SPLINE
5
119
100
AcDbEntity
8
0
100
AcDbSpline
70
0
71
3
72
8
73
4
74
0
42
0.000000001
43
0.0000000001
44
0.0000000001
40
5
40
5
40
5
40
5
40
6
40
6
40
6
40
6
10
74.78465331298861
20
-27.251388883288577
30
0
10
74.78465331298861
20
-27.941786018532646
30
0
10
75.344136819793235
20
-28.501269525337225
30
0
10
76.034533955037219
20
-28.501269525337225
30
0
0
LINE
5
120
100
AcDbEntity
8
0
100
AcDbLine
10
74.78465331298861
20
-17.373611107980246
30
0
11
74.78465331298861
21
-27.251388883288577
31
0
0
SPLINE
5
121
100
AcDbEntity
8
0
100
AcDbSpline
70
0
71
3
72
10
73
6
74
0
42
0.000000001
43
0.0000000001
44
0.0000000001
40
2
40
2
40
2
40
2
40
3
40
3
40
4
40
4
40
4
40
4
10
77.284414597085885
20
-17.373611107980246
30
0
10
77.284414597085885
20
-16.683213972736173
30
0
10
76.724931090281316
20
-16.123558211157338
30
0
10
75.344136819793221
20
-16.123558211157338
30
0
10
74.78465331298861
20
-16.683213972736173
30
0
10
74.78465331298861
20
-17.373611107980246
30
0
0
LINE
5
122
100
AcDbEntity
8
0
100
AcDbLine
10
77.284414597085885
20
-27.251388883288577
30
0
11
77.284414597085885
21
-17.373611107980246
31
0
0
SPLINE
5
123
100
AcDbEntity
8
0
100
AcDbSpline
70
0
71
3
72
8
73
4
74
0
42
0.000000001
43
0.0000000001
44
0.0000000001
40
0
40
0
40
0
40
0
40
1
40
1
40
1
40
1
10
76.034533955037219
20
-28.501269525337225
30
0
10
76.724931090281331
20
-28.501269525337225
30
0
10
77.284414597085899
20
-27.941786018532646
30
0
10
77.284414597085899
20
-27.251388883288577
30
0
0
SPLINE
5
124
100
AcDbEntity
8
0
100
AcDbSpline
70
0
71
3
72
8
73
4
74
0
42
0.000000001
43
0.0000000001
44
0.0000000001
40
5
40
5
40
5
40
5
40
6
40
6
40
6
40
6
10
64.906875537680321
20
-32.19027777094275
30
0
10
64.906875537680321
20
-32.880674906186826
30
0
10
65.466359044484804
20
-33.440158412991394
30
0
10
66.156756179728916
20
-33.440158412991394
30
0
0
LINE
5
125
100
AcDbEntity
8
0
100
AcDbLine
10
64.906875537680349
20
-12.434722220326089
30
0
11
64.906875537680321
21
-32.19027777094275
31
0
0
SPLINE
5
126
100
AcDbEntity
8
0
100
AcDbSpline
70
0
71
3
72
10
73
6
74
0
42
0.000000001
43
0.0000000001
44
0.0000000001
40
2
40
2
40
2
40
2
40
3
40
3
40
4
40
4
40
4
40
4
10
67.406636821777511
20
-12.434722220326083
30
0
10
67.406636821777511
20
-11.744325085082012
30
0
10
66.847153314972999
20
-11.184669323503176
30
0
10
65.466359044484804
20
-11.184669323503176
30
0
10
64.906875537680321
20
-11.744325085082012
30
0
10
64.906875537680321
20
-12.434722220326083
30
0
0
LINE
5
127
100
AcDbEntity
8
0
100
AcDbLine
10
67.406636821777511
20
-32.19027777094275
30
0
11
67.406636821777511
21
-12.434722220326083
31
0
0
SPLINE
5
128
100
AcDbEntity
8
0
100
AcDbSpline
70
0
71
3
72
8
73
4
74
0
42
0.000000001
43
0.0000000001
44
0.0000000001
40
0
40
0
40
0
40
0
40
1
40
1
40
1
40
1
10
66.156756179728916
20
-33.440158412991394
30
0
10
66.847153314973013
20
-33.440158412991394
30
0
10
67.406636821777511
20
-32.880674906186826
30
0
10
67.406636821777511
20
-32.19027777094275
30
0
0
SPLINE
5
129
100
AcDbEntity
8
0
100
AcDbSpline
70
0
71
3
72
8
73
4
74
0
42
0.000000001
43
0.0000000001
44
0.0000000001
40
5
40
5
40
5
40
5
40
6
40
6
40
6
40
6
10
129.81781437778935
20
-29.72083332711566
30
0
10
129.81781437778938
20
-30.411230462359718
30
0
10
130.37747013936814
20
-30.970713969164297
30
0
10
131.06786727461224
20
-30.970713969164297
30
0
0
LINE
5
130
100
AcDbEntity
8
0
100
AcDbLine
10
129.81781437778935
20
-14.904166664153147
30
0
11
129.81781437778935
21
-29.72083332711566
31
0
0
SPLINE
5
131
100
AcDbEntity
8
0
100
AcDbSpline
70
0
71
3
72
10
73
6
74
0
42
0.000000001
43
0.0000000001
44
0.0000000001
40
2
40
2
40
2
40
2
40
3
40
3
40
4
40
4
40
4
40
4
10
132.31792017143513
20
-14.904166664153141
30
0
10
132.31792017143513
20
-14.213769528909079
30
0
10
131.75826440985634
20
-13.654113767330248
30
0
10
130.37747013936814
20
-13.654113767330248
30
0
10
129.81781437778935
20
-14.213769528909083
30
0
10
129.81781437778935
20
-14.904166664153147
30
0
0
LINE
5
132
100
AcDbEntity
8
0
100
AcDbLine
10
132.31792017143516
20
-29.720833327115656
30
0
11
132.31792017143513
21
-14.904166664153141
31
0
0
SPLINE
5
133
100
AcDbEntity
8
0
100
AcDbSpline
70
0
71
3
72
8
73
4
74
0
42
0.000000001
43
0.0000000001
44
0.0000000001
40
0
40
0
40
0
40
0
40
1
40
1
40
1
40
1
10
131.06786727461224
20
-30.970713969164297
30
0
10
131.75826440985634
20
-30.970713969164297
30
0
10
132.31792017143516
20
-30.411230462359718
30
0
10
132.31792017143513
20
-29.72083332711566
30
0
0
SPLINE
5
134
100
AcDbEntity
8
0
100
AcDbSpline
70
0
71
3
72
8
73
4
74
0
42
0.000000001
43
0.0000000001
44
0.0000000001
40
5
40
5
40
5
40
5
40
6
40
6
40
6
40
6
10
69.845764425334394
20
-24.781944439461505
30
0
10
69.845764425334394
20
-25.47234157470557
30
0
10
70.405247932139034
20
-26.031825081510142
30
0
10
71.095645067383117
20
-26.031825081510142
30
0
0
LINE
5
135
100
AcDbEntity
8
0
100
AcDbLine
10
69.845764425334394
20
-19.843055551807328
30
0
11
69.845764425334394
21
-24.781944439461505
31
0
0
SPLINE
5
136
100
AcDbEntity
8
0
100
AcDbSpline
70
0
71
3
72
10
73
6
74
0
42
0.000000001
43
0.0000000001
44
0.0000000001
40
2
40
2
40
2
40
2
40
3
40
3
40
4
40
4
40
4
40
4
10
72.345525709431726
20
-19.843055551807328
30
0
10
72.345525709431726
20
-19.152658416563263
30
0
10
71.786042202627186
20
-18.593002654984431
30
0
10
70.405247932139019
20
-18.593002654984431
30
0
10
69.84576442533438
20
-19.152658416563263
30
0
10
69.84576442533438
20
-19.843055551807328
30
0
0
LINE
5
137
100
AcDbEntity
8
0
100
AcDbLine
10
72.34552570943174
20
-24.781944439461498
30
0
11
72.345525709431726
21
-19.843055551807328
31
0
0
SPLINE
5
138
100
AcDbEntity
8
0
100
AcDbSpline
70
0
71
3
72
8
73
4
74
0
42
0.000000001
43
0.0000000001
44
0.0000000001
40
0
40
0
40
0
40
0
40
1
40
1
40
1
40
1
10
71.095645067383117
20
-26.031825081510142
30
0
10
71.7860422026272
20
-26.031825081510142
30
0
10
72.34552570943174
20
-25.47234157470557
30
0
10
72.34552570943174
20
-24.781944439461498
30
0
0
SPLINE
5
139
100
AcDbEntity
8
0
100
AcDbSpline
70
0
71
3
72
8
73
4
74
0
42
0.000000001
43
0.0000000001
44
0.0000000001
40
5
40
5
40
5
40
5
40
6
40
6
40
6
40
6
10
144.63448104075181
20
-27.251388883288563
30
0
10
144.63448104075181
20
-27.941786018532639
30
0
10
145.19413680233066
20
-28.501269525337214
30
0
10
145.88453393757473
20
-28.501269525337214
30
0
0
LINE
5
140
100
AcDbEntity
8
0
100
AcDbLine
10
144.63448104075181
20
-17.373611107980235
30
0
11
144.63448104075181
21
-27.251388883288563
31
0
0
SPLINE
5
141
100
AcDbEntity
8
0
100
AcDbSpline
70
0
71
3
72
10
73
6
74
0
42
0.000000001
43
0.0000000001
44
0.0000000001
40
2
40
2
40
2
40
2
40
3
40
3
40
4
40
4
40
4
40
4
10
147.13458683439762
20
-17.373611107980231
30
0
10
147.13458683439762
20
-16.683213972736159
30
0
10
146.5749310728188
20
-16.123558211157324
30
0
10
145.19413680233066
20
-16.123558211157324
30
0
10
144.63448104075181
20
-16.683213972736159
30
0
10
144.63448104075181
20
-17.373611107980231
30
0
0
LINE
5
142
100
AcDbEntity
8
0
100
AcDbLine
10
147.13458683439762
20
-27.251388883288563
30
0
11
147.13458683439762
21
-17.373611107980231
31
0
0
SPLINE
5
143
100
AcDbEntity
8
0
100
AcDbSpline
70
0
71
3
72
8
73
4
74
0
42
0.000000001
43
0.0000000001
44
0.0000000001
40
0
40
0
40
0
40
0
40
1
40
1
40
1
40
1
10
145.88453393757473
20
-28.501269525337214
30
0
10
146.5749310728188
20
-28.501269525337214
30
0
10
147.13458683439762
20
-27.941786018532639
30
0
10
147.13458683439762
20
-27.251388883288563
30
0
0
SPLINE
5
144
100
AcDbEntity
8
0
100
AcDbSpline
70
0
71
3
72
8
73
4
74
0
42
0.000000001
43
0.0000000001
44
0.0000000001
40
5
40
5
40
5
40
5
40
6
40
6
40
6
40
6
10
169.68170325671227
20
-27.251388883288556
30
0
10
169.68170325671227
20
-27.941786018532628
30
0
10
170.24135901829112
20
-28.501269525337207
30
0
10
170.93175615353516
20
-28.501269525337207
30
0
0
LINE
5
145
100
AcDbEntity
8
0
100
AcDbLine
10
169.68170325671227
20
-17.373611107980228
30
0
11
169.68170325671227
21
-27.251388883288556
31
0
0
SPLINE
5
146
100
AcDbEntity
8
0
100
AcDbSpline
70
0
71
3
72
10
73
6
74
0
42
0.000000001
43
0.0000000001
44
0.0000000001
40
2
40
2
40
2
40
2
40
3
40
3
40
4
40
4
40
4
40
4
10
172.18180905035808
20
-17.373611107980228
30
0
10
172.18180905035808
20
-16.683213972736155
30
0
10
171.62215328877923
20
-16.123558211157317
30
0
10
170.24135901829112
20
-16.123558211157317
30
0
10
169.68170325671227
20
-16.683213972736155
30
0
10
169.68170325671227
20
-17.373611107980228
30
0
0
LINE
5
147
100
AcDbEntity
8
0
100
AcDbLine
10
172.18180905035808
20
-27.251388883288552
30
0
11
172.18180905035808
21
-17.373611107980228
31
0
0
SPLINE
5
148
100
AcDbEntity
8
0
100
AcDbSpline
70
0
71
3
72
8
73
4
74
0
42
0.000000001
43
0.0000000001
44
0.0000000001
40
0
40
0
40
0
40
0
40
1
40
1
40
1
40
1
10
170.93175615353516
20
-28.501269525337207
30
0
10
171.62215328877923
20
-28.501269525337207
30
0
10
172.18180905035808
20
-27.941786018532628
30
0
10
172.18180905035808
20
-27.251388883288556
30
0
0
SPLINE
5
149
100
AcDbEntity
8
0
100
AcDbSpline
70
0
71
3
72
8
73
4
74
0
42
0.000000001
43
0.0000000001
44
0.0000000001
40
5
40
5
40
5
40
5
40
6
40
6
40
6
40
6
10
114.64854219191152
20
-24.781944439461491
30
0
10
114.64854219191152
20
-25.47234157470556
30
0
10
115.20802569871609
20
-26.031825081510132
30
0
10
115.89842283396015
20
-26.031825081510132
30
0
0
LINE
5
150
100
AcDbEntity
8
0
100
AcDbLine
10
114.64854219191152
20
-19.843055551807318
30
0
11
114.64854219191152
21
-24.781944439461491
31
0
0
SPLINE
5
151
100
AcDbEntity
8
0
100
AcDbSpline
70
0
71
3
72
10
73
6
74
0
42
0.000000001
43
0.0000000001
44
0.0000000001
40
2
40
2
40
2
40
2
40
3
40
3
40
4
40
4
40
4
40
4
10
117.14847573078305
20
-19.843055551807321
30
0
10
117.14847573078305
20
-19.152658416563252
30
0
10
116.58881996920422
20
-18.593002654984421
30
0
10
115.20802569871609
20
-18.593002654984421
30
0
10
114.64854219191152
20
-19.152658416563252
30
0
10
114.64854219191152
20
-19.843055551807321
30
0
0
LINE
5
152
100
AcDbEntity
8
0
100
AcDbLine
10
117.14847573078308
20
-24.781944439461491
30
0
11
117.14847573078305
21
-19.843055551807321
31
0
0
SPLINE
5
153
100
AcDbEntity
8
0
100
AcDbSpline
70
0
71
3
72
8
73
4
74
0
42
0.000000001
43
0.0000000001
44
0.0000000001
40
0
40
0
40
0
40
0
40
1
40
1
40
1
40
1
10
115.89842283396015
20
-26.031825081510132
30
0
10
116.58881996920422
20
-26.031825081510132
30
0
10
117.14847573078305
20
-25.47234157470556
30
0
10
117.14847573078305
20
-24.781944439461491
30
0
0
SPLINE
5
154
100
AcDbEntity
8
0
100
AcDbSpline
70
0
71
3
72
8
73
4
74
0
42
0.000000001
43
0.0000000001
44
0.0000000001
40
5
40
5
40
5
40
5
40
6
40
6
40
6
40
6
10
119.94003660248103
20
-32.190277770942743
30
0
10
119.94003660248103
20
-32.880674906186812
30
0
10
120.49969236405984
20
-33.440158412991387
30
0
10
121.19008949930391
20
-33.440158412991387
30
0
0
LINE
5
155
100
AcDbEntity
8
0
100
AcDbLine
10
119.94003660248103
20
-12.434722220326071
30
0
11
119.94003660248103
21
-32.190277770942743
31
0
0
SPLINE
5
156
100
AcDbEntity
8
0
100
AcDbSpline
70
0
71
3
72
10
73
6
74
0
42
0.000000001
43
0.0000000001
44
0.0000000001
40
2
40
2
40
2
40
2
40
3
40
3
40
4
40
4
40
4
40
4
10
122.44014239612682
20
-12.434722220326076
30
0
10
122.44014239612682
20
-11.744325085082004
30
0
10
121.88048663454796
20
-11.184669323503167
30
0
10
120.49969236405984
20
-11.184669323503167
30
0
10
119.940036602481
20
-11.744325085082004
30
0
10
119.940036602481
20
-12.434722220326076
30
0
0
LINE
5
157
100
AcDbEntity
8
0
100
AcDbLine
10
122.44014239612683
20
-32.190277770942743
30
0
11
122.44014239612682
21
-12.434722220326076
31
0
0
SPLINE
5
158
100
AcDbEntity
8
0
100
AcDbSpline
70
0
71
3
72
8
73
4
74
0
42
0.000000001
43
0.0000000001
44
0.0000000001
40
0
40
0
40
0
40
0
40
1
40
1
40
1
40
1
10
121.19008949930391
20
-33.440158412991387
30
0
10
121.88048663454799
20
-33.440158412991387
30
0
10
122.44014239612683
20
-32.880674906186812
30
0
10
122.44014239612683
20
-32.190277770942743
30
0
0
SPLINE
5
159
100
AcDbEntity
8
0
100
AcDbSpline
70
0
71
3
72
8
73
4
74
0
42
0.000000001
43
0.0000000001
44
0.0000000001
40
5
40
5
40
5
40
5
40
6
40
6
40
6
40
6
10
159.80392548140395
20
-27.251388883288563
30
0
10
159.80392548140395
20
-27.941786018532628
30
0
10
160.36358124298275
20
-28.501269525337207
30
0
10
161.05397837822682
20
-28.501269525337207
30
0
0
LINE
5
160
100
AcDbEntity
8
0
100
AcDbLine
10
159.80392548140392
20
-17.373611107980228
30
0
11
159.80392548140395
21
-27.251388883288563
31
0
0
SPLINE
5
161
100
AcDbEntity
8
0
100
AcDbSpline
70
0
71
3
72
10
73
6
74
0
42
0.000000001
43
0.0000000001
44
0.0000000001
40
2
40
2
40
2
40
2
40
3
40
3
40
4
40
4
40
4
40
4
10
162.30403127504971
20
-17.373611107980228
30
0
10
162.30403127504971
20
-16.683213972736155
30
0
10
161.74437551347091
20
-16.123558211157317
30
0
10
160.36358124298275
20
-16.123558211157317
30
0
10
159.80392548140395
20
-16.683213972736155
30
0
10
159.80392548140395
20
-17.373611107980228
30
0
0
LINE
5
162
100
AcDbEntity
8
0
100
AcDbLine
10
162.30403127504971
20
-27.251388883288563
30
0
11
162.30403127504971
21
-17.373611107980228
31
0
0
SPLINE
5
163
100
AcDbEntity
8
0
100
AcDbSpline
70
0
71
3
72
8
73
4
74
0
42
0.000000001
43
0.0000000001
44
0.0000000001
40
0
40
0
40
0
40
0
40
1
40
1
40
1
40
1
10
161.05397837822682
20
-28.501269525337207
30
0
10
161.74437551347091
20
-28.501269525337207
30
0
10
162.30403127504971
20
-27.941786018532628
30
0
10
162.30403127504971
20
-27.251388883288556
30
0
0
SPLINE
5
164
100
AcDbEntity
8
0
100
AcDbSpline
70
0
71
3
72
8
73
4
74
0
42
0.000000001
43
0.0000000001
44
0.0000000001
40
5
40
5
40
5
40
5
40
6
40
6
40
6
40
6
10
124.8789254901352
20
-35.012499992459404
30
0
10
124.8789254901352
20
-35.702897127703473
30
0
10
125.438581251714
20
-36.262380634508048
30
0
10
126.12897838695808
20
-36.262380634508048
30
0
0
LINE
5
165
100
AcDbEntity
8
0
100
AcDbLine
10
124.87892549013516
20
-9.9652777764989793
30
0
11
124.8789254901352
21
-35.012499992459404
31
0
0
SPLINE
5
166
100
AcDbEntity
8
0
100
AcDbSpline
70
0
71
3
72
10
73
6
74
0
42
0.000000001
43
0.0000000001
44
0.0000000001
40
2
40
2
40
2
40
2
40
3
40
3
40
4
40
4
40
4
40
4
10
127.37903128378093
20
-9.9652777764989864
30
0
10
127.37903128378093
20
-9.274880641254919
30
0
10
126.81937552220217
20
-8.7152248796760858
30
0
10
125.438581251714
20
-8.7152248796760858
30
0
10
124.87892549013517
20
-9.274880641254919
30
0
10
124.87892549013517
20
-9.9652777764989864
30
0
0
LINE
5
167
100
AcDbEntity
8
0
100
AcDbLine
10
127.37903128378096
20
-35.012499992459411
30
0
11
127.37903128378093
21
-9.9652777764989864
31
0
0
SPLINE
5
168
100
AcDbEntity
8
0
100
AcDbSpline
70
0
71
3
72
8
73
4
74
0
42
0.000000001
43
0.0000000001
44
0.0000000001
40
0
40
0
40
0
40
0
40
1
40
1
40
1
40
1
10
126.12897838695808
20
-36.262380634508048
30
0
10
126.81937552220217
20
-36.262380634508048
30
0
10
127.37903128378095
20
-35.702897127703473
30
0
10
127.37903128378095
20
-35.012499992459404
30
0
0
SPLINE
5
169
100
AcDbEntity
8
0
100
AcDbSpline
70
0
71
3
72
8
73
4
74
0
42
0.000000001
43
0.0000000001
44
0.0000000001
40
5
40
5
40
5
40
5
40
6
40
6
40
6
40
6
10
89.954097753640696
20
-32.19027777094275
30
0
10
89.954097753640696
20
-32.880674906186819
30
0
10
90.513581260445221
20
-33.440158412991387
30
0
10
91.203978395689347
20
-33.440158412991387
30
0
0
LINE
5
170
100
AcDbEntity
8
0
100
AcDbLine
10
89.954097753640696
20
-12.43472222032608
30
0
11
89.954097753640696
21
-32.19027777094275
31
0
0
SPLINE
5
171
100
AcDbEntity
8
0
100
AcDbSpline
70
0
71
3
72
10
73
6
74
0
42
0.000000001
43
0.0000000001
44
0.0000000001
40
2
40
2
40
2
40
2
40
3
40
3
40
4
40
4
40
4
40
4
10
92.453859037737956
20
-12.43472222032608
30
0
10
92.453859037737956
20
-11.744325085082007
30
0
10
91.89437553093336
20
-11.184669323503172
30
0
10
90.513581260445221
20
-11.184669323503172
30
0
10
89.954097753640696
20
-11.744325085082007
30
0
10
89.954097753640696
20
-12.43472222032608
30
0
0
LINE
5
172
100
AcDbEntity
8
0
100
AcDbLine
10
92.453859037737971
20
-32.19027777094275
30
0
11
92.453859037737956
21
-12.43472222032608
31
0
0
SPLINE
5
173
100
AcDbEntity
8
0
100
AcDbSpline
70
0
71
3
72
8
73
4
74
0
42
0.000000001
43
0.0000000001
44
0.0000000001
40
0
40
0
40
0
40
0
40
1
40
1
40
1
40
1
10
91.203978395689347
20
-33.440158412991387
30
0
10
91.894375530933388
20
-33.440158412991387
30
0
10
92.453859037737971
20
-32.880674906186819
30
0
10
92.453859037737971
20
-32.19027777094275
30
0
0
SPLINE
5
174
100
AcDbEntity
8
0
100
AcDbSpline
70
0
71
3
72
8
73
4
74
0
42
0.000000001
43
0.0000000001
44
0.0000000001
40
5
40
5
40
5
40
5
40
6
40
6
40
6
40
6
10
79.723542200642783
20
-32.19027777094275
30
0
10
79.723542200642783
20
-32.880674906186826
30
0
10
80.283025707447351
20
-33.440158412991394
30
0
10
80.973422842691392
20
-33.440158412991394
30
0
0
LINE
5
175
100
AcDbEntity
8
0
100
AcDbLine
10
79.723542200642783
20
-12.43472222032608
30
0
11
79.723542200642783
21
-32.19027777094275
31
0
0
SPLINE
5
176
100
AcDbEntity
8
0
100
AcDbSpline
70
0
71
3
72
10
73
6
74
0
42
0.000000001
43
0.0000000001
44
0.0000000001
40
2
40
2
40
2
40
2
40
3
40
3
40
4
40
4
40
4
40
4
10
82.223303484740029
20
-12.43472222032608
30
0
10
82.223303484740029
20
-11.744325085082007
30
0
10
81.663819977935475
20
-11.184669323503172
30
0
10
80.283025707447351
20
-11.184669323503172
30
0
10
79.723542200642768
20
-11.744325085082007
30
0
10
79.723542200642768
20
-12.43472222032608
30
0
0
LINE
5
177
100
AcDbEntity
8
0
100
AcDbLine
10
82.223303484740029
20
-32.19027777094275
30
0
11
82.223303484740029
21
-12.43472222032608
31
0
0
SPLINE
5
178
100
AcDbEntity
8
0
100
AcDbSpline
70
0
71
3
72
8
73
4
74
0
42
0.000000001
43
0.0000000001
44
0.0000000001
40
0
40
0
40
0
40
0
40
1
40
1
40
1
40
1
10
80.973422842691392
20
-33.440158412991394
30
0
10
81.663819977935475
20
-33.440158412991394
30
0
10
82.223303484740029
20
-32.880674906186819
30
0
10
82.223303484740029
20
-32.19027777094275
30
0
0
SPLINE
5
179
100
AcDbEntity
8
0
100
AcDbSpline
70
0
71
3
72
8
73
4
74
0
42
0.000000001
43
0.0000000001
44
0.0000000001
40
5
40
5
40
5
40
5
40
6
40
6
40
6
40
6
10
99.831875528949013
20
-29.720833327115663
30
0
10
99.831875528949013
20
-30.411230462359722
30
0
10
100.3913590357536
20
-30.970713969164301
30
0
10
101.08175617099766
20
-30.970713969164301
30
0
0
LINE
5
180
100
AcDbEntity
8
0
100
AcDbLine
10
99.831875528949013
20
-14.904166664153156
30
0
11
99.831875528949013
21
-29.720833327115663
31
0
0
SPLINE
5
181
100
AcDbEntity
8
0
100
AcDbSpline
70
0
71
3
72
10
73
6
74
0
42
0.000000001
43
0.0000000001
44
0.0000000001
40
2
40
2
40
2
40
2
40
3
40
3
40
4
40
4
40
4
40
4
10
102.33163681304629
20
-14.904166664153152
30
0
10
102.33163681304629
20
-14.213769528909088
30
0
10
101.77215330624172
20
-13.654113767330252
30
0
10
100.3913590357536
20
-13.654113767330255
30
0
10
99.831875528949013
20
-14.213769528909094
30
0
10
99.831875528949013
20
-14.904166664153156
30
0
0
LINE
5
182
100
AcDbEntity
8
0
100
AcDbLine
10
102.33163681304629
20
-29.720833327115663
30
0
11
102.33163681304629
21
-14.904166664153152
31
0
0
SPLINE
5
183
100
AcDbEntity
8
0
100
AcDbSpline
70
0
71
3
72
8
73
4
74
0
42
0.000000001
43
0.0000000001
44
0.0000000001
40
0
40
0
40
0
40
0
40
1
40
1
40
1
40
1
10
101.08175617099766
20
-30.970713969164301
30
0
10
101.77215330624172
20
-30.970713969164301
30
0
10
102.3316368130463
20
-30.411230462359722
30
0
10
102.33163681304629
20
-29.720833327115663
30
0
0
SPLINE
5
184
100
AcDbEntity
8
0
100
AcDbSpline
70
0
71
3
72
8
73
4
74
0
42
0.000000001
43
0.0000000001
44
0.0000000001
40
5
40
5
40
5
40
5
40
6
40
6
40
6
40
6
10
94.89298664129484
20
-35.012499992459411
30
0
10
94.89298664129484
20
-35.70289712770348
30
0
10
95.452470148099394
20
-36.262380634508055
30
0
10
96.142867283343492
20
-36.262380634508055
30
0
0
LINE
5
185
100
AcDbEntity
8
0
100
AcDbLine
10
94.89298664129484
20
-9.9652777764989882
30
0
11
94.89298664129484
21
-35.012499992459411
31
0
0
SPLINE
5
186
100
AcDbEntity
8
0
100
AcDbSpline
70
0
71
3
72
10
73
6
74
0
42
0.000000001
43
0.0000000001
44
0.0000000001
40
2
40
2
40
2
40
2
40
3
40
3
40
4
40
4
40
4
40
4
10
97.392747925392129
20
-9.9652777764989899
30
0
10
97.392747925392129
20
-9.2748806412549243
30
0
10
96.833264418587589
20
-8.7152248796760912
30
0
10
95.45247014809938
20
-8.7152248796760912
30
0
10
94.892986641294812
20
-9.2748806412549243
30
0
10
94.892986641294812
20
-9.9652777764989899
30
0
0
LINE
5
187
100
AcDbEntity
8
0
100
AcDbLine
10
97.392747925392143
20
-35.012499992459411
30
0
11
97.392747925392129
21
-9.9652777764989899
31
0
0
SPLINE
5
188
100
AcDbEntity
8
0
100
AcDbSpline
70
0
71
3
72
8
73
4
74
0
42
0.000000001
43
0.0000000001
44
0.0000000001
40
0
40
0
40
0
40
0
40
1
40
1
40
1
40
1
10
96.142867283343492
20
-36.262380634508055
30
0
10
96.833264418587603
20
-36.262380634508055
30
0
10
97.392747925392129
20
-35.702897127703473
30
0
10
97.392747925392129
20
-35.012499992459411
30
0
0
SPLINE
5
189
100
AcDbEntity
8
0
100
AcDbSpline
70
0
71
3
72
8
73
4
74
0
42
0.000000001
43
0.0000000001
44
0.0000000001
40
5
40
5
40
5
40
5
40
6
40
6
40
6
40
6
10
154.86503659374975
20
-32.190277770942735
30
0
10
154.86503659374975
20
-32.880674906186805
30
0
10
155.4246923553286
20
-33.44015841299138
30
0
10
156.11508949057267
20
-33.44015841299138
30
0
0
LINE
5
190
100
AcDbEntity
8
0
100
AcDbLine
10
154.86503659374972
20
-12.434722220326062
30
0
11
154.86503659374975
21
-32.190277770942735
31
0
0
SPLINE
5
191
100
AcDbEntity
8
0
100
AcDbSpline
70
0
71
3
72
10
73
6
74
0
42
0.000000001
43
0.0000000001
44
0.0000000001
40
2
40
2
40
2
40
2
40
3
40
3
40
4
40
4
40
4
40
4
10
157.36514238739551
20
-12.434722220326062
30
0
10
157.36514238739551
20
-11.744325085081989
30
0
10
156.80548662581671
20
-11.184669323503154
30
0
10
155.4246923553286
20
-11.184669323503154
30
0
10
154.86503659374975
20
-11.744325085081989
30
0
10
154.86503659374975
20
-12.434722220326062
30
0
0
LINE
5
192
100
AcDbEntity
8
0
100
AcDbLine
10
157.36514238739554
20
-32.190277770942735
30
0
11
157.36514238739551
21
-12.434722220326062
31
0
0
SPLINE
5
193
100
AcDbEntity
8
0
100
AcDbSpline
70
0
71
3
72
8
73
4
74
0
42
0.000000001
43
0.0000000001
44
0.0000000001
40
0
40
0
40
0
40
0
40
1
40
1
40
1
40
1
10
156.11508949057267
20
-33.44015841299138
30
0
10
156.80548662581671
20
-33.44015841299138
30
0
10
157.36514238739551
20
-32.880674906186805
30
0
10
157.36514238739551
20
-32.190277770942735
30
0
0
SPLINE
5
194
100
AcDbEntity
8
0
100
AcDbSpline
70
0
71
3
72
8
73
4
74
0
42
0.000000001
43
0.0000000001
44
0.0000000001
40
5
40
5
40
5
40
5
40
6
40
6
40
6
40
6
10
139.69559215309766
20
-32.190277770942743
30
0
10
139.69559215309766
20
-32.880674906186805
30
0
10
140.25524791467649
20
-33.44015841299138
30
0
10
140.94564504992059
20
-33.44015841299138
30
0
0
LINE
5
195
100
AcDbEntity
8
0
100
AcDbLine
10
139.69559215309766
20
-12.434722220326071
30
0
11
139.69559215309766
21
-32.190277770942743
31
0
0
SPLINE
5
196
100
AcDbEntity
8
0
100
AcDbSpline
70
0
71
3
72
10
73
6
74
0
42
0.000000001
43
0.0000000001
44
0.0000000001
40
2
40
2
40
2
40
2
40
3
40
3
40
4
40
4
40
4
40
4
10
142.19569794674348
20
-12.434722220326066
30
0
10
142.19569794674348
20
-11.744325085081995
30
0
10
141.63604218516463
20
-11.184669323503158
30
0
10
140.25524791467649
20
-11.184669323503158
30
0
10
139.69559215309766
20
-11.744325085081995
30
0
10
139.69559215309766
20
-12.434722220326066
30
0
0
LINE
5
197
100
AcDbEntity
8
0
100
AcDbLine
10
142.19569794674351
20
-32.190277770942735
30
0
11
142.19569794674348
21
-12.434722220326066
31
0
0
SPLINE
5
198
100
AcDbEntity
8
0
100
AcDbSpline
70
0
71
3
72
8
73
4
74
0
42
0.000000001
43
0.0000000001
44
0.0000000001
40
0
40
0
40
0
40
0
40
1
40
1
40
1
40
1
10
140.94564504992059
20
-33.44015841299138
30
0
10
141.63604218516463
20
-33.44015841299138
30
0
10
142.19569794674348
20
-32.880674906186805
30
0
10
142.19569794674348
20
-32.190277770942743
30
0
0
SPLINE
5
199
100
AcDbEntity
8
0
100
AcDbSpline
70
0
71
3
72
8
73
4
74
0
42
0.000000001
43
0.0000000001
44
0.0000000001
40
5
40
5
40
5
40
5
40
6
40
6
40
6
40
6
10
59.96798665002612
20
-35.012499992459418
30
0
10
59.96798665002612
20
-35.70289712770348
30
0
10
60.527470156830702
20
-36.262380634508055
30
0
10
61.217867292074843
20
-36.262380634508055
30
0
0
LINE
5
200
100
AcDbEntity
8
0
100
AcDbLine
10
59.96798665002612
20
-9.965277776498997
30
0
11
59.96798665002612
21
-35.012499992459418
31
0
0
SPLINE
5
201
100
AcDbEntity
8
0
100
AcDbSpline
70
0
71
3
72
10
73
6
74
0
42
0.000000001
43
0.0000000001
44
0.0000000001
40
2
40
2
40
2
40
2
40
3
40
3
40
4
40
4
40
4
40
4
10
62.467747934123423
20
-9.9652777764989953
30
0
10
62.467747934123423
20
-9.2748806412549278
30
0
10
61.908264427318827
20
-8.7152248796760965
30
0
10
60.527470156830688
20
-8.7152248796760965
30
0
10
59.967986650026113
20
-9.2748806412549278
30
0
10
59.967986650026113
20
-9.9652777764989953
30
0
0
LINE
5
202
100
AcDbEntity
8
0
100
AcDbLine
10
62.467747934123437
20
-35.012499992459418
30
0
11
62.467747934123423
21
-9.9652777764989953
31
0
0
SPLINE
5
203
100
AcDbEntity
8
0
100
AcDbSpline
70
0
71
3
72
8
73
4
74
0
42
0.000000001
43
0.0000000001
44
0.0000000001
40
0
40
0
40
0
40
0
40
1
40
1
40
1
40
1
10
61.217867292074843
20
-36.262380634508055
30
0
10
61.908264427318834
20
-36.262380634508055
30
0
10
62.46774793412343
20
-35.70289712770348
30
0
10
62.46774793412343
20
-35.012499992459418
30
0
0
SPLINE
5
204
100
AcDbEntity
8
0
100
AcDbSpline
70
0
71
3
72
8
73
4
74
0
42
0.000000001
43
0.0000000001
44
0.0000000001
40
5
40
5
40
5
40
5
40
6
40
6
40
6
40
6
10
164.7428143690581
20
-35.012499992459396
30
0
10
164.7428143690581
20
-35.702897127703459
30
0
10
165.30247013063695
20
-36.262380634508034
30
0
10
165.99286726588102
20
-36.262380634508034
30
0
0
LINE
5
205
100
AcDbEntity
8
0
100
AcDbLine
10
164.7428143690581
20
-9.9652777764989704
30
0
11
164.7428143690581
21
-35.012499992459396
31
0
0
SPLINE
5
206
100
AcDbEntity
8
0
100
AcDbSpline
70
0
71
3
72
10
73
6
74
0
42
0.000000001
43
0.0000000001
44
0.0000000001
40
2
40
2
40
2
40
2
40
3
40
3
40
4
40
4
40
4
40
4
10
167.24292016270391
20
-9.9652777764989722
30
0
10
167.24292016270391
20
-9.2748806412549065
30
0
10
166.68326440112506
20
-8.7152248796760734
30
0
10
165.30247013063695
20
-8.7152248796760734
30
0
10
164.7428143690581
20
-9.2748806412549065
30
0
10
164.7428143690581
20
-9.9652777764989722
30
0
0
LINE
5
207
100
AcDbEntity
8
0
100
AcDbLine
10
167.24292016270391
20
-35.012499992459396
30
0
11
167.24292016270391
21
-9.9652777764989722
31
0
0
SPLINE
5
208
100
AcDbEntity
8
0
100
AcDbSpline
70
0
71
3
72
8
73
4
74
0
42
0.000000001
43
0.0000000001
44
0.0000000001
40
0
40
0
40
0
40
0
40
1
40
1
40
1
40
1
10
165.99286726588102
20
-36.262380634508034
30
0
10
166.68326440112506
20
-36.262380634508034
30
0
10
167.24292016270391
20
-35.702897127703459
30
0
10
167.24292016270391
20
-35.012499992459396
30
0
0
SPLINE
5
209
100
AcDbEntity
8
0
100
AcDbSpline
70
0
71
3
72
8
73
4
74
0
42
0.000000001
43
0.0000000001
44
0.0000000001
40
5
40
5
40
5
40
5
40
6
40
6
40
6
40
6
10
149.92614770609558
20
-29.720833327115656
30
0
10
149.92614770609558
20
-30.411230462359711
30
0
10
150.48580346767443
20
-30.970713969164294
30
0
10
151.17620060291847
20
-30.970713969164294
30
0
0
LINE
5
210
100
AcDbEntity
8
0
100
AcDbLine
10
149.92614770609555
20
-14.904166664153141
30
0
11
149.92614770609558
21
-29.720833327115656
31
0
0
SPLINE
5
211
100
AcDbEntity
8
0
100
AcDbSpline
70
0
71
3
72
10
73
6
74
0
42
0.000000001
43
0.0000000001
44
0.0000000001
40
2
40
2
40
2
40
2
40
3
40
3
40
4
40
4
40
4
40
4
10
152.42625349974139
20
-14.904166664153141
30
0
10
152.42625349974139
20
-14.213769528909079
30
0
10
151.86659773816257
20
-13.654113767330243
30
0
10
150.4858034676744
20
-13.654113767330243
30
0
10
149.92614770609558
20
-14.213769528909079
30
0
10
149.92614770609558
20
-14.904166664153141
30
0
0
LINE
5
212
100
AcDbEntity
8
0
100
AcDbLine
10
152.42625349974142
20
-29.720833327115656
30
0
11
152.42625349974139
21
-14.904166664153141
31
0
0
SPLINE
5
213
100
AcDbEntity
8
0
100
AcDbSpline
70
0
71
3
72
8
73
4
74
0
42
0.000000001
43
0.0000000001
44
0.0000000001
40
0
40
0
40
0
40
0
40
1
40
1
40
1
40
1
10
151.17620060291847
20
-30.970713969164294
30
0
10
151.86659773816257
20
-30.970713969164294
30
0
10
152.42625349974139
20
-30.411230462359711
30
0
10
152.42625349974139
20
-29.720833327115656
30
0
0
SPLINE
5
214
100
AcDbEntity
8
0
100
AcDbSpline
70
0
71
3
72
8
73
4
74
0
42
0.000000001
43
0.0000000001
44
0.0000000001
40
5
40
5
40
5
40
5
40
6
40
6
40
6
40
6
10
104.77076441660319
20
-24.781944439461494
30
0
10
104.77076441660319
20
-25.47234157470556
30
0
10
105.33024792340775
20
-26.031825081510132
30
0
10
106.02064505865184
20
-26.031825081510132
30
0
0
LINE
5
215
100
AcDbEntity
8
0
100
AcDbLine
10
104.77076441660317
20
-19.843055551807325
30
0
11
104.77076441660319
21
-24.781944439461494
31
0
0
SPLINE
5
216
100
AcDbEntity
8
0
100
AcDbSpline
70
0
71
3
72
10
73
6
74
0
42
0.000000001
43
0.0000000001
44
0.0000000001
40
2
40
2
40
2
40
2
40
3
40
3
40
4
40
4
40
4
40
4
10
107.27052570070046
20
-19.843055551807321
30
0
10
107.27052570070046
20
-19.152658416563252
30
0
10
106.71104219389591
20
-18.593002654984421
30
0
10
105.33024792340775
20
-18.593002654984421
30
0
10
104.77076441660319
20
-19.152658416563252
30
0
10
104.77076441660319
20
-19.843055551807321
30
0
0
LINE
5
217
100
AcDbEntity
8
0
100
AcDbLine
10
107.27052570070046
20
-24.781944439461491
30
0
11
107.27052570070046
21
-19.843055551807321
31
0
0
SPLINE
5
218
100
AcDbEntity
8
0
100
AcDbSpline
70
0
71
3
72
8
73
4
74
0
42
0.000000001
43
0.0000000001
44
0.0000000001
40
0
40
0
40
0
40
0
40
1
40
1
40
1
40
1
10
106.02064505865184
20
-26.031825081510132
30
0
10
106.71104219389591
20
-26.031825081510132
30
0
10
107.27052570070046
20
-25.47234157470556
30
0
10
107.27052570070046
20
-24.781944439461494
30
0
0
LWPOLYLINE
5
219
100
AcDbEntity
8
0
100
AcDbPolyline
90
4
70
1
43
0.0
10
51.18805006815321
20
-40.000000000000043
10
51.188050068153203
20
-5.0000000000000444
10
181.18805006981779
20
-5.0000000000000133
10
181.18805006981779
20
-40.000000000000014
0
CIRCLE
5
220
100
AcDbEntity
8
0
100
AcDbCircle
10
74.07357360529312
20
-48.500000000000014
30
0
40
1.3500000000000023
210
0
220
0
230
1
0
CIRCLE
5
221
100
AcDbEntity
8
0
100
AcDbCircle
10
31.594024658191593
20
-76.500000000000014
30
0
40
1.3499999999999979
210
0
220
0
230
1
0
CIRCLE
5
222
100
AcDbEntity
8
0
100
AcDbCircle
10
154.59402465819176
20
-48.499999999999986
30
0
40
1.3499999999999979
210
0
220
0
230
1
0
CIRCLE
5
223
100
AcDbEntity
8
0
100
AcDbCircle
10
31.594024658191742
20
-48.500000000000014
30
0
40
1.3499999999999979
210
0
220
0
230
1
0
CIRCLE
5
224
100
AcDbEntity
8
0
100
AcDbCircle
10
154.59402465819178
20
-76.499999999999986
30
0
40
1.3499999999999979
210
0
220
0
230
1
0
LWPOLYLINE
5
225
100
AcDbEntity
8
0
100
AcDbPolyline
90
8
70
1
43
0.0
10
97.764024658203127
20
-72
10
97.764024658203127
20
-71.339999999999989
42
0.41421356237309503
10
96.314024658203124
20
-69.890000000000001
10
89.874024658203126
20
-69.890000000000001
42
0.41421356237309687
10
88.424024658203123
20
-71.339999999999989
10
88.424024658203123
20
-72
42
0.41421356237309687
10
89.874024658203112
20
-73.450000000000003
10
96.314024658203138
20
-73.450000000000003
42
0.41421356237309326
0
CIRCLE
5
226
100
AcDbEntity
8
0
100
AcDbCircle
10
74.07357360529312
20
-66.949999999999989
30
0
40
5
210
0
220
0
230
1
0
CIRCLE
5
227
100
AcDbEntity
8
0
100
AcDbCircle
10
112.24065899142911
20
-63.875767832156988
30
0
40
8.0000000149011754
210
0
220
0
230
1
0
CIRCLE
5
228
100
AcDbEntity
8
0
100
AcDbCircle
10
53.736024658203121
20
-66.949999999999989
30
0
40
4.1500000000000048
210
0
220
0
230
1
0
CIRCLE
5
229
100
AcDbEntity
8
0
100
AcDbCircle
10
132.48191899142913
20
-63.875767832156981
30
0
40
8.0000000149011754
210
0
220
0
230
1
0
LWPOLYLINE
5
230
100
AcDbEntity
8
0
100
AcDbPolyline
90
4
70
1
43
0.0
10
28.094024658203125
20
-80.000000000000014
10
28.094024658203125
20
-45.000000000000014
10
158.09402465820312
20
-44.999999999999986
10
158.09402465820312
20
-79.999999999999986
0
CIRCLE
5
231
100
AcDbEntity
8
0
100
AcDbCircle
10
131.49999180351892
20
-88.499999999999943
30
0
40
1.3500000000000001
210
0
220
0
230
1
0
CIRCLE
5
232
100
AcDbEntity
8
0
100
AcDbCircle
10
8.4999918035400057
20
-116.49999999999991
30
0
40
1.3499999999999979
210
0
220
0
230
1
0
CIRCLE
5
233
100
AcDbEntity
8
0
100
AcDbCircle
10
131.49999180351892
20
-116.49999999999994
30
0
40
1.3500000000000001
210
0
220
0
230
1
0
CIRCLE
5
234
100
AcDbEntity
8
0
100
AcDbCircle
10
8.4999918035400235
20
-88.499999999999929
30
0
40
1.3499999999999979
210
0
220
0
230
1
0
SPLINE
5
235
100
AcDbEntity
8
0
100
AcDbSpline
70
0
71
3
72
8
73
4
74
0
42
0.000000001
43
0.0000000001
44
0.0000000001
40
-6
40
-6
40
-6
40
-6
40
-5
40
-5
40
-5
40
-5
10
50.2368413080384
20
-88.737619365491895
30
0
10
49.54644417279431
20
-88.737619365491895
30
0
10
48.986960665989741
20
-89.297102872296477
30
0
10
48.986960665989741
20
-89.987500007540547
30
0
0
LINE
5
236
100
AcDbEntity
8
0
100
AcDbLine
10
48.986960665989741
20
-89.987500007540547
30
0
11
48.986960665989763
21
-115.03472222350096
31
0
0
SPLINE
5
237
100
AcDbEntity
8
0
100
AcDbSpline
70
0
71
3
72
10
73
6
74
0
42
0.000000001
43
0.0000000001
44
0.0000000001
40
-4
40
-4
40
-4
40
-4
40
-3
40
-3
40
-2
40
-2
40
-2
40
-2
10
48.986960665989727
20
-115.03472222350096
30
0
10
48.986960665989727
20
-115.72511935874502
30
0
10
49.546444172794288
20
-116.28477512032387
30
0
10
50.927238443282477
20
-116.28477512032387
30
0
10
51.486721950087038
20
-115.72511935874502
30
0
10
51.486721950087038
20
-115.03472222350096
30
0
0
LINE
5
238
100
AcDbEntity
8
0
100
AcDbLine
10
51.486721950087038
20
-115.03472222350096
30
0
11
51.486721950087038
21
-89.987500007540547
31
0
0
SPLINE
5
239
100
AcDbEntity
8
0
100
AcDbSpline
70
0
71
3
72
8
73
4
74
0
42
0.000000001
43
0.0000000001
44
0.0000000001
40
-1
40
-1
40
-1
40
-1
40
0
40
0
40
0
40
0
10
51.486721950087038
20
-89.987500007540547
30
0
10
51.486721950087038
20
-89.297102872296477
30
0
10
50.927238443282477
20
-88.737619365491895
30
0
10
50.2368413080384
20
-88.737619365491895
30
0
0
LINE
5
240
100
AcDbEntity
8
0
100
AcDbLine
10
106.52022752443635
20
-110.09583333584681
30
0
11
106.52022752443635
21
-95.279166672884301
31
0
0
SPLINE
5
241
100
AcDbEntity
8
0
100
AcDbSpline
70
0
71
3
72
8
73
4
74
0
42
0.000000001
43
0.0000000001
44
0.0000000001
40
-1
40
-1
40
-1
40
-1
40
0
40
0
40
0
40
0
10
106.52022752443635
20
-95.279166672884301
30
0
10
106.52022752443635
20
-94.588769537640246
30
0
10
105.96057176285747
20
-94.029286030835664
30
0
10
105.27017462761341
20
-94.029286030835664
30
0
0
SPLINE
5
242
100
AcDbEntity
8
0
100
AcDbSpline
70
0
71
3
72
8
73
4
74
0
42
0.000000001
43
0.0000000001
44
0.0000000001
40
-6
40
-6
40
-6
40
-6
40
-5
40
-5
40
-5
40
-5
10
105.27017462761339
20
-94.029286030835664
30
0
10
104.57977749236935
20
-94.029286030835664
30
0
10
104.02012173079051
20
-94.588769537640246
30
0
10
104.02012173079051
20
-95.279166672884301
30
0
0
LINE
5
243
100
AcDbEntity
8
0
100
AcDbLine
10
104.02012173079051
20
-95.279166672884301
30
0
11
104.02012173079051
21
-110.09583333584681
31
0
0
SPLINE
5
244
100
AcDbEntity
8
0
100
AcDbSpline
70
0
71
3
72
10
73
6
74
0
42
0.000000001
43
0.0000000001
44
0.0000000001
40
-4
40
-4
40
-4
40
-4
40
-3
40
-3
40
-2
40
-2
40
-2
40
-2
10
104.02012173079051
20
-110.09583333584681
30
0
10
104.02012173079051
20
-110.78623047109087
30
0
10
104.57977749236935
20
-111.34588623266971
30
0
10
105.96057176285747
20
-111.34588623266971
30
0
10
106.52022752443634
20
-110.78623047109087
30
0
10
106.52022752443634
20
-110.09583333584681
30
0
0
SPLINE
5
245
100
AcDbEntity
8
0
100
AcDbSpline
70
0
71
3
72
8
73
4
74
0
42
0.000000001
43
0.0000000001
44
0.0000000001
40
-6
40
-6
40
-6
40
-6
40
-5
40
-5
40
-5
40
-5
10
125.02573017823008
20
-96.498730474662736
30
0
10
124.33533304298604
20
-96.498730474662736
30
0
10
123.77567728140718
20
-97.058213981467318
30
0
10
123.77567728140718
20
-97.748611116711402
30
0
0
LINE
5
246
100
AcDbEntity
8
0
100
AcDbLine
10
123.77567728140718
20
-97.748611116711402
30
0
11
123.7756772814072
21
-107.62638889201972
31
0
0
SPLINE
5
247
100
AcDbEntity
8
0
100
AcDbSpline
70
0
71
3
72
10
73
6
74
0
42
0.000000001
43
0.0000000001
44
0.0000000001
40
-4
40
-4
40
-4
40
-4
40
-3
40
-3
40
-2
40
-2
40
-2
40
-2
10
123.77567728140718
20
-107.62638889201973
30
0
10
123.77567728140718
20
-108.31678602726379
30
0
10
124.33533304298604
20
-108.87644178884264
30
0
10
125.71612731347413
20
-108.87644178884264
30
0
10
126.27578307505296
20
-108.31678602726379
30
0
10
126.27578307505296
20
-107.62638889201973
30
0
0
LINE
5
248
100
AcDbEntity
8
0
100
AcDbLine
10
126.27578307505296
20
-107.62638889201973
30
0
11
126.275783075053
21
-97.748611116711402
31
0
0
SPLINE
5
249
100
AcDbEntity
8
0
100
AcDbSpline
70
0
71
3
72
8
73
4
74
0
42
0.000000001
43
0.0000000001
44
0.0000000001
40
-1
40
-1
40
-1
40
-1
40
0
40
0
40
0
40
0
10
126.27578307505297
20
-97.748611116711402
30
0
10
126.27578307505297
20
-97.058213981467318
30
0
10
125.71612731347415
20
-96.498730474662736
30
0
10
125.02573017823009
20
-96.498730474662736
30
0
0
SPLINE
5
250
100
AcDbEntity
8
0
100
AcDbSpline
70
0
71
3
72
8
73
4
74
0
42
0.000000001
43
0.0000000001
44
0.0000000001
40
-6
40
-6
40
-6
40
-6
40
-5
40
-5
40
-5
40
-5
10
35.0673968673863
20
-91.559841587008577
30
0
10
34.376999732142259
20
-91.559841587008577
30
0
10
33.817516225337684
20
-92.119325093813131
30
0
10
33.817516225337684
20
-92.809722229057201
30
0
0
LINE
5
251
100
AcDbEntity
8
0
100
AcDbLine
10
33.817516225337684
20
-92.809722229057201
30
0
11
33.817516225337677
21
-112.56527777967389
31
0
0
SPLINE
5
252
100
AcDbEntity
8
0
100
AcDbSpline
70
0
71
3
72
10
73
6
74
0
42
0.000000001
43
0.0000000001
44
0.0000000001
40
-4
40
-4
40
-4
40
-4
40
-3
40
-3
40
-2
40
-2
40
-2
40
-2
10
33.817516225337684
20
-112.56527777967386
30
0
10
33.817516225337684
20
-113.25567491491795
30
0
10
34.376999732142259
20
-113.81533067649677
30
0
10
35.757794002630362
20
-113.81533067649677
30
0
10
36.317277509434938
20
-113.25567491491795
30
0
10
36.317277509434938
20
-112.56527777967386
30
0
0
LINE
5
253
100
AcDbEntity
8
0
100
AcDbLine
10
36.317277509434938
20
-112.56527777967386
30
0
11
36.317277509434973
21
-92.809722229057201
31
0
0
SPLINE
5
254
100
AcDbEntity
8
0
100
AcDbSpline
70
0
71
3
72
8
73
4
74
0
42
0.000000001
43
0.0000000001
44
0.0000000001
40
-1
40
-1
40
-1
40
-1
40
0
40
0
40
0
40
0
10
36.317277509434959
20
-92.809722229057201
30
0
10
36.317277509434959
20
-92.119325093813131
30
0
10
35.757794002630376
20
-91.559841587008577
30
0
10
35.0673968673863
20
-91.559841587008577
30
0
0
SPLINE
5
255
100
AcDbEntity
8
0
100
AcDbSpline
70
0
71
3
72
8
73
4
74
0
42
0.000000001
43
0.0000000001
44
0.0000000001
40
-1
40
-1
40
-1
40
-1
40
0
40
0
40
0
40
0
10
21.500610846472448
20
-92.809722229057201
30
0
10
21.500610846472448
20
-92.119325093813131
30
0
10
20.941127339667904
20
-91.559841587008549
30
0
10
20.250730204423846
20
-91.559841587008549
30
0
0
SPLINE
5
256
100
AcDbEntity
8
0
100
AcDbSpline
70
0
71
3
72
8
73
4
74
0
42
0.000000001
43
0.0000000001
44
0.0000000001
40
-6
40
-6
40
-6
40
-6
40
-5
40
-5
40
-5
40
-5
10
20.250730204423846
20
-91.559841587008549
30
0
10
19.560333069179752
20
-91.559841587008549
30
0
10
19.000849562375244
20
-92.119325093813131
30
0
10
19.000849562375244
20
-92.809722229057201
30
0
0
LINE
5
257
100
AcDbEntity
8
0
100
AcDbLine
10
19.000849562375244
20
-92.809722229057201
30
0
11
19.000849562375222
21
-112.56527777967385
31
0
0
SPLINE
5
258
100
AcDbEntity
8
0
100
AcDbSpline
70
0
71
3
72
10
73
6
74
0
42
0.000000001
43
0.0000000001
44
0.0000000001
40
-4
40
-4
40
-4
40
-4
40
-3
40
-3
40
-2
40
-2
40
-2
40
-2
10
19.000849562375226
20
-112.56527777967386
30
0
10
19.000849562375226
20
-113.25567491491795
30
0
10
19.560333069179734
20
-113.81533067649677
30
0
10
20.941127339667887
20
-113.81533067649677
30
0
10
21.50061084647243
20
-113.25567491491795
30
0
10
21.50061084647243
20
-112.56527777967386
30
0
0
LINE
5
259
100
AcDbEntity
8
0
100
AcDbLine
10
21.50061084647243
20
-112.56527777967386
30
0
11
21.500610846472448
21
-92.809722229057201
31
0
0
LINE
5
260
100
AcDbEntity
8
0
100
AcDbLine
10
83.911788402484277
20
-95.279166672884301
30
0
11
83.911788402484277
21
-110.09583333584681
31
0
0
SPLINE
5
261
100
AcDbEntity
8
0
100
AcDbSpline
70
0
71
3
72
10
73
6
74
0
42
0.000000001
43
0.0000000001
44
0.0000000001
40
-4
40
-4
40
-4
40
-4
40
-3
40
-3
40
-2
40
-2
40
-2
40
-2
10
83.911788402484262
20
-110.09583333584681
30
0
10
83.911788402484262
20
-110.78623047109087
30
0
10
84.471444164063044
20
-111.34588623266971
30
0
10
85.852238434551225
20
-111.34588623266971
30
0
10
86.411894196130049
20
-110.78623047109087
30
0
10
86.411894196130049
20
-110.09583333584681
30
0
0
LINE
5
262
100
AcDbEntity
8
0
100
AcDbLine
10
86.411894196130049
20
-110.09583333584681
30
0
11
86.411894196130049
21
-95.279166672884287
31
0
0
SPLINE
5
263
100
AcDbEntity
8
0
100
AcDbSpline
70
0
71
3
72
8
73
4
74
0
42
0.000000001
43
0.0000000001
44
0.0000000001
40
-1
40
-1
40
-1
40
-1
40
0
40
0
40
0
40
0
10
86.411894196130021
20
-95.279166672884301
30
0
10
86.411894196130049
20
-94.588769537640246
30
0
10
85.852238434551225
20
-94.029286030835664
30
0
10
85.161841299307127
20
-94.029286030835664
30
0
0
SPLINE
5
264
100
AcDbEntity
8
0
100
AcDbSpline
70
0
71
3
72
8
73
4
74
0
42
0.000000001
43
0.0000000001
44
0.0000000001
40
-6
40
-6
40
-6
40
-6
40
-5
40
-5
40
-5
40
-5
10
85.161841299307142
20
-94.029286030835664
30
0
10
84.471444164063058
20
-94.029286030835664
30
0
10
83.911788402484277
20
-94.588769537640246
30
0
10
83.911788402484262
20
-95.279166672884301
30
0
0
LINE
5
265
100
AcDbEntity
8
0
100
AcDbLine
10
16.561721958818342
20
-115.03472222350096
30
0
11
16.56172195881835
21
-89.987500007540547
31
0
0
SPLINE
5
266
100
AcDbEntity
8
0
100
AcDbSpline
70
0
71
3
72
8
73
4
74
0
42
0.000000001
43
0.0000000001
44
0.0000000001
40
-1
40
-1
40
-1
40
-1
40
0
40
0
40
0
40
0
10
16.561721958818332
20
-89.987500007540547
30
0
10
16.561721958818332
20
-89.297102872296463
30
0
10
16.002238452013735
20
-88.737619365491895
30
0
10
15.311841316769783
20
-88.737619365491895
30
0
0
SPLINE
5
267
100
AcDbEntity
8
0
100
AcDbSpline
70
0
71
3
72
8
73
4
74
0
42
0.000000001
43
0.0000000001
44
0.0000000001
40
-6
40
-6
40
-6
40
-6
40
-5
40
-5
40
-5
40
-5
10
15.311841316769801
20
-88.737619365491895
30
0
10
14.621444181525618
20
-88.737619365491895
30
0
10
14.061960674721021
20
-89.297102872296463
30
0
10
14.061960674721021
20
-89.987500007540547
30
0
0
LINE
5
268
100
AcDbEntity
8
0
100
AcDbLine
10
14.061960674721021
20
-89.987500007540547
30
0
11
14.061960674721018
21
-115.03472222350095
31
0
0
SPLINE
5
269
100
AcDbEntity
8
0
100
AcDbSpline
70
0
71
3
72
10
73
6
74
0
42
0.000000001
43
0.0000000001
44
0.0000000001
40
-4
40
-4
40
-4
40
-4
40
-3
40
-3
40
-2
40
-2
40
-2
40
-2
10
14.061960674721021
20
-115.03472222350096
30
0
10
14.061960674721021
20
-115.72511935874502
30
0
10
14.621444181525618
20
-116.28477512032387
30
0
10
16.002238452013735
20
-116.28477512032387
30
0
10
16.561721958818332
20
-115.72511935874502
30
0
10
16.561721958818332
20
-115.03472222350096
30
0
0
LINE
5
270
100
AcDbEntity
8
0
100
AcDbLine
10
38.756405112991835
20
-89.987500007540547
30
0
11
38.756405112991828
21
-115.03472222350096
31
0
0
SPLINE
5
271
100
AcDbEntity
8
0
100
AcDbSpline
70
0
71
3
72
10
73
6
74
0
42
0.000000001
43
0.0000000001
44
0.0000000001
40
-4
40
-4
40
-4
40
-4
40
-3
40
-3
40
-2
40
-2
40
-2
40
-2
10
38.756405112991828
20
-115.03472222350096
30
0
10
38.756405112991828
20
-115.72511935874502
30
0
10
39.315888619796425
20
-116.28477512032387
30
0
10
40.696682890284563
20
-116.28477512032387
30
0
10
41.256166397089103
20
-115.72511935874502
30
0
10
41.256166397089103
20
-115.03472222350096
30
0
0
LINE
5
272
100
AcDbEntity
8
0
100
AcDbLine
10
41.256166397089103
20
-115.03472222350096
30
0
11
41.256166397089146
21
-89.987500007540547
31
0
0
SPLINE
5
273
100
AcDbEntity
8
0
100
AcDbSpline
70
0
71
3
72
8
73
4
74
0
42
0.000000001
43
0.0000000001
44
0.0000000001
40
-1
40
-1
40
-1
40
-1
40
0
40
0
40
0
40
0
10
41.256166397089125
20
-89.987500007540547
30
0
10
41.256166397089125
20
-89.297102872296477
30
0
10
40.696682890284563
20
-88.737619365491895
30
0
10
40.006285755040508
20
-88.737619365491895
30
0
0
SPLINE
5
274
100
AcDbEntity
8
0
100
AcDbSpline
70
0
71
3
72
8
73
4
74
0
42
0.000000001
43
0.0000000001
44
0.0000000001
40
-6
40
-6
40
-6
40
-6
40
-5
40
-5
40
-5
40
-5
10
40.006285755040487
20
-88.737619365491895
30
0
10
39.315888619796446
20
-88.737619365491895
30
0
10
38.756405112991828
20
-89.297102872296477
30
0
10
38.756405112991828
20
-89.987500007540547
30
0
0
SPLINE
5
275
100
AcDbEntity
8
0
100
AcDbSpline
70
0
71
3
72
10
73
6
74
0
42
0.000000001
43
0.0000000001
44
0.0000000001
40
-4
40
-4
40
-4
40
-4
40
-3
40
-3
40
-2
40
-2
40
-2
40
-2
10
88.850677290138393
20
-115.03472222350098
30
0
10
88.850677290138393
20
-115.72511935874503
30
0
10
89.410333051717231
20
-116.28477512032387
30
0
10
90.791127322205384
20
-116.28477512032387
30
0
10
91.350783083784222
20
-115.72511935874503
30
0
10
91.350783083784222
20
-115.03472222350098
30
0
0
LINE
5
276
100
AcDbEntity
8
0
100
AcDbLine
10
91.350783083784222
20
-115.03472222350098
30
0
11
91.350783083784222
21
-89.987500007540561
31
0
0
SPLINE
5
277
100
AcDbEntity
8
0
100
AcDbSpline
70
0
71
3
72
8
73
4
74
0
42
0.000000001
43
0.0000000001
44
0.0000000001
40
-1
40
-1
40
-1
40
-1
40
0
40
0
40
0
40
0
10
91.350783083784236
20
-89.987500007540561
30
0
10
91.350783083784236
20
-89.297102872296477
30
0
10
90.791127322205398
20
-88.737619365491923
30
0
10
90.100730186961314
20
-88.737619365491895
30
0
0
SPLINE
5
278
100
AcDbEntity
8
0
100
AcDbSpline
70
0
71
3
72
8
73
4
74
0
42
0.000000001
43
0.0000000001
44
0.0000000001
40
-6
40
-6
40
-6
40
-6
40
-5
40
-5
40
-5
40
-5
10
90.100730186961314
20
-88.737619365491895
30
0
10
89.410333051717259
20
-88.737619365491895
30
0
10
88.850677290138421
20
-89.297102872296477
30
0
10
88.850677290138421
20
-89.987500007540561
30
0
0
LINE
5
279
100
AcDbEntity
8
0
100
AcDbLine
10
88.850677290138421
20
-89.987500007540561
30
0
11
88.850677290138393
21
-115.03472222350098
31
0
0
LINE
5
280
100
AcDbEntity
8
0
100
AcDbLine
10
61.364499725395376
20
-105.15694444819263
30
0
11
61.364499725395376
21
-100.21805556053847
31
0
0
SPLINE
5
281
100
AcDbEntity
8
0
100
AcDbSpline
70
0
71
3
72
8
73
4
74
0
42
0.000000001
43
0.0000000001
44
0.0000000001
40
-1
40
-1
40
-1
40
-1
40
0
40
0
40
0
40
0
10
61.364499725395362
20
-100.21805556053846
30
0
10
61.364499725395362
20
-99.527658425294391
30
0
10
60.805016218590808
20
-98.968174918489808
30
0
10
60.114619083346724
20
-98.968174918489808
30
0
0
SPLINE
5
282
100
AcDbEntity
8
0
100
AcDbSpline
70
0
71
3
72
8
73
4
74
0
42
0.000000001
43
0.0000000001
44
0.0000000001
40
-6
40
-6
40
-6
40
-6
40
-5
40
-5
40
-5
40
-5
10
60.114619083346724
20
-98.968174918489808
30
0
10
59.424221948102684
20
-98.968174918489808
30
0
10
58.864738441298087
20
-99.527658425294391
30
0
10
58.864738441298087
20
-100.21805556053846
30
0
0
LINE
5
283
100
AcDbEntity
8
0
100
AcDbLine
10
58.864738441298087
20
-100.21805556053846
30
0
11
58.864738441298087
21
-105.15694444819263
31
0
0
SPLINE
5
284
100
AcDbEntity
8
0
100
AcDbSpline
70
0
71
3
72
10
73
6
74
0
42
0.000000001
43
0.0000000001
44
0.0000000001
40
-4
40
-4
40
-4
40
-4
40
-3
40
-3
40
-2
40
-2
40
-2
40
-2
10
58.864738441298087
20
-105.15694444819263
30
0
10
58.864738441298087
20
-105.84734158343672
30
0
10
59.424221948102684
20
-106.40699734501554
30
0
10
60.805016218590815
20
-106.40699734501554
30
0
10
61.364499725395369
20
-105.84734158343672
30
0
10
61.364499725395369
20
-105.15694444819263
30
0
0
LINE
5
285
100
AcDbEntity
8
0
100
AcDbLine
10
56.425610837741203
20
-110.09583333584681
30
0
11
56.425610837741203
21
-95.279166672884301
31
0
0
SPLINE
5
286
100
AcDbEntity
8
0
100
AcDbSpline
70
0
71
3
72
8
73
4
74
0
42
0.000000001
43
0.0000000001
44
0.0000000001
40
-1
40
-1
40
-1
40
-1
40
0
40
0
40
0
40
0
10
56.425610837741189
20
-95.279166672884287
30
0
10
56.425610837741189
20
-94.588769537640218
30
0
10
55.866127330936628
20
-94.02928603083565
30
0
10
55.175730195692566
20
-94.02928603083565
30
0
0
SPLINE
5
287
100
AcDbEntity
8
0
100
AcDbSpline
70
0
71
3
72
8
73
4
74
0
42
0.000000001
43
0.0000000001
44
0.0000000001
40
-6
40
-6
40
-6
40
-6
40
-5
40
-5
40
-5
40
-5
10
55.175730195692552
20
-94.02928603083565
30
0
10
54.485333060448511
20
-94.02928603083565
30
0
10
53.925849553643914
20
-94.588769537640218
30
0
10
53.925849553643914
20
-95.279166672884287
30
0
0
LINE
5
288
100
AcDbEntity
8
0
100
AcDbLine
10
53.925849553643914
20
-95.279166672884287
30
0
11
53.925849553643914
21
-110.09583333584679
31
0
0
SPLINE
5
289
100
AcDbEntity
8
0
100
AcDbSpline
70
0
71
3
72
10
73
6
74
0
42
0.000000001
43
0.0000000001
44
0.0000000001
40
-4
40
-4
40
-4
40
-4
40
-3
40
-3
40
-2
40
-2
40
-2
40
-2
10
53.9258495536439
20
-110.09583333584679
30
0
10
53.9258495536439
20
-110.78623047109087
30
0
10
54.485333060448475
20
-111.3458862326697
30
0
10
55.866127330936628
20
-111.3458862326697
30
0
10
56.425610837741189
20
-110.78623047109087
30
0
10
56.425610837741189
20
-110.09583333584679
30
0
0
SPLINE
5
290
100
AcDbEntity
8
0
100
AcDbSpline
70
0
71
3
72
8
73
4
74
0
42
0.000000001
43
0.0000000001
44
0.0000000001
40
-6
40
-6
40
-6
40
-6
40
-5
40
-5
40
-5
40
-5
10
110.20906351526759
20
-91.559841587008577
30
0
10
109.5186663800235
20
-91.559841587008577
30
0
10
108.95901061844467
20
-92.119325093813146
30
0
10
108.95901061844467
20
-92.809722229057229
30
0
0
LINE
5
291
100
AcDbEntity
8
0
100
AcDbLine
10
108.95901061844467
20
-92.809722229057229
30
0
11
108.95901061844468
21
-112.56527777967389
31
0
0
SPLINE
5
292
100
AcDbEntity
8
0
100
AcDbSpline
70
0
71
3
72
10
73
6
74
0
42
0.000000001
43
0.0000000001
44
0.0000000001
40
-4
40
-4
40
-4
40
-4
40
-3
40
-3
40
-2
40
-2
40
-2
40
-2
10
108.95901061844467
20
-112.56527777967389
30
0
10
108.95901061844467
20
-113.25567491491796
30
0
10
109.5186663800235
20
-113.81533067649679
30
0
10
110.89946065051163
20
-113.81533067649679
30
0
10
111.45911641209047
20
-113.25567491491796
30
0
10
111.45911641209047
20
-112.56527777967389
30
0
0
LINE
5
293
100
AcDbEntity
8
0
100
AcDbLine
10
111.45911641209047
20
-112.56527777967389
30
0
11
111.45911641209047
21
-92.809722229057229
31
0
0
SPLINE
5
294
100
AcDbEntity
8
0
100
AcDbSpline
70
0
71
3
72
8
73
4
74
0
42
0.000000001
43
0.0000000001
44
0.0000000001
40
-1
40
-1
40
-1
40
-1
40
0
40
0
40
0
40
0
10
111.45911641209047
20
-92.809722229057229
30
0
10
111.45911641209047
20
-92.119325093813146
30
0
10
110.89946065051164
20
-91.559841587008577
30
0
10
110.20906351526759
20
-91.559841587008577
30
0
0
SPLINE
5
295
100
AcDbEntity
8
0
100
AcDbSpline
70
0
71
3
72
8
73
4
74
0
42
0.000000001
43
0.0000000001
44
0.0000000001
40
-6
40
-6
40
-6
40
-6
40
-5
40
-5
40
-5
40
-5
10
65.053507971000911
20
-96.498730474662736
30
0
10
64.363110835756856
20
-96.498730474662736
30
0
10
63.803627328952246
20
-97.058213981467318
30
0
10
63.803627328952246
20
-97.748611116711373
30
0
0
LINE
5
296
100
AcDbEntity
8
0
100
AcDbLine
10
63.803627328952246
20
-97.748611116711373
30
0
11
63.80362732895226
21
-107.62638889201972
31
0
0
SPLINE
5
297
100
AcDbEntity
8
0
100
AcDbSpline
70
0
71
3
72
10
73
6
74
0
42
0.000000001
43
0.0000000001
44
0.0000000001
40
-4
40
-4
40
-4
40
-4
40
-3
40
-3
40
-2
40
-2
40
-2
40
-2
10
63.803627328952231
20
-107.62638889201972
30
0
10
63.803627328952231
20
-108.31678602726379
30
0
10
64.363110835756842
20
-108.87644178884261
30
0
10
65.743905106244952
20
-108.87644178884261
30
0
10
66.303388613049549
20
-108.31678602726379
30
0
10
66.303388613049549
20
-107.62638889201972
30
0
0
LINE
5
298
100
AcDbEntity
8
0
100
AcDbLine
10
66.303388613049549
20
-107.62638889201972
30
0
11
66.30338861304952
21
-97.748611116711373
31
0
0
SPLINE
5
299
100
AcDbEntity
8
0
100
AcDbSpline
70
0
71
3
72
8
73
4
74
0
42
0.000000001
43
0.0000000001
44
0.0000000001
40
-1
40
-1
40
-1
40
-1
40
0
40
0
40
0
40
0
10
66.30338861304952
20
-97.748611116711373
30
0
10
66.30338861304952
20
-97.058213981467318
30
0
10
65.743905106244938
20
-96.498730474662736
30
0
10
65.053507971000911
20
-96.498730474662736
30
0
0
LINE
5
300
100
AcDbEntity
8
0
100
AcDbLine
10
81.473005308475877
20
-115.03472222350098
30
0
11
81.473005308475877
21
-89.987500007540561
31
0
0
SPLINE
5
301
100
AcDbEntity
8
0
100
AcDbSpline
70
0
71
3
72
8
73
4
74
0
42
0.000000001
43
0.0000000001
44
0.0000000001
40
-1
40
-1
40
-1
40
-1
40
0
40
0
40
0
40
0
10
81.473005308475877
20
-89.987500007540561
30
0
10
81.473005308475877
20
-89.297102872296477
30
0
10
80.913349546897081
20
-88.737619365491895
30
0
10
80.222952411652983
20
-88.737619365491895
30
0
0
SPLINE
5
302
100
AcDbEntity
8
0
100
AcDbSpline
70
0
71
3
72
8
73
4
74
0
42
0.000000001
43
0.0000000001
44
0.0000000001
40
-6
40
-6
40
-6
40
-6
40
-5
40
-5
40
-5
40
-5
10
80.222952411652983
20
-88.737619365491895
30
0
10
79.5325552764089
20
-88.737619365491895
30
0
10
78.972899514830104
20
-89.297102872296477
30
0
10
78.972899514830104
20
-89.987500007540561
30
0
0
LINE
5
303
100
AcDbEntity
8
0
100
AcDbLine
10
78.972899514830104
20
-89.987500007540561
30
0
11
78.972899514830104
21
-115.03472222350096
31
0
0
SPLINE
5
304
100
AcDbEntity
8
0
100
AcDbSpline
70
0
71
3
72
10
73
6
74
0
42
0.000000001
43
0.0000000001
44
0.0000000001
40
-4
40
-4
40
-4
40
-4
40
-3
40
-3
40
-2
40
-2
40
-2
40
-2
10
78.97289951483009
20
-115.03472222350098
30
0
10
78.97289951483009
20
-115.72511935874503
30
0
10
79.532555276408914
20
-116.28477512032387
30
0
10
80.913349546897081
20
-116.28477512032387
30
0
10
81.473005308475877
20
-115.72511935874503
30
0
10
81.473005308475877
20
-115.03472222350098
30
0
0
LINE
5
305
100
AcDbEntity
8
0
100
AcDbLine
10
23.939738450029253
20
-100.21805556053843
30
0
11
23.93973845002925
21
-105.1569444481926
31
0
0
SPLINE
5
306
100
AcDbEntity
8
0
100
AcDbSpline
70
0
71
3
72
10
73
6
74
0
42
0.000000001
43
0.0000000001
44
0.0000000001
40
-4
40
-4
40
-4
40
-4
40
-3
40
-3
40
-2
40
-2
40
-2
40
-2
10
23.939738450029289
20
-105.15694444819262
30
0
10
23.939738450029289
20
-105.84734158343667
30
0
10
24.499221956833956
20
-106.40699734501553
30
0
10
25.880016227322127
20
-106.40699734501553
30
0
10
26.439499734126617
20
-105.84734158343667
30
0
10
26.439499734126617
20
-105.15694444819262
30
0
0
LINE
5
307
100
AcDbEntity
8
0
100
AcDbLine
10
26.439499734126617
20
-105.15694444819262
30
0
11
26.439499734126635
21
-100.21805556053846
31
0
0
SPLINE
5
308
100
AcDbEntity
8
0
100
AcDbSpline
70
0
71
3
72
8
73
4
74
0
42
0.000000001
43
0.0000000001
44
0.0000000001
40
-1
40
-1
40
-1
40
-1
40
0
40
0
40
0
40
0
10
26.439499734126635
20
-100.21805556053846
30
0
10
26.439499734126635
20
-99.527658425294376
30
0
10
25.880016227322109
20
-98.968174918489808
30
0
10
25.189619092078033
20
-98.968174918489808
30
0
0
SPLINE
5
309
100
AcDbEntity
8
0
100
AcDbSpline
70
0
71
3
72
8
73
4
74
0
42
0.000000001
43
0.0000000001
44
0.0000000001
40
-6
40
-6
40
-6
40
-6
40
-5
40
-5
40
-5
40
-5
10
25.189619092078015
20
-98.968174918489808
30
0
10
24.499221956833956
20
-98.968174918489808
30
0
10
23.939738450029289
20
-99.527658425294376
30
0
10
23.939738450029289
20
-100.21805556053846
30
0
0
LINE
5
310
100
AcDbEntity
8
0
100
AcDbLine
10
116.39800529974465
20
-107.62638889201973
30
0
11
116.39800529974465
21
-97.748611116711402
31
0
0
SPLINE
5
311
100
AcDbEntity
8
0
100
AcDbSpline
70
0
71
3
72
8
73
4
74
0
42
0.000000001
43
0.0000000001
44
0.0000000001
40
-1
40
-1
40
-1
40
-1
40
0
40
0
40
0
40
0
10
116.39800529974465
20
-97.748611116711402
30
0
10
116.39800529974465
20
-97.058213981467318
30
0
10
115.8383495381658
20
-96.498730474662736
30
0
10
115.14795240292175
20
-96.498730474662736
30
0
0
SPLINE
5
312
100
AcDbEntity
8
0
100
AcDbSpline
70
0
71
3
72
8
73
4
74
0
42
0.000000001
43
0.0000000001
44
0.0000000001
40
-6
40
-6
40
-6
40
-6
40
-5
40
-5
40
-5
40
-5
10
115.14795240292175
20
-96.498730474662736
30
0
10
114.45755526767768
20
-96.498730474662736
30
0
10
113.89789950609884
20
-97.058213981467318
30
0
10
113.89789950609884
20
-97.748611116711402
30
0
0
LINE
5
313
100
AcDbEntity
8
0
100
AcDbLine
10
113.89789950609884
20
-97.748611116711402
30
0
11
113.89789950609884
21
-107.62638889201972
31
0
0
SPLINE
5
314
100
AcDbEntity
8
0
100
AcDbSpline
70
0
71
3
72
10
73
6
74
0
42
0.000000001
43
0.0000000001
44
0.0000000001
40
-4
40
-4
40
-4
40
-4
40
-3
40
-3
40
-2
40
-2
40
-2
40
-2
10
113.89789950609884
20
-107.62638889201973
30
0
10
113.89789950609884
20
-108.31678602726382
30
0
10
114.45755526767766
20
-108.87644178884264
30
0
10
115.8383495381658
20
-108.87644178884264
30
0
10
116.39800529974465
20
-108.31678602726382
30
0
10
116.39800529974465
20
-107.62638889201973
30
0
0
SPLINE
5
315
100
AcDbEntity
8
0
100
AcDbSpline
70
0
71
3
72
8
73
4
74
0
42
0.000000001
43
0.0000000001
44
0.0000000001
40
-1
40
-1
40
-1
40
-1
40
0
40
0
40
0
40
0
10
46.547833062432886
20
-92.809722229057201
30
0
10
46.547833062432886
20
-92.119325093813131
30
0
10
45.98834955562829
20
-91.559841587008577
30
0
10
45.297952420384213
20
-91.559841587008577
30
0
0
SPLINE
5
316
100
AcDbEntity
8
0
100
AcDbSpline
70
0
71
3
72
8
73
4
74
0
42
0.000000001
43
0.0000000001
44
0.0000000001
40
-6
40
-6
40
-6
40
-6
40
-5
40
-5
40
-5
40
-5
10
45.297952420384235
20
-91.559841587008577
30
0
10
44.607555285140172
20
-91.559841587008577
30
0
10
44.048071778335611
20
-92.119325093813131
30
0
10
44.048071778335611
20
-92.809722229057201
30
0
0
LINE
5
317
100
AcDbEntity
8
0
100
AcDbLine
10
44.048071778335611
20
-92.809722229057201
30
0
11
44.048071778335597
21
-112.56527777967389
31
0
0
SPLINE
5
318
100
AcDbEntity
8
0
100
AcDbSpline
70
0
71
3
72
10
73
6
74
0
42
0.000000001
43
0.0000000001
44
0.0000000001
40
-4
40
-4
40
-4
40
-4
40
-3
40
-3
40
-2
40
-2
40
-2
40
-2
10
44.048071778335611
20
-112.56527777967386
30
0
10
44.048071778335611
20
-113.25567491491795
30
0
10
44.607555285140172
20
-113.81533067649677
30
0
10
45.98834955562829
20
-113.81533067649677
30
0
10
46.547833062432872
20
-113.25567491491795
30
0
10
46.547833062432872
20
-112.56527777967386
30
0
0
LINE
5
319
100
AcDbEntity
8
0
100
AcDbLine
10
46.547833062432872
20
-112.56527777967386
30
0
11
46.547833062432886
21
-92.809722229057201
31
0
0
SPLINE
5
320
100
AcDbEntity
8
0
100
AcDbSpline
70
0
71
3
72
10
73
6
74
0
42
0.000000001
43
0.0000000001
44
0.0000000001
40
-4
40
-4
40
-4
40
-4
40
-3
40
-3
40
-2
40
-2
40
-2
40
-2
10
68.742516216606404
20
-105.15694444819263
30
0
10
68.742516216606404
20
-105.84734158343672
30
0
10
69.301999723410987
20
-106.40699734501554
30
0
10
70.682793993899111
20
-106.40699734501554
30
0
10
71.242449755477978
20
-105.84734158343672
30
0
10
71.242449755477978
20
-105.15694444819263
30
0
0
LINE
5
321
100
AcDbEntity
8
0
100
AcDbLine
10
71.242449755477978
20
-105.15694444819263
30
0
11
71.242449755477978
21
-100.21805556053847
31
0
0
SPLINE
5
322
100
AcDbEntity
8
0
100
AcDbSpline
70
0
71
3
72
8
73
4
74
0
42
0.000000001
43
0.0000000001
44
0.0000000001
40
-1
40
-1
40
-1
40
-1
40
0
40
0
40
0
40
0
10
71.242449755477978
20
-100.21805556053847
30
0
10
71.242449755477978
20
-99.527658425294391
30
0
10
70.682793993899111
20
-98.968174918489808
30
0
10
69.992396858655056
20
-98.968174918489808
30
0
0
SPLINE
5
323
100
AcDbEntity
8
0
100
AcDbSpline
70
0
71
3
72
8
73
4
74
0
42
0.000000001
43
0.0000000001
44
0.0000000001
40
-6
40
-6
40
-6
40
-6
40
-5
40
-5
40
-5
40
-5
10
69.992396858655056
20
-98.968174918489808
30
0
10
69.301999723411001
20
-98.968174918489808
30
0
10
68.742516216606404
20
-99.527658425294391
30
0
10
68.742516216606404
20
-100.21805556053847
30
0
0
LINE
5
324
100
AcDbEntity
8
0
100
AcDbLine
10
68.742516216606404
20
-100.21805556053847
30
0
11
68.742516216606404
21
-105.15694444819263
31
0
0
SPLINE
5
325
100
AcDbEntity
8
0
100
AcDbSpline
70
0
71
3
72
8
73
4
74
0
42
0.000000001
43
0.0000000001
44
0.0000000001
40
-1
40
-1
40
-1
40
-1
40
0
40
0
40
0
40
0
10
31.378388621780804
20
-97.748611116711373
30
0
10
31.378388621780804
20
-97.058213981467304
30
0
10
30.818905114976225
20
-96.498730474662722
30
0
10
30.128507979732113
20
-96.498730474662722
30
0
0
SPLINE
5
326
100
AcDbEntity
8
0
100
AcDbSpline
70
0
71
3
72
8
73
4
74
0
42
0.000000001
43
0.0000000001
44
0.0000000001
40
-6
40
-6
40
-6
40
-6
40
-5
40
-5
40
-5
40
-5
10
30.128507979732131
20
-96.498730474662722
30
0
10
29.438110844488126
20
-96.498730474662722
30
0
10
28.878627337683529
20
-97.058213981467304
30
0
10
28.878627337683529
20
-97.748611116711373
30
0
0
LINE
5
327
100
AcDbEntity
8
0
100
AcDbLine
10
28.878627337683529
20
-97.748611116711373
30
0
11
28.878627337683508
21
-107.62638889201969
31
0
0
SPLINE
5
328
100
AcDbEntity
8
0
100
AcDbSpline
70
0
71
3
72
10
73
6
74
0
42
0.000000001
43
0.0000000001
44
0.0000000001
40
-4
40
-4
40
-4
40
-4
40
-3
40
-3
40
-2
40
-2
40
-2
40
-2
10
28.878627337683529
20
-107.62638889201969
30
0
10
28.878627337683529
20
-108.31678602726377
30
0
10
29.438110844488126
20
-108.87644178884261
30
0
10
30.818905114976225
20
-108.87644178884261
30
0
10
31.378388621780822
20
-108.31678602726377
30
0
10
31.378388621780822
20
-107.62638889201972
30
0
0
LINE
5
329
100
AcDbEntity
8
0
100
AcDbLine
10
31.378388621780822
20
-107.62638889201972
30
0
11
31.378388621780804
21
-97.748611116711373
31
0
0
LINE
5
330
100
AcDbEntity
8
0
100
AcDbLine
10
98.728455065446781
20
-97.748611116711402
30
0
11
98.728455065446781
21
-107.62638889201972
31
0
0
SPLINE
5
331
100
AcDbEntity
8
0
100
AcDbSpline
70
0
71
3
72
10
73
6
74
0
42
0.000000001
43
0.0000000001
44
0.0000000001
40
-4
40
-4
40
-4
40
-4
40
-3
40
-3
40
-2
40
-2
40
-2
40
-2
10
98.728455065446752
20
-107.62638889201972
30
0
10
98.728455065446752
20
-108.31678602726379
30
0
10
99.288110827025577
20
-108.87644178884261
30
0
10
100.66890509751371
20
-108.87644178884261
30
0
10
101.22856085909251
20
-108.31678602726379
30
0
10
101.22856085909251
20
-107.62638889201972
30
0
0
LINE
5
332
100
AcDbEntity
8
0
100
AcDbLine
10
101.22856085909251
20
-107.62638889201972
30
0
11
101.22856085909255
21
-97.748611116711373
31
0
0
SPLINE
5
333
100
AcDbEntity
8
0
100
AcDbSpline
70
0
71
3
72
8
73
4
74
0
42
0.000000001
43
0.0000000001
44
0.0000000001
40
-1
40
-1
40
-1
40
-1
40
0
40
0
40
0
40
0
10
101.22856085909255
20
-97.748611116711402
30
0
10
101.22856085909255
20
-97.058213981467318
30
0
10
100.66890509751374
20
-96.498730474662736
30
0
10
99.978507962269674
20
-96.498730474662736
30
0
0
SPLINE
5
334
100
AcDbEntity
8
0
100
AcDbSpline
70
0
71
3
72
8
73
4
74
0
42
0.000000001
43
0.0000000001
44
0.0000000001
40
-6
40
-6
40
-6
40
-6
40
-5
40
-5
40
-5
40
-5
10
99.978507962269646
20
-96.498730474662736
30
0
10
99.288110827025591
20
-96.498730474662736
30
0
10
98.728455065446781
20
-97.058213981467318
30
0
10
98.728455065446781
20
-97.748611116711402
30
0
0
LINE
5
335
100
AcDbEntity
8
0
100
AcDbLine
10
121.33689418739884
20
-115.03472222350098
30
0
11
121.33689418739884
21
-89.987500007540561
31
0
0
SPLINE
5
336
100
AcDbEntity
8
0
100
AcDbSpline
70
0
71
3
72
8
73
4
74
0
42
0.000000001
43
0.0000000001
44
0.0000000001
40
-1
40
-1
40
-1
40
-1
40
0
40
0
40
0
40
0
10
121.3368941873988
20
-89.987500007540561
30
0
10
121.3368941873988
20
-89.297102872296506
30
0
10
120.77723842581996
20
-88.737619365491923
30
0
10
120.08684129057592
20
-88.737619365491923
30
0
0
SPLINE
5
337
100
AcDbEntity
8
0
100
AcDbSpline
70
0
71
3
72
8
73
4
74
0
42
0.000000001
43
0.0000000001
44
0.0000000001
40
-6
40
-6
40
-6
40
-6
40
-5
40
-5
40
-5
40
-5
10
120.08684129057592
20
-88.737619365491923
30
0
10
119.39644415533184
20
-88.737619365491923
30
0
10
118.836788393753
20
-89.297102872296506
30
0
10
118.836788393753
20
-89.987500007540561
30
0
0
LINE
5
338
100
AcDbEntity
8
0
100
AcDbLine
10
118.836788393753
20
-89.987500007540561
30
0
11
118.836788393753
21
-115.03472222350098
31
0
0
SPLINE
5
339
100
AcDbEntity
8
0
100
AcDbSpline
70
0
71
3
72
10
73
6
74
0
42
0.000000001
43
0.0000000001
44
0.0000000001
40
-4
40
-4
40
-4
40
-4
40
-3
40
-3
40
-2
40
-2
40
-2
40
-2
10
118.836788393753
20
-115.03472222350098
30
0
10
118.836788393753
20
-115.72511935874505
30
0
10
119.39644415533184
20
-116.28477512032389
30
0
10
120.77723842581996
20
-116.28477512032389
30
0
10
121.3368941873988
20
-115.72511935874505
30
0
10
121.3368941873988
20
-115.03472222350098
30
0
0
SPLINE
5
340
100
AcDbEntity
8
0
100
AcDbSpline
70
0
71
3
72
10
73
6
74
0
42
0.000000001
43
0.0000000001
44
0.0000000001
40
-4
40
-4
40
-4
40
-4
40
-3
40
-3
40
-2
40
-2
40
-2
40
-2
10
74.034010627175917
20
-112.56527777967389
30
0
10
74.034010627175917
20
-113.25567491491796
30
0
10
74.593666388754741
20
-113.81533067649679
30
0
10
75.974460659242894
20
-113.81533067649679
30
0
10
76.534116420821732
20
-113.25567491491796
30
0
10
76.534116420821732
20
-112.56527777967389
30
0
0
LINE
5
341
100
AcDbEntity
8
0
100
AcDbLine
10
76.534116420821732
20
-112.56527777967389
30
0
11
76.534116420821732
21
-92.809722229057229
31
0
0
SPLINE
5
342
100
AcDbEntity
8
0
100
AcDbSpline
70
0
71
3
72
8
73
4
74
0
42
0.000000001
43
0.0000000001
44
0.0000000001
40
-1
40
-1
40
-1
40
-1
40
0
40
0
40
0
40
0
10
76.534116420821746
20
-92.809722229057201
30
0
10
76.534116420821746
20
-92.119325093813146
30
0
10
75.974460659242908
20
-91.559841587008577
30
0
10
75.284063523998825
20
-91.559841587008577
30
0
0
SPLINE
5
343
100
AcDbEntity
8
0
100
AcDbSpline
70
0
71
3
72
8
73
4
74
0
42
0.000000001
43
0.0000000001
44
0.0000000001
40
-6
40
-6
40
-6
40
-6
40
-5
40
-5
40
-5
40
-5
10
75.284063523998825
20
-91.559841587008577
30
0
10
74.593666388754755
20
-91.559841587008577
30
0
10
74.034010627175931
20
-92.119325093813146
30
0
10
74.034010627175931
20
-92.809722229057201
30
0
0
LINE
5
344
100
AcDbEntity
8
0
100
AcDbLine
10
74.034010627175931
20
-92.809722229057201
30
0
11
74.034010627175917
21
-112.56527777967389
31
0
0
LINE
5
345
100
AcDbEntity
8
0
100
AcDbLine
10
96.289671971438395
20
-112.56527777967389
30
0
11
96.289671971438395
21
-92.809722229057229
31
0
0
SPLINE
5
346
100
AcDbEntity
8
0
100
AcDbSpline
70
0
71
3
72
8
73
4
74
0
42
0.000000001
43
0.0000000001
44
0.0000000001
40
-1
40
-1
40
-1
40
-1
40
0
40
0
40
0
40
0
10
96.289671971438395
20
-92.809722229057229
30
0
10
96.289671971438395
20
-92.119325093813146
30
0
10
95.730016209859542
20
-91.559841587008577
30
0
10
95.039619074615501
20
-91.559841587008577
30
0
0
SPLINE
5
347
100
AcDbEntity
8
0
100
AcDbSpline
70
0
71
3
72
8
73
4
74
0
42
0.000000001
43
0.0000000001
44
0.0000000001
40
-6
40
-6
40
-6
40
-6
40
-5
40
-5
40
-5
40
-5
10
95.039619074615473
20
-91.559841587008577
30
0
10
94.349221939371404
20
-91.559841587008577
30
0
10
93.78956617779258
20
-92.119325093813146
30
0
10
93.78956617779258
20
-92.809722229057229
30
0
0
LINE
5
348
100
AcDbEntity
8
0
100
AcDbLine
10
93.78956617779258
20
-92.809722229057229
30
0
11
93.78956617779258
21
-112.56527777967389
31
0
0
SPLINE
5
349
100
AcDbEntity
8
0
100
AcDbSpline
70
0
71
3
72
10
73
6
74
0
42
0.000000001
43
0.0000000001
44
0.0000000001
40
-4
40
-4
40
-4
40
-4
40
-3
40
-3
40
-2
40
-2
40
-2
40
-2
10
93.78956617779258
20
-112.56527777967389
30
0
10
93.78956617779258
20
-113.25567491491796
30
0
10
94.349221939371418
20
-113.81533067649679
30
0
10
95.730016209859542
20
-113.81533067649679
30
0
10
96.289671971438366
20
-113.25567491491796
30
0
10
96.289671971438366
20
-112.56527777967389
30
0
0
LWPOLYLINE
5
350
100
AcDbEntity
8
0
100
AcDbPolyline
90
4
70
1
43
0.0
10
4.999991847305667
20
-119.99999999999993
10
134.99999184730567
20
-119.99999999999994
10
134.99999184730567
20
-84.999999999999943
10
4.9999918473056582
20
-84.999999999999915
0
CIRCLE
5
351
100
AcDbEntity
8
0
100
AcDbCircle
10
263.26431932377312
20
-28.499995274454868
30
0
40
1.3500000000000068
210
0
220
0
230
1
0
CIRCLE
5
352
100
AcDbEntity
8
0
100
AcDbCircle
10
223.95343017599254
20
-32.499995265104857
30
0
40
1.3499999999999934
210
0
220
0
230
1
0
CIRCLE
5
353
100
AcDbEntity
8
0
100
AcDbCircle
10
279.18143017578126
20
-142.19529772948613
30
0
40
1.3499999999999979
210
0
220
0
230
1
0
CIRCLE
5
354
100
AcDbEntity
8
0
100
AcDbCircle
10
167.95342909241737
20
-193.58329772949219
30
0
40
1.3500000000000068
210
0
220
0
230
1
0
CIRCLE
5
355
100
AcDbEntity
8
0
100
AcDbCircle
10
157.41882053761577
20
-128.82977689981487
30
0
40
1.3500000000000068
210
0
220
0
230
1
0
CIRCLE
5
356
100
AcDbEntity
8
0
100
AcDbCircle
10
174.41882054131008
20
-99.384913120428791
30
0
40
1.3500000000000068
210
0
220
0
230
1
0
CIRCLE
5
357
100
AcDbEntity
8
0
100
AcDbCircle
10
213.95343017586828
20
-130.39329772948545
30
0
40
1.3500000000000045
210
0
220
0
230
1
0
CIRCLE
5
358
100
AcDbEntity
8
0
100
AcDbCircle
10
271.95343017586947
20
-130.39329772949216
30
0
40
1.3500000000000023
210
0
220
0
230
1
0
CIRCLE
5
359
100
AcDbEntity
8
0
100
AcDbCircle
10
241.95343017592643
20
-32.499995265921093
30
0
40
1.3500000000000056
210
0
220
0
230
1
0
CIRCLE
5
360
100
AcDbEntity
8
0
100
AcDbCircle
10
328.26431932756634
20
-141.08329776281647
30
0
40
1.3499999999999979
210
0
220
0
230
1
0
CIRCLE
5
361
100
AcDbEntity
8
0
100
AcDbCircle
10
202.64254104345727
20
-28.499995253644386
30
0
40
1.3500000000000068
210
0
220
0
230
1
0
CIRCLE
5
362
100
AcDbEntity
8
0
100
AcDbCircle
10
223.95343017590503
20
-14.49999526592471
30
0
40
1.3500000000000001
210
0
220
0
230
1
0
CIRCLE
5
363
100
AcDbEntity
8
0
100
AcDbCircle
10
238.03343017578129
20
-181.56529772949384
30
0
40
1.3500000000000001
210
0
220
0
230
1
0
CIRCLE
5
364
100
AcDbEntity
8
0
100
AcDbCircle
10
186.72543017578121
20
-195.28129772948563
30
0
40
1.3499999999999979
210
0
220
0
230
1
0
CIRCLE
5
365
100
AcDbEntity
8
0
100
AcDbCircle
10
137.64254103802324
20
-141.08329774230154
30
0
40
1.3499999999999979
210
0
220
0
230
1
0
CIRCLE
5
366
100
AcDbEntity
8
0
100
AcDbCircle
10
186.72543017580293
20
-142.19529772949218
30
0
40
1.3499999999999979
210
0
220
0
230
1
0
CIRCLE
5
367
100
AcDbEntity
8
0
100
AcDbCircle
10
213.95343017586947
20
-81.393297729491223
30
0
40
1.3500000000000045
210
0
220
0
230
1
0
CIRCLE
5
368
100
AcDbEntity
8
0
100
AcDbCircle
10
271.95343017586907
20
-81.393297729500745
30
0
40
1.3500000000000068
210
0
220
0
230
1
0
CIRCLE
5
369
100
AcDbEntity
8
0
100
AcDbCircle
10
241.95343017600152
20
-14.499995267697408
30
0
40
1.3500000000000012
210
0
220
0
230
1
0
CIRCLE
5
370
100
AcDbEntity
8
0
100
AcDbCircle
10
297.95342164701714
20
-193.58329772949116
30
0
40
1.3500000000000068
210
0
220
0
230
1
0
LWPOLYLINE
5
371
100
AcDbEntity
8
0
100
AcDbPolyline
90
6
70
1
43
0.0
10
132.44638862050863
20
-138.08329774518936
10
197.44638861999479
20
-25.499995250993585
42
-0.5773502927169567
10
268.46047319707395
20
-25.499997786917383
10
333.46047175358092
20
-138.08329776854603
42
-0.57735026882188412
10
297.95343017578125
20
-199.58329772949219
10
167.95343017578739
20
-199.58329796520366
42
-0.57735027022150143
0
CIRCLE
5
372
100
AcDbEntity
8
0
100
AcDbCircle
10
368.10152540278926
20
-176.08330245503734
30
0
40
1.3500000000000068
210
0
220
0
230
1
0
CIRCLE
5
373
100
AcDbEntity
8
0
100
AcDbCircle
10
473.94702418894673
20
-75.753520829677342
30
0
40
1.3500000000000068
210
0
220
0
230
1
0
CIRCLE
5
374
100
AcDbEntity
8
0
100
AcDbCircle
10
466.91241455078125
20
-24.800000000000018
30
0
40
1.3499999999999979
210
0
220
0
230
1
0
CIRCLE
5
375
100
AcDbEntity
8
0
100
AcDbCircle
10
384.41241455082979
20
-158.58330249196365
30
0
40
1.3499999999999934
210
0
220
0
230
1
0
CIRCLE
5
376
100
AcDbEntity
8
0
100
AcDbCircle
10
384.41241455082979
20
-186.58330249196365
30
0
40
1.3499999999999934
210
0
220
0
230
1
0
CIRCLE
5
377
100
AcDbEntity
8
0
100
AcDbCircle
10
329.91241455078131
20
-41.800000000000004
30
0
40
1.3499999999999979
210
0
220
0
230
1
0
CIRCLE
5
378
100
AcDbEntity
8
0
100
AcDbCircle
10
493.7233036885392
20
-63.499999987190691
30
0
40
1.3499999999999979
210
0
220
0
230
1
0
CIRCLE
5
379
100
AcDbEntity
8
0
100
AcDbCircle
10
303.10152539899616
20
-63.499999966675688
30
0
40
1.3499999999999979
210
0
220
0
230
1
0
CIRCLE
5
380
100
AcDbEntity
8
0
100
AcDbCircle
10
428.72330368310514
20
-176.0833024758478
30
0
40
1.3500000000000068
210
0
220
0
230
1
0
CIRCLE
5
381
100
AcDbEntity
8
0
100
AcDbCircle
10
456.94702418525247
20
-105.19838460906342
30
0
40
1.3500000000000068
210
0
220
0
230
1
0
CIRCLE
5
382
100
AcDbEntity
8
0
100
AcDbCircle
10
466.91241455078125
20
-41.800000000000026
30
0
40
1.3499999999999979
210
0
220
0
230
1
0
CIRCLE
5
383
100
AcDbEntity
8
0
100
AcDbCircle
10
412.41241455082979
20
-158.58330249196365
30
0
40
1.3499999999999934
210
0
220
0
230
1
0
CIRCLE
5
384
100
AcDbEntity
8
0
100
AcDbCircle
10
412.41241455082979
20
-186.58330249196365
30
0
40
1.3499999999999934
210
0
220
0
230
1
0
CIRCLE
5
385
100
AcDbEntity
8
0
100
AcDbCircle
10
329.91241455078131
20
-24.799999999999986
30
0
40
1.3499999999999979
210
0
220
0
230
1
0
CIRCLE
5
386
100
AcDbEntity
8
0
100
AcDbCircle
10
463.41241563414513
20
-11.000000000000018
30
0
40
1.3500000000000068
210
0
220
0
230
1
0
CIRCLE
5
387
100
AcDbEntity
8
0
100
AcDbCircle
10
333.41242307954536
20
-11.000000000001018
30
0
40
1.3500000000000068
210
0
220
0
230
1
0
LWPOLYLINE
5
388
100
AcDbEntity
8
0
100
AcDbPolyline
90
4
70
1
43
0.0
10
338.41241455078125
20
-39.29999999999999
10
458.41241455078125
20
-39.300000000000026
42
0.99999999999999989
10
458.41241455078125
20
-27.300000000000033
10
338.41241455078125
20
-27.299999999999997
42
0.99999999999999989
0
CIRCLE
5
389
100
AcDbEntity
8
0
100
AcDbCircle
10
398.41241455082979
20
-172.58330249196365
30
0
40
15
210
0
220
0
230
1
0
LWPOLYLINE
5
390
100
AcDbEntity
8
0
100
AcDbPolyline
90
6
70
1
43
0.0
10
297.90537297298158
20
-66.499999960946127
10
362.90537152948843
20
-179.0832999425748
42
0.57735029271695737
10
433.91945610484413
20
-179.08330247750354
10
498.91945610605387
20
-66.49999998430286
42
0.57735027022150209
10
463.41241455077517
20
-4.999999999102652
10
333.41241455078125
20
-4.9999999999999822
42
0.57735026882188545
0
ENDSEC
0
SECTION
2
OBJECTS
0
DICTIONARY
5
C
100
AcDbDictionary
3
ACAD_GROUP
350
D
3
ACAD_MLINESTYLE
350
17
0
DICTIONARY
5
D
100
AcDbDictionary
0
DICTIONARY
5
1A
330
C
100
AcDbDictionary
0
DICTIONARY
5
17
100
AcDbDictionary
0
ENDSEC
0
EOF
