  0
SECTION
  2
HEADER
  9
$ACADVER
  1
AC1032
  9
$ACADMAINTVER
 90
      327
  9
$DWGCODEPAGE
  3
ANSI_1252
  9
$REQUIREDVERSIONS
160
                 0
  9
$INSBASE
 10
0.0
 20
0.0
 30
0.0
  9
$EXTMIN
 10
1.000000000000000E+20
 20
1.000000000000000E+20
 30
1.000000000000000E+20
  9
$EXTMAX
 10
-1.000000000000000E+20
 20
-1.000000000000000E+20
 30
-1.000000000000000E+20
  9
$LIMMIN
 10
0.0
 20
0.0
  9
$LIMMAX
 10
12.0
 20
9.0
  9
$ORTHOMODE
 70
     0
  9
$REGENMODE
 70
     1
  9
$FILLMODE
 70
     1
  9
$QTEXTMODE
 70
     0
  9
$MIRRTEXT
 70
     0
  9
$LTSCALE
 40
1.0
  9
$ATTMODE
 70
     1
  9
$TEXTSIZE
 40
0.2
  9
$TRACEWID
 40
0.05
  9
$TEXTSTYLE
  7
Standard
  9
$CLAYER
  8
0
  9
$CELTYPE
  6
ByLayer
  9
$CECOLOR
 62
   256
  9
$CELTSCALE
 40
1.0
  9
$DISPSILH
 70
     0
  9
$DIMSCALE
 40
1.0
  9
$DIMASZ
 40
0.18
  9
$DIMEXO
 40
0.0625
  9
$DIMDLI
 40
0.38
  9
$DIMRND
 40
0.0
  9
$DIMDLE
 40
0.0
  9
$DIMEXE
 40
0.18
  9
$DIMTP
 40
0.0
  9
$DIMTM
 40
0.0
  9
$DIMTXT
 40
0.18
  9
$DIMCEN
 40
0.09
  9
$DIMTSZ
 40
0.0
  9
$DIMTOL
 70
     0
  9
$DIMLIM
 70
     0
  9
$DIMTIH
 70
     1
  9
$DIMTOH
 70
     1
  9
$DIMSE1
 70
     0
  9
$DIMSE2
 70
     0
  9
$DIMTAD
 70
     0
  9
$DIMZIN
 70
     0
  9
$DIMBLK
  1

  9
$DIMASO
 70
     1
  9
$DIMSHO
 70
     1
  9
$DIMPOST
  1

  9
$DIMAPOST
  1

  9
$DIMALT
 70
     0
  9
$DIMALTD
 70
     2
  9
$DIMALTF
 40
25.4
  9
$DIMLFAC
 40
1.0
  9
$DIMTOFL
 70
     0
  9
$DIMTVP
 40
0.0
  9
$DIMTIX
 70
     0
  9
$DIMSOXD
 70
     0
  9
$DIMSAH
 70
     0
  9
$DIMBLK1
  1

  9
$DIMBLK2
  1

  9
$DIMSTYLE
  2
Standard
  9
$DIMCLRD
 70
     0
  9
$DIMCLRE
 70
     0
  9
$DIMCLRT
 70
     0
  9
$DIMTFAC
 40
1.0
  9
$DIMGAP
 40
0.09
  9
$DIMJUST
 70
     0
  9
$DIMSD1
 70
     0
  9
$DIMSD2
 70
     0
  9
$DIMTOLJ
 70
     1
  9
$DIMTZIN
 70
     0
  9
$DIMALTZ
 70
     0
  9
$DIMALTTZ
 70
     0
  9
$DIMUPT
 70
     0
  9
$DIMDEC
 70
     4
  9
$DIMTDEC
 70
     4
  9
$DIMALTU
 70
     2
  9
$DIMALTTD
 70
     2
  9
$DIMTXSTY
  7
Standard
  9
$DIMAUNIT
 70
     0
  9
$DIMADEC
 70
     0
  9
$DIMALTRND
 40
0.0
  9
$DIMAZIN
 70
     0
  9
$DIMDSEP
 70
    46
  9
$DIMATFIT
 70
     3
  9
$DIMFRAC
 70
     0
  9
$DIMLDRBLK
  1

  9
$DIMLUNIT
 70
     2
  9
$DIMLWD
 70
    -2
  9
$DIMLWE
 70
    -2
  9
$DIMTMOVE
 70
     0
  9
$DIMFXL
 40
1.0
  9
$DIMFXLON
 70
     0
  9
$DIMJOGANG
 40
0.7853981633974483
  9
$DIMTFILL
 70
     0
  9
$DIMTFILLCLR
 70
     0
  9
$DIMARCSYM
 70
     0
  9
$DIMLTYPE
  6

  9
$DIMLTEX1
  6

  9
$DIMLTEX2
  6

  9
$DIMTXTDIRECTION
 70
     0
  9
$LUNITS
 70
     2
  9
$LUPREC
 70
     4
  9
$SKETCHINC
 40
0.1
  9
$FILLETRAD
 40
0.0
  9
$AUNITS
 70
     0
  9
$AUPREC
 70
     0
  9
$MENU
  1
.
  9
$ELEVATION
 40
0.0
  9
$PELEVATION
 40
0.0
  9
$THICKNESS
 40
0.0
  9
$LIMCHECK
 70
     0
  9
$CHAMFERA
 40
0.0
  9
$CHAMFERB
 40
0.0
  9
$CHAMFERC
 40
0.0
  9
$CHAMFERD
 40
0.0
  9
$SKPOLY
 70
     0
  9
$TDCREATE
 40
2460552.646712963
  9
$TDUCREATE
 40
2460552.563379629
  9
$TDUPDATE
 40
2460552.646712963
  9
$TDUUPDATE
 40
2460552.563379629
  9
$TDINDWG
 40
0.0000000000
  9
$TDUSRTIMER
 40
0.0000000000
  9
$USRTIMER
 70
     1
  9
$ANGBASE
 50
0.0
  9
$ANGDIR
 70
     0
  9
$PDMODE
 70
     0
  9
$PDSIZE
 40
0.0
  9
$PLINEWID
 40
0.0
  9
$SPLFRAME
 70
     0
  9
$SPLINETYPE
 70
     6
  9
$SPLINESEGS
 70
     8
  9
$HANDSEED
  5
9C
  9
$SURFTAB1
 70
     6
  9
$SURFTAB2
 70
     6
  9
$SURFTYPE
 70
     6
  9
$SURFU
 70
     6
  9
$SURFV
 70
     6
  9
$UCSBASE
  2

  9
$UCSNAME
  2

  9
$UCSORG
 10
0.0
 20
0.0
 30
0.0
  9
$UCSXDIR
 10
1.0
 20
0.0
 30
0.0
  9
$UCSYDIR
 10
0.0
 20
1.0
 30
0.0
  9
$UCSORTHOREF
  2

  9
$UCSORTHOVIEW
 70
     0
  9
$UCSORGTOP
 10
0.0
 20
0.0
 30
0.0
  9
$UCSORGBOTTOM
 10
0.0
 20
0.0
 30
0.0
  9
$UCSORGLEFT
 10
0.0
 20
0.0
 30
0.0
  9
$UCSORGRIGHT
 10
0.0
 20
0.0
 30
0.0
  9
$UCSORGFRONT
 10
0.0
 20
0.0
 30
0.0
  9
$UCSORGBACK
 10
0.0
 20
0.0
 30
0.0
  9
$PUCSBASE
  2

  9
$PUCSNAME
  2

  9
$PUCSORG
 10
0.0
 20
0.0
 30
0.0
  9
$PUCSXDIR
 10
1.0
 20
0.0
 30
0.0
  9
$PUCSYDIR
 10
0.0
 20
1.0
 30
0.0
  9
$PUCSORTHOREF
  2

  9
$PUCSORTHOVIEW
 70
     0
  9
$PUCSORGTOP
 10
0.0
 20
0.0
 30
0.0
  9
$PUCSORGBOTTOM
 10
0.0
 20
0.0
 30
0.0
  9
$PUCSORGLEFT
 10
0.0
 20
0.0
 30
0.0
  9
$PUCSORGRIGHT
 10
0.0
 20
0.0
 30
0.0
  9
$PUCSORGFRONT
 10
0.0
 20
0.0
 30
0.0
  9
$PUCSORGBACK
 10
0.0
 20
0.0
 30
0.0
  9
$USERI1
 70
     0
  9
$USERI2
 70
     0
  9
$USERI3
 70
     0
  9
$USERI4
 70
     0
  9
$USERI5
 70
     0
  9
$USERR1
 40
0.0
  9
$USERR2
 40
0.0
  9
$USERR3
 40
0.0
  9
$USERR4
 40
0.0
  9
$USERR5
 40
0.0
  9
$WORLDVIEW
 70
     1
  9
$SHADEDGE
 70
     3
  9
$SHADEDIF
 70
    70
  9
$TILEMODE
 70
     1
  9
$MAXACTVP
 70
    64
  9
$PINSBASE
 10
0.0
 20
0.0
 30
0.0
  9
$PLIMCHECK
 70
     0
  9
$PEXTMIN
 10
1.000000000000000E+20
 20
1.000000000000000E+20
 30
1.000000000000000E+20
  9
$PEXTMAX
 10
-1.000000000000000E+20
 20
-1.000000000000000E+20
 30
-1.000000000000000E+20
  9
$PLIMMIN
 10
0.0
 20
0.0
  9
$PLIMMAX
 10
12.0
 20
9.0
  9
$UNITMODE
 70
     0
  9
$VISRETAIN
 70
     1
  9
$PLINEGEN
 70
     0
  9
$PSLTSCALE
 70
     1
  9
$TREEDEPTH
 70
  3020
  9
$CMLSTYLE
  2
Standard
  9
$CMLJUST
 70
     0
  9
$CMLSCALE
 40
1.0
  9
$PROXYGRAPHICS
 70
     1
  9
$MEASUREMENT
 70
     0
  9
$CELWEIGHT
370
    -1
  9
$ENDCAPS
280
     0
  9
$JOINSTYLE
280
     0
  9
$LWDISPLAY
290
     1
  9
$INSUNITS
 70
     4
  9
$HYPERLINKBASE
  1

  9
$STYLESHEET
  1

  9
$XEDIT
290
     1
  9
$CEPSNTYPE
380
     0
  9
$PSTYLEMODE
290
     1
  9
$FINGERPRINTGUID
  2
{9C183F91-1145-424C-82FC-A2EFFB60FA2B}
  9
$VERSIONGUID
  2
{2186FA4C-A22B-C24B-888A-113C2CF71FB4}
  9
$EXTNAMES
290
     1
  9
$PSVPSCALE
 40
0.0
  9
$OLESTARTUP
290
     0
  9
$SORTENTS
280
   127
  9
$INDEXCTL
280
     0
  9
$HIDETEXT
280
     1
  9
$XCLIPFRAME
280
     2
  9
$HALOGAP
280
     0
  9
$OBSCOLOR
 70
   257
  9
$OBSLTYPE
280
     0
  9
$INTERSECTIONDISPLAY
280
     0
  9
$INTERSECTIONCOLOR
 70
   257
  9
$DIMASSOC
280
     2
  9
$PROJECTNAME
  1

  9
$CAMERADISPLAY
290
     0
  9
$LENSLENGTH
 40
50.0
  9
$CAMERAHEIGHT
 40
0.0
  9
$STEPSPERSEC
 40
2.0
  9
$STEPSIZE
 40
6.0
  9
$3DDWFPREC
 40
2.0
  9
$PSOLWIDTH
 40
0.25
  9
$PSOLHEIGHT
 40
4.0
  9
$LOFTANG1
 40
1.570796326794896
  9
$LOFTANG2
 40
1.570796326794896
  9
$LOFTMAG1
 40
0.0
  9
$LOFTMAG2
 40
0.0
  9
$LOFTPARAM
 70
     7
  9
$LOFTNORMALS
280
     1
  9
$LATITUDE
 40
37.795
  9
$LONGITUDE
 40
-122.394
  9
$NORTHDIRECTION
 40
0.0
  9
$TIMEZONE
 70
 -8000
  9
$LIGHTGLYPHDISPLAY
280
     1
  9
$TILEMODELIGHTSYNCH
280
     1
  9
$CMATERIAL
347
11
  9
$SOLIDHIST
280
     0
  9
$SHOWHIST
280
     1
  9
$DWFFRAME
280
     2
  9
$DGNFRAME
280
     0
  9
$REALWORLDSCALE
290
     1
  9
$INTERFERECOLOR
 62
     1
  9
$INTERFEREOBJVS
345
33
  9
$INTERFEREVPVS
346
30
  9
$CSHADOW
280
     0
  9
$SHADOWPLANELOCATION
 40
0.0
  0
ENDSEC
  0
SECTION
  2
CLASSES
  0
CLASS
  1
ACDBDICTIONARYWDFLT
  2
AcDbDictionaryWithDefault
  3
ObjectDBX Classes
 90
        0
 91
        1
280
     0
281
     0
  0
CLASS
  1
MATERIAL
  2
AcDbMaterial
  3
ObjectDBX Classes
 90
     1153
 91
        3
280
     0
281
     0
  0
CLASS
  1
VISUALSTYLE
  2
AcDbVisualStyle
  3
ObjectDBX Classes
 90
     4095
 91
       24
280
     0
281
     0
  0
CLASS
  1
SCALE
  2
AcDbScale
  3
ObjectDBX Classes
 90
     1153
 91
       17
280
     0
281
     0
  0
CLASS
  1
TABLESTYLE
  2
AcDbTableStyle
  3
ObjectDBX Classes
 90
     4095
 91
        1
280
     0
281
     0
  0
CLASS
  1
MLEADERSTYLE
  2
AcDbMLeaderStyle
  3
ACDB_MLEADERSTYLE_CLASS
 90
     4095
 91
        1
280
     0
281
     0
  0
CLASS
  1
ACDBSECTIONVIEWSTYLE
  2
AcDbSectionViewStyle
  3
ObjectDBX Classes
 90
     1025
 91
        1
280
     0
281
     0
  0
CLASS
  1
ACDBDETAILVIEWSTYLE
  2
AcDbDetailViewStyle
  3
ObjectDBX Classes
 90
     1025
 91
        1
280
     0
281
     0
  0
CLASS
  1
DICTIONARYVAR
  2
AcDbDictionaryVar
  3
ObjectDBX Classes
 90
        0
 91
        5
280
     0
281
     0
  0
CLASS
  1
CELLSTYLEMAP
  2
AcDbCellStyleMap
  3
ObjectDBX Classes
 90
     1152
 91
        1
280
     0
281
     0
  0
ENDSEC
  0
SECTION
  2
TABLES
  0
TABLE
  2
VPORT
  5
8
330
0
100
AcDbSymbolTable
 70
     1
  0
VPORT
  5
57
330
8
100
AcDbSymbolTableRecord
100
AcDbViewportTableRecord
  2
*Active
 70
     0
 10
0.0
 20
0.0
 11
1.0
 21
1.0
 12
0.0
 22
0.0
 13
0.0
 23
0.0
 14
1.0
 24
1.0
 15
0.0
 25
0.0
 16
0.0
 26
0.0
 36
1.0
 17
59.99999998500689
 27
-59.99999998500015
 37
0.0
 40
122.3999999694003
 41
1.000000000000112
 42
50.0
 43
0.0
 44
0.0
 50
0.0
 51
0.0
 71
     0
 72
   100
 73
     1
 74
     1
 75
     0
 76
     0
 77
     0
 78
     0
281
     0
 65
     1
110
0.0
120
0.0
130
0.0
111
1.0
121
0.0
131
0.0
112
0.0
122
1.0
132
0.0
 79
     0
146
0.0
 60
     3
 61
     5
292
     1
282
     1
141
0.0
142
0.0
 63
   250
421
  3355443
  0
ENDTAB
  0
TABLE
  2
LTYPE
  5
5
330
0
100
AcDbSymbolTable
 70
     1
  0
LTYPE
  5
5B
330
5
100
AcDbSymbolTableRecord
100
AcDbLinetypeTableRecord
  2
ByBlock
 70
     0
  3

 72
    65
 73
     0
 40
0.0
  0
LTYPE
  5
5C
330
5
100
AcDbSymbolTableRecord
100
AcDbLinetypeTableRecord
  2
ByLayer
 70
     0
  3

 72
    65
 73
     0
 40
0.0
  0
LTYPE
  5
5D
330
5
100
AcDbSymbolTableRecord
100
AcDbLinetypeTableRecord
  2
Continuous
 70
     0
  3
Solid line
 72
    65
 73
     0
 40
0.0
  0
ENDTAB
  0
TABLE
  2
LAYER
  5
2
330
0
100
AcDbSymbolTable
 70
     4
  0
LAYER
  5
54
330
2
100
AcDbSymbolTableRecord
100
AcDbLayerTableRecord
  2
0
 70
     0
 62
     7
  6
Continuous
370
    -3
390
F
347
21
348
0
  0
LAYER
  5
78
330
2
100
AcDbSymbolTableRecord
100
AcDbLayerTableRecord
  2
Layer 2
 70
     1
 62
     7
  6
Continuous
370
     0
390
F
347
21
348
0
  0
LAYER
  5
8F
330
2
100
AcDbSymbolTableRecord
100
AcDbLayerTableRecord
  2
Layer 2 copy
 70
     0
 62
     7
  6
Continuous
370
     0
390
F
347
21
348
0
  0
LAYER
  5
92
330
2
100
AcDbSymbolTableRecord
100
AcDbLayerTableRecord
  2
Guides
 70
     4
 62
     7
  6
Continuous
370
     0
390
F
347
21
348
0
  0
ENDTAB
  0
TABLE
  2
STYLE
  5
3
330
0
100
AcDbSymbolTable
 70
     2
  0
STYLE
  5
55
330
3
100
AcDbSymbolTableRecord
100
AcDbTextStyleTableRecord
  2
Standard
 70
     0
 40
0.0
 41
1.0
 50
0.0
 71
     0
 42
0.2
  3
txt
  4

  0
STYLE
  5
5A
330
3
100
AcDbSymbolTableRecord
100
AcDbTextStyleTableRecord
  2
Annotative
 70
     0
 40
0.0
 41
1.0
 50
0.0
 71
     0
 42
0.2
  3
txt
  4

1001
AcadAnnotative
1000
AnnotativeData
1002
{
1070
     1
1070
     1
1002
}
  0
ENDTAB
  0
TABLE
  2
VIEW
  5
6
330
0
100
AcDbSymbolTable
 70
     0
  0
ENDTAB
  0
TABLE
  2
UCS
  5
7
330
0
100
AcDbSymbolTable
 70
     0
  0
ENDTAB
  0
TABLE
  2
APPID
  5
9
330
0
100
AcDbSymbolTable
 70
     2
  0
APPID
  5
56
330
9
100
AcDbSymbolTableRecord
100
AcDbRegAppTableRecord
  2
ACAD
 70
     0
  0
APPID
  5
5E
330
9
100
AcDbSymbolTableRecord
100
AcDbRegAppTableRecord
  2
AcadAnnotative
 70
     0
  0
ENDTAB
  0
TABLE
  2
DIMSTYLE
  5
A
330
0
100
AcDbSymbolTable
 70
     2
100
AcDbDimStyleTable
 71
     0
  0
DIMSTYLE
105
58
330
A
100
AcDbSymbolTableRecord
100
AcDbDimStyleTableRecord
  2
Standard
 70
     0
340
55
  0
DIMSTYLE
105
59
330
A
100
AcDbSymbolTableRecord
100
AcDbDimStyleTableRecord
  2
Annotative
 70
     0
340
55
1001
AcadAnnotative
1000
AnnotativeData
1002
{
1070
     1
1070
     1
1002
}
  0
ENDTAB
  0
TABLE
  2
BLOCK_RECORD
  5
1
330
0
100
AcDbSymbolTable
 70
     3
  0
BLOCK_RECORD
  5
70
330
1
100
AcDbSymbolTableRecord
100
AcDbBlockTableRecord
  2
*Model_Space
340
73
 70
     0
280
     1
281
     0
  0
BLOCK_RECORD
  5
6C
330
1
100
AcDbSymbolTableRecord
100
AcDbBlockTableRecord
  2
*Paper_Space
340
6F
 70
     0
280
     1
281
     0
  0
BLOCK_RECORD
  5
74
330
1
100
AcDbSymbolTableRecord
100
AcDbBlockTableRecord
  2
*Paper_Space0
340
77
 70
     0
280
     1
281
     0
  0
BLOCK_RECORD
  5
7B
330
1
100
AcDbSymbolTableRecord
100
AcDbBlockTableRecord
  2
Block_0
340
0
102
{BLKREFS
331
7C
102
}
 70
     0
280
     1
281
     0
  0
BLOCK_RECORD
  5
85
330
1
100
AcDbSymbolTableRecord
100
AcDbBlockTableRecord
  2
Block_1
340
0
102
{BLKREFS
331
86
102
}
 70
     0
280
     1
281
     0
  0
ENDTAB
  0
ENDSEC
  0
SECTION
  2
BLOCKS
  0
BLOCK
  5
71
330
70
100
AcDbEntity
  8
0
100
AcDbBlockBegin
  2
*Model_Space
 70
     0
 10
0.0
 20
0.0
 30
0.0
  3
*Model_Space
  1

  0
ENDBLK
  5
72
330
70
100
AcDbEntity
  8
0
100
AcDbBlockEnd
  0
BLOCK
  5
6D
330
6C
100
AcDbEntity
 67
     1
  8
0
100
AcDbBlockBegin
  2
*Paper_Space
 70
     0
 10
0.0
 20
0.0
 30
0.0
  3
*Paper_Space
  1

  0
ENDBLK
  5
6E
330
6C
100
AcDbEntity
 67
     1
  8
0
100
AcDbBlockEnd
  0
BLOCK
  5
75
330
74
100
AcDbEntity
 67
     1
  8
0
100
AcDbBlockBegin
  2
*Paper_Space0
 70
     0
 10
0.0
 20
0.0
 30
0.0
  3
*Paper_Space0
  1

  0
ENDBLK
  5
76
330
74
100
AcDbEntity
 67
     1
  8
0
100
AcDbBlockEnd
  0
BLOCK
  5
7D
330
7B
100
AcDbEntity
  8
0
100
AcDbBlockBegin
  2
Block_0
 70
     0
 10
0.0
 20
0.0
 30
0.0
  3
Block_0
  1

  0
LINE
  5
7F
330
7B
100
AcDbEntity
  8
Layer 2
 62
    18
420
        0
370
   211
100
AcDbLine
 10
14.99999999625012
 20
-59.99999998500015
 30
0.0
 11
104.9999999737499
 21
-59.99999998500015
 31
0.0
  0
LINE
  5
80
330
7B
100
AcDbEntity
  8
Layer 2
 62
    18
420
        0
370
   211
100
AcDbLine
 10
59.99999998500015
 20
-14.99999999625012
 30
0.0
 11
59.99999998500015
 21
-104.9999999737499
 31
0.0
  0
LINE
  5
81
330
7B
100
AcDbEntity
  8
Layer 2
 62
    18
420
        0
370
   211
100
AcDbLine
 10
21.0288568241066
 20
-82.49999997879188
 30
0.0
 11
98.97114314589339
 21
-37.49999999120876
 31
0.0
  0
LINE
  5
82
330
7B
100
AcDbEntity
  8
Layer 2
 62
    18
420
        0
370
   211
100
AcDbLine
 10
37.49999999120876
 20
-21.0288568241066
 30
0.0
 11
82.49999997879251
 21
-98.97114314589339
 31
0.0
  0
LINE
  5
83
330
7B
100
AcDbEntity
  8
Layer 2
 62
    18
420
        0
370
   211
100
AcDbLine
 10
37.49999998945885
 20
-98.97114314488336
 30
0.0
 11
82.49999998054178
 21
-21.02885682511728
 31
0.0
  0
LINE
  5
84
330
7B
100
AcDbEntity
  8
Layer 2
 62
    18
420
        0
370
   211
100
AcDbLine
 10
21.02885682511728
 20
-37.49999998945853
 30
0.0
 11
98.97114314488463
 21
-82.49999998054114
 31
0.0
  0
ENDBLK
  5
7E
330
7B
100
AcDbEntity
  8
0
100
AcDbBlockEnd
  0
BLOCK
  5
87
330
85
100
AcDbEntity
  8
0
100
AcDbBlockBegin
  2
Block_1
 70
     0
 10
0.0
 20
0.0
 30
0.0
  3
Block_1
  1

  0
LINE
  5
89
330
85
100
AcDbEntity
  8
Layer 2
 62
    18
420
        0
370
   211
100
AcDbLine
 10
31.02222520351396
 20
-67.76457133591769
 30
0.0
 11
88.9777747664854
 21
-52.23542863408262
 31
0.0
  0
LINE
  5
8A
330
85
100
AcDbEntity
  8
Layer 2
 62
    18
420
        0
370
   211
100
AcDbLine
 10
52.23542863408229
 20
-31.02222520351427
 30
0.0
 11
67.76457133591769
 21
-88.9777747664854
 31
0.0
  0
LINE
  5
8B
330
85
100
AcDbEntity
  8
Layer 2
 62
    18
420
        0
370
   211
100
AcDbLine
 10
38.78679655423097
 20
-81.21320341481739
 30
0.0
 11
81.21320341576966
 21
-38.78679655518357
 31
0.0
  0
LINE
  5
8C
330
85
100
AcDbEntity
  8
Layer 2
 62
    18
420
        0
370
   211
100
AcDbLine
 10
38.78679655518325
 20
-38.78679655423065
 30
0.0
 11
81.21320341481739
 21
-81.21320341576966
 31
0.0
  0
LINE
  5
8D
330
85
100
AcDbEntity
  8
Layer 2
 62
    18
420
        0
370
   211
100
AcDbLine
 10
52.23542863278157
 20
-88.97777476613759
 30
0.0
 11
67.76457133721907
 21
-31.02222520386336
 31
0.0
  0
LINE
  5
8E
330
85
100
AcDbEntity
  8
Layer 2
 62
    18
420
        0
370
   211
100
AcDbLine
 10
31.02222520386304
 20
-52.2354286327806
 30
0.0
 11
88.97777476613759
 21
-67.76457133721779
 31
0.0
  0
ENDBLK
  5
88
330
85
100
AcDbEntity
  8
0
100
AcDbBlockEnd
  0
ENDSEC
  0
SECTION
  2
ENTITIES
  0
CIRCLE
  5
79
330
70
100
AcDbEntity
  8
Layer 2
100
AcDbCircle
 10
59.99999998500031
 20
-59.99999998500015
 30
0.0
 40
14.9999999962502
  0
HATCH
  5
7A
330
70
100
AcDbEntity
  8
Layer 2
 62
    18
420
        0
440
 33554687
100
AcDbHatch
 10
0.0
 20
0.0
 30
0.0
210
0.0
220
0.0
230
1.0
  2
SOLID
 70
     1
 71
     1
 91
        1
 92
        1
 93
        1
 72
     2
 10
59.99999998500031
 20
-59.99999998500015
 40
14.9999999962502
 50
0.0
 51
360.0
 73
     1
 97
        1
330
79
 75
     2
 76
     1
 98
        1
 10
0.0
 20
0.0
450
        0
451
        0
460
0.0
461
0.0
452
        0
462
0.0
453
        0
470

  0
INSERT
  5
7C
330
70
100
AcDbEntity
  8
Layer 2
100
AcDbBlockReference
  2
Block_0
 10
0.0
 20
0.0
 30
0.0
  0
INSERT
  5
86
330
70
100
AcDbEntity
  8
Layer 2
100
AcDbBlockReference
  2
Block_1
 10
0.0
 20
0.0
 30
0.0
  0
SPLINE
  5
90
330
70
100
AcDbEntity
  8
Layer 2 copy
100
AcDbSpline
210
0.0
220
0.0
230
1.0
 70
     9
 71
     3
 72
   395
 73
   391
 74
     0
 42
0.0000000001
 43
0.0000000001
 40
0.0
 40
0.0
 40
0.0
 40
0.0
 40
1.0
 40
1.0
 40
1.0
 40
2.0
 40
2.0
 40
2.0
 40
3.0
 40
3.0
 40
3.0
 40
4.0
 40
4.0
 40
4.0
 40
5.0
 40
5.0
 40
5.0
 40
6.0
 40
6.0
 40
6.0
 40
7.0
 40
7.0
 40
7.0
 40
8.0
 40
8.0
 40
8.0
 40
9.0
 40
9.0
 40
9.0
 40
10.0
 40
10.0
 40
10.0
 40
11.0
 40
11.0
 40
11.0
 40
12.0
 40
12.0
 40
12.0
 40
13.0
 40
13.0
 40
13.0
 40
14.0
 40
14.0
 40
14.0
 40
15.0
 40
15.0
 40
15.0
 40
16.0
 40
16.0
 40
16.0
 40
17.0
 40
17.0
 40
17.0
 40
18.0
 40
18.0
 40
18.0
 40
19.0
 40
19.0
 40
19.0
 40
20.0
 40
20.0
 40
20.0
 40
21.0
 40
21.0
 40
21.0
 40
22.0
 40
22.0
 40
22.0
 40
23.0
 40
23.0
 40
23.0
 40
24.0
 40
24.0
 40
24.0
 40
25.0
 40
25.0
 40
25.0
 40
26.0
 40
26.0
 40
26.0
 40
27.0
 40
27.0
 40
27.0
 40
28.0
 40
28.0
 40
28.0
 40
29.0
 40
29.0
 40
29.0
 40
30.0
 40
30.0
 40
30.0
 40
31.0
 40
31.0
 40
31.0
 40
32.0
 40
32.0
 40
32.0
 40
33.0
 40
33.0
 40
33.0
 40
34.0
 40
34.0
 40
34.0
 40
35.0
 40
35.0
 40
35.0
 40
36.0
 40
36.0
 40
36.0
 40
37.0
 40
37.0
 40
37.0
 40
38.0
 40
38.0
 40
38.0
 40
39.0
 40
39.0
 40
39.0
 40
40.0
 40
40.0
 40
40.0
 40
41.0
 40
41.0
 40
41.0
 40
42.0
 40
42.0
 40
42.0
 40
43.0
 40
43.0
 40
43.0
 40
44.0
 40
44.0
 40
44.0
 40
45.0
 40
45.0
 40
45.0
 40
46.0
 40
46.0
 40
46.0
 40
47.0
 40
47.0
 40
47.0
 40
48.0
 40
48.0
 40
48.0
 40
49.0
 40
49.0
 40
49.0
 40
50.0
 40
50.0
 40
50.0
 40
51.0
 40
51.0
 40
51.0
 40
52.0
 40
52.0
 40
52.0
 40
53.0
 40
53.0
 40
53.0
 40
54.0
 40
54.0
 40
54.0
 40
55.0
 40
55.0
 40
55.0
 40
56.0
 40
56.0
 40
56.0
 40
57.0
 40
57.0
 40
57.0
 40
58.0
 40
58.0
 40
58.0
 40
59.0
 40
59.0
 40
59.0
 40
60.0
 40
60.0
 40
60.0
 40
61.0
 40
61.0
 40
61.0
 40
62.0
 40
62.0
 40
62.0
 40
63.0
 40
63.0
 40
63.0
 40
64.0
 40
64.0
 40
64.0
 40
65.0
 40
65.0
 40
65.0
 40
66.0
 40
66.0
 40
66.0
 40
67.0
 40
67.0
 40
67.0
 40
68.0
 40
68.0
 40
68.0
 40
69.0
 40
69.0
 40
69.0
 40
70.0
 40
70.0
 40
70.0
 40
71.0
 40
71.0
 40
71.0
 40
72.0
 40
72.0
 40
72.0
 40
73.0
 40
73.0
 40
73.0
 40
74.0
 40
74.0
 40
74.0
 40
75.0
 40
75.0
 40
75.0
 40
76.0
 40
76.0
 40
76.0
 40
77.0
 40
77.0
 40
77.0
 40
78.0
 40
78.0
 40
78.0
 40
79.0
 40
79.0
 40
79.0
 40
80.0
 40
80.0
 40
80.0
 40
81.0
 40
81.0
 40
81.0
 40
82.0
 40
82.0
 40
82.0
 40
83.0
 40
83.0
 40
83.0
 40
84.0
 40
84.0
 40
84.0
 40
85.0
 40
85.0
 40
85.0
 40
86.0
 40
86.0
 40
86.0
 40
87.0
 40
87.0
 40
87.0
 40
88.0
 40
88.0
 40
88.0
 40
89.0
 40
89.0
 40
89.0
 40
90.0
 40
90.0
 40
90.0
 40
91.0
 40
91.0
 40
91.0
 40
92.0
 40
92.0
 40
92.0
 40
93.0
 40
93.0
 40
93.0
 40
94.0
 40
94.0
 40
94.0
 40
95.0
 40
95.0
 40
95.0
 40
96.0
 40
96.0
 40
96.0
 40
97.0
 40
97.0
 40
97.0
 40
98.0
 40
98.0
 40
98.0
 40
99.0
 40
99.0
 40
99.0
 40
100.0
 40
100.0
 40
100.0
 40
101.0
 40
101.0
 40
101.0
 40
102.0
 40
102.0
 40
102.0
 40
103.0
 40
103.0
 40
103.0
 40
104.0
 40
104.0
 40
104.0
 40
105.0
 40
105.0
 40
105.0
 40
106.0
 40
106.0
 40
106.0
 40
107.0
 40
107.0
 40
107.0
 40
108.0
 40
108.0
 40
108.0
 40
109.0
 40
109.0
 40
109.0
 40
110.0
 40
110.0
 40
110.0
 40
111.0
 40
111.0
 40
111.0
 40
112.0
 40
112.0
 40
112.0
 40
113.0
 40
113.0
 40
113.0
 40
114.0
 40
114.0
 40
114.0
 40
115.0
 40
115.0
 40
115.0
 40
116.0
 40
116.0
 40
116.0
 40
117.0
 40
117.0
 40
117.0
 40
118.0
 40
118.0
 40
118.0
 40
119.0
 40
119.0
 40
119.0
 40
120.0
 40
120.0
 40
120.0
 40
121.0
 40
121.0
 40
121.0
 40
122.0
 40
122.0
 40
122.0
 40
123.0
 40
123.0
 40
123.0
 40
124.0
 40
124.0
 40
124.0
 40
125.0
 40
125.0
 40
125.0
 40
126.0
 40
126.0
 40
126.0
 40
127.0
 40
127.0
 40
127.0
 40
128.0
 40
128.0
 40
128.0
 40
129.0
 40
129.0
 40
129.0
 40
130.0
 40
130.0
 40
130.0
 40
130.0
 10
104.9999647089931
 20
-58.23434378969489
 30
0.0
 10
104.9999647089931
 20
-58.23434378969489
 30
0.0
 10
74.8930814767737
 20
-58.23434378969489
 30
0.0
 10
74.8930814767737
 20
-58.23434378969489
 30
0.0
 10
74.85484091688743
 20
-57.90852388417738
 30
0.0
 10
74.80583443360974
 20
-57.58614907414513
 30
0.0
 10
74.74707402373944
 20
-57.26704710482387
 30
0.0
 10
74.74707402373944
 20
-57.26704710482387
 30
0.0
 10
89.28240557663775
 20
-53.37228053136179
 30
0.0
 10
89.28240557663775
 20
-53.37228053136179
 30
0.0
 10
89.91044648359878
 20
-53.20415987168161
 30
0.0
 10
90.28320581510282
 20
-52.55872123252004
 30
0.0
 10
90.11474064587408
 20
-51.93068032555899
 30
0.0
 10
89.9466199861939
 20
-51.30298392814648
 30
0.0
 10
89.30169811135513
 20
-50.92988008709392
 30
0.0
 10
88.67331269484557
 20
-51.0985175110969
 30
0.0
 10
88.67331269484557
 20
-51.0985175110969
 30
0.0
 10
74.140586495408
 20
-54.99257353361514
 30
0.0
 10
74.140586495408
 20
-54.99257353361514
 30
0.0
 10
74.0312262455981
 20
-54.68376378705606
 30
0.0
 10
73.91314559784117
 20
-54.37921734615997
 30
0.0
 10
73.78449281331386
 20
-54.08007539880637
 30
0.0
 10
73.78449281331386
 20
-54.08007539880637
 30
0.0
 10
99.85368107312687
 20
-39.02896998807262
 30
0.0
 10
99.85368107312687
 20
-39.02896998807262
 30
0.0
 10
100.6984184861101
 20
-38.54148897690977
 30
0.0
 10
100.9874619973226
 20
-37.46179605183247
 30
0.0
 10
100.4999809861597
 20
-36.61723089362347
 30
0.0
 10
100.0124999749969
 20
-35.773010244963
 30
0.0
 10
98.93280704991958
 20
-35.48293320510496
 30
0.0
 10
98.08841414648485
 20
-35.97110323536487
 30
0.0
 10
98.08841414648485
 20
-35.97110323536487
 30
0.0
 10
72.01810623063913
 20
-51.02279000596175
 30
0.0
 10
72.01810623063913
 20
-51.02279000596175
 30
0.0
 10
71.82246787077051
 20
-50.76130725863129
 30
0.0
 10
71.61556835503448
 20
-50.5089970780303
 30
0.0
 10
71.40365191899805
 20
-50.26110092601979
 30
0.0
 10
71.40365191899805
 20
-50.26110092601979
 30
0.0
 10
82.04563800032193
 20
-39.61911484469592
 30
0.0
 10
82.04563800032193
 20
-39.61911484469592
 30
0.0
 10
82.50521373805424
 20
-39.15936685218933
 30
0.0
 10
82.50521373805424
 20
-38.41419269872979
 30
0.0
 10
82.04563800032193
 20
-37.9544447062232
 30
0.0
 10
81.58606226258958
 20
-37.49486896849087
 30
0.0
 10
80.84054359958154
 20
-37.49486896849087
 30
0.0
 10
80.38096786184921
 20
-37.9544447062232
 30
0.0
 10
80.38096786184921
 20
-37.9544447062232
 30
0.0
 10
69.7390033123721
 20
-48.5964092557003
 30
0.0
 10
69.7390033123721
 20
-48.5964092557003
 30
0.0
 10
69.49108562851482
 20
-48.38447128781708
 30
0.0
 10
69.23875391606705
 20
-48.17759330392783
 30
0.0
 10
68.97724963688981
 20
-47.98193341221241
 30
0.0
 10
68.97724963688981
 20
-47.98193341221241
 30
0.0
 10
84.02897947118026
 20
-21.91166856006028
 30
0.0
 10
84.02897947118026
 20
-21.91166856006028
 30
0.0
 10
84.5164604823431
 20
-21.06727565662554
 30
0.0
 10
84.22741697113066
 20
-19.98741047677398
 30
0.0
 10
83.38267955814739
 20
-19.49992946561113
 30
0.0
 10
82.53828665471266
 20
-19.01210394489975
 30
0.0
 10
81.45824922008683
 20
-19.301664220435
 30
0.0
 10
80.9711127184725
 20
-20.14605712386974
 30
0.0
 10
80.9711127184725
 20
-20.14605712386974
 30
0.0
 10
65.91992118035162
 20
-46.21550376584413
 30
0.0
 10
65.91992118035162
 20
-46.21550376584413
 30
0.0
 10
65.62082229669158
 20
-46.08687251316361
 30
0.0
 10
65.31631891948906
 20
-45.96881339725345
 30
0.0
 10
65.00755223662356
 20
-45.85945314744356
 30
0.0
 10
65.00755223662356
 20
-45.85945314744356
 30
0.0
 10
68.90156519544823
 20
-31.32694226647382
 30
0.0
 10
68.90156519544823
 20
-31.32694226647382
 30
0.0
 10
69.06968585512841
 20
-30.69890135951278
 30
0.0
 10
68.69727103317291
 20
-30.05346272035122
 30
0.0
 10
68.06923012621187
 20
-29.88534206067103
 30
0.0
 10
67.44187823834787
 20
-29.71687689144231
 30
0.0
 10
66.79626734441204
 20
-30.08963622294634
 30
0.0
 10
66.62780217518333
 20
-30.71750487513313
 30
0.0
 10
66.62780217518333
 20
-30.71750487513313
 30
0.0
 10
62.73303560172125
 20
-45.25294408726533
 30
0.0
 10
62.73303560172125
 20
-45.25294408726533
 30
0.0
 10
62.41382597316608
 20
-45.19414061370146
 30
0.0
 10
62.09134350389991
 20
-45.14511259857701
 30
0.0
 10
61.76539440730171
 20
-45.10687203869073
 30
0.0
 10
61.76539440730171
 20
-45.10687203869073
 30
0.0
 10
61.76539440730171
 20
-14.99994574277779
 30
0.0
 10
61.76539440730171
 20
-14.99994574277779
 30
0.0
 10
61.76539440730171
 20
-14.02481146567782
 30
0.0
 10
60.97508950298539
 20
-13.23433430658725
 30
0.0
 10
59.99995522588543
 20
-13.23433430658725
 30
0.0
 10
59.02482094878546
 20
-13.23433430658725
 30
0.0
 10
58.23434378969489
 20
-14.02481146567782
 30
0.0
 10
58.23434378969489
 20
-14.99994574277779
 30
0.0
 10
58.23434378969489
 20
-14.99994574277779
 30
0.0
 10
58.23434378969489
 20
-45.10691510238429
 30
0.0
 10
58.23434378969489
 20
-45.10691510238429
 30
0.0
 10
57.90852388417738
 20
-45.14515566227056
 30
0.0
 10
57.58614907414513
 20
-45.19416214554825
 30
0.0
 10
57.26704710482387
 20
-45.25292255541854
 30
0.0
 10
57.26704710482387
 20
-45.25292255541854
 30
0.0
 10
53.37228053136179
 20
-30.71750487513313
 30
0.0
 10
53.37228053136179
 20
-30.71750487513313
 30
0.0
 10
53.20398761690734
 20
-30.08963622294634
 30
0.0
 10
52.5594102516171
 20
-29.71687689144231
 30
0.0
 10
51.93068032555899
 20
-29.88534206067103
 30
0.0
 10
51.30281167337222
 20
-30.05346272035122
 30
0.0
 10
50.93022459664244
 20
-30.69890135951278
 30
0.0
 10
51.0985175110969
 20
-31.32694226647382
 30
0.0
 10
51.0985175110969
 20
-31.32694226647382
 30
0.0
 10
54.99253046992158
 20
-45.85941008374999
 30
0.0
 10
54.99253046992158
 20
-45.85941008374999
 30
0.0
 10
54.68376378705606
 20
-45.96874880171311
 30
0.0
 10
54.37923887800675
 20
-46.08682944947005
 30
0.0
 10
54.08013999434672
 20
-46.21546070215056
 30
0.0
 10
54.08013999434672
 20
-46.21546070215056
 30
0.0
 10
39.02896998807262
 20
-20.14605712386974
 30
0.0
 10
39.02896998807262
 20
-20.14605712386974
 30
0.0
 10
38.54183348645829
 20
-19.30200872998353
 30
0.0
 10
37.46248507092952
 20
-19.01244845444828
 30
0.0
 10
36.61723089362347
 20
-19.49992946561113
 30
0.0
 10
35.77283799018874
 20
-19.98741047677398
 30
0.0
 10
35.48344996942776
 20
-21.06727565662554
 30
0.0
 10
35.97110323536487
 20
-21.91166856006028
 30
0.0
 10
35.97110323536487
 20
-21.91166856006028
 30
0.0
 10
51.02281153780854
 20
-47.98189034851885
 30
0.0
 10
51.02281153780854
 20
-47.98189034851885
 30
0.0
 10
50.76128572678451
 20
-48.17755024023426
 30
0.0
 10
50.50897554618352
 20
-48.38444975597029
 30
0.0
 10
50.26105786232623
 20
-48.59638772385351
 30
0.0
 10
50.26105786232623
 20
-48.59638772385351
 30
0.0
 10
39.61911484469592
 20
-37.9544447062232
 30
0.0
 10
39.61911484469592
 20
-37.9544447062232
 30
0.0
 10
39.15919459741507
 20
-37.49486896849087
 30
0.0
 10
38.41436495350405
 20
-37.49486896849087
 30
0.0
 10
37.9544447062232
 20
-37.9544447062232
 30
0.0
 10
37.49486896849087
 20
-38.41419269872979
 30
0.0
 10
37.49486896849087
 20
-39.15936685218933
 30
0.0
 10
37.9544447062232
 20
-39.61911484469592
 30
0.0
 10
37.9544447062232
 20
-39.61911484469592
 30
0.0
 10
48.59638772385351
 20
-50.26105786232623
 30
0.0
 10
48.59638772385351
 20
-50.26105786232623
 30
0.0
 10
48.38444975597029
 20
-50.50897554618352
 30
0.0
 10
48.17755024023426
 20
-50.76130725863129
 30
0.0
 10
47.98189034851885
 20
-51.02281153780854
 30
0.0
 10
47.98189034851885
 20
-51.02281153780854
 30
0.0
 10
21.91166856006028
 20
-35.97110323536487
 30
0.0
 10
21.91166856006028
 20
-35.97110323536487
 30
0.0
 10
21.06727565662554
 20
-35.48362222420202
 30
0.0
 10
19.98758273154824
 20
-35.77318249973726
 30
0.0
 10
19.49992946561113
 20
-36.61723089362347
 30
0.0
 10
19.01227619967401
 20
-37.46179605183247
 30
0.0
 10
19.301664220435
 20
-38.54148897690977
 30
0.0
 10
20.14605712386974
 20
-39.02896998807262
 30
0.0
 10
20.14605712386974
 20
-39.02896998807262
 30
0.0
 10
46.21548223399734
 20
-54.08013999434672
 30
0.0
 10
46.21548223399734
 20
-54.08013999434672
 30
0.0
 10
46.08685098131682
 20
-54.37923887800675
 30
0.0
 10
45.96879186540667
 20
-54.68376378705606
 30
0.0
 10
45.85943161559677
 20
-54.99253046992158
 30
0.0
 10
45.85943161559677
 20
-54.99253046992158
 30
0.0
 10
31.32694226647382
 20
-51.0985175110969
 30
0.0
 10
31.32694226647382
 20
-51.0985175110969
 30
0.0
 10
30.6978678308672
 20
-50.93022459664244
 30
0.0
 10
30.05363497512548
 20
-51.30315618292073
 30
0.0
 10
29.88534206067103
 20
-51.93068032555899
 30
0.0
 10
29.71704914621657
 20
-52.55872123252004
 30
0.0
 10
30.08963622294634
 20
-53.20415987168161
 30
0.0
 10
30.71750487513313
 20
-53.37228053136179
 30
0.0
 10
30.71750487513313
 20
-53.37228053136179
 30
0.0
 10
45.25294408726533
 20
-57.26706863667065
 30
0.0
 10
45.25294408726533
 20
-57.26706863667065
 30
0.0
 10
45.19418367739503
 20
-57.58617060599192
 30
0.0
 10
45.14517719411735
 20
-57.90852388417738
 30
0.0
 10
45.10693663423108
 20
-58.23434378969489
 30
0.0
 10
45.10693663423108
 20
-58.23434378969489
 30
0.0
 10
14.99994574277779
 20
-58.23434378969489
 30
0.0
 10
14.99994574277779
 20
-58.23434378969489
 30
0.0
 10
14.02481146567782
 20
-58.23434378969489
 30
0.0
 10
13.23433430658725
 20
-59.02482094878546
 30
0.0
 10
13.23433430658725
 20
-59.99995522588543
 30
0.0
 10
13.23433430658725
 20
-60.97508950298539
 30
0.0
 10
14.02481146567782
 20
-61.76539440730171
 30
0.0
 10
14.99994574277779
 20
-61.76539440730171
 30
0.0
 10
14.99994574277779
 20
-61.76539440730171
 30
0.0
 10
45.10689357053752
 20
-61.76539440730171
 30
0.0
 10
45.10689357053752
 20
-61.76539440730171
 30
0.0
 10
45.14513413042378
 20
-62.09132197205313
 30
0.0
 10
45.19416214554825
 20
-62.41380444131929
 30
0.0
 10
45.2529656191121
 20
-62.73301406987448
 30
0.0
 10
45.2529656191121
 20
-62.73301406987448
 30
0.0
 10
30.71750487513313
 20
-66.62780217518333
 30
0.0
 10
30.71750487513313
 20
-66.62780217518333
 30
0.0
 10
30.08963622294634
 20
-66.79592283486352
 30
0.0
 10
29.71704914621657
 20
-67.44153372879934
 30
0.0
 10
29.88534206067103
 20
-68.06923012621187
 30
0.0
 10
30.02624646601775
 20
-68.59529620680951
 30
0.0
 10
30.50184189775649
 20
-68.94187281262564
 30
0.0
 10
31.02153455170642
 20
-68.94187281262564
 30
0.0
 10
31.12230359464998
 20
-68.94187281262564
 30
0.0
 10
31.22479518533616
 20
-68.92878144978169
 30
0.0
 10
31.32694226647382
 20
-68.90156519544823
 30
0.0
 10
31.32694226647382
 20
-68.90156519544823
 30
0.0
 10
45.85947467929034
 20
-65.00755223662356
 30
0.0
 10
45.85947467929034
 20
-65.00755223662356
 30
0.0
 10
45.96883492910023
 20
-65.31631891948906
 30
0.0
 10
46.08689404501039
 20
-65.62082229669158
 30
0.0
 10
46.21552529769091
 20
-65.91992118035162
 30
0.0
 10
46.21552529769091
 20
-65.91992118035162
 30
0.0
 10
20.14605712386974
 20
-80.9711127184725
 30
0.0
 10
20.14605712386974
 20
-80.9711127184725
 30
0.0
 10
19.301664220435
 20
-81.45859372963535
 30
0.0
 10
19.01227619967401
 20
-82.53828665471266
 30
0.0
 10
19.49992946561113
 20
-83.38267955814739
 30
0.0
 10
19.82686902716134
 20
-83.94939776547099
 30
0.0
 10
20.42028672449562
 20
-84.26600204056546
 30
0.0
 10
21.03058538970763
 20
-84.26600204056546
 30
0.0
 10
21.32996418737584
 20
-84.26600204056546
 30
0.0
 10
21.63364935440062
 20
-84.1895209207929
 30
0.0
 10
21.91166856006028
 20
-84.02897947118026
 30
0.0
 10
21.91166856006028
 20
-84.02897947118026
 30
0.0
 10
47.9819549440592
 20
-68.97724963688981
 30
0.0
 10
47.9819549440592
 20
-68.97724963688981
 30
0.0
 10
48.17761483577461
 20
-69.23875391606705
 30
0.0
 10
48.38449281966386
 20
-69.49106409666804
 30
0.0
 10
48.59643078754707
 20
-69.73898178052532
 30
0.0
 10
48.59643078754707
 20
-69.73898178052532
 30
0.0
 10
37.9544447062232
 20
-80.38096786184921
 30
0.0
 10
37.9544447062232
 20
-80.38096786184921
 30
0.0
 10
37.49486896849087
 20
-80.84054359958154
 30
0.0
 10
37.49486896849087
 20
-81.58606226258958
 30
0.0
 10
37.9544447062232
 20
-82.04563800032193
 30
0.0
 10
38.18440482986363
 20
-82.2754258691881
 30
0.0
 10
38.48550617527446
 20
-82.39049205839544
 30
0.0
 10
38.78677977545956
 20
-82.39049205839544
 30
0.0
 10
39.08805337564466
 20
-82.39049205839544
 30
0.0
 10
39.38915472105549
 20
-82.2754258691881
 30
0.0
 10
39.61911484469592
 20
-82.04563800032193
 30
0.0
 10
39.61911484469592
 20
-82.04563800032193
 30
0.0
 10
50.26112245786658
 20
-71.40363038715126
 30
0.0
 10
50.26112245786658
 20
-71.40363038715126
 30
0.0
 10
50.50901860987709
 20
-71.6155468231877
 30
0.0
 10
50.76132879047808
 20
-71.82244633892373
 30
0.0
 10
51.02281153780854
 20
-72.01808469879235
 30
0.0
 10
51.02281153780854
 20
-72.01808469879235
 30
0.0
 10
35.97110323536487
 20
-98.08841414648485
 30
0.0
 10
35.97110323536487
 20
-98.08841414648485
 30
0.0
 10
35.48344996942776
 20
-98.93280704991958
 30
0.0
 10
35.77283799018874
 20
-100.0124999749969
 30
0.0
 10
36.61723089362347
 20
-100.4999809861597
 30
0.0
 10
36.89525009928313
 20
-100.6605224357723
 30
0.0
 10
37.19876301153365
 20
-100.7370035555449
 30
0.0
 10
37.49831406397612
 20
-100.7370035555449
 30
0.0
 10
38.10861272918812
 20
-100.7370035555449
 30
0.0
 10
38.70203042652241
 20
-100.4200547709019
 30
0.0
 10
39.02896998807262
 20
-99.85368107312687
 30
0.0
 10
39.02896998807262
 20
-99.85368107312687
 30
0.0
 10
54.08007539880637
 20
-73.78449281331386
 30
0.0
 10
54.08007539880637
 20
-73.78449281331386
 30
0.0
 10
54.37921734615997
 20
-73.91314559784117
 30
0.0
 10
54.68376378705606
 20
-74.03120471375132
 30
0.0
 10
54.99257353361514
 20
-74.14056496356121
 30
0.0
 10
54.99257353361514
 20
-74.14056496356121
 30
0.0
 10
51.0985175110969
 20
-88.67331269484557
 30
0.0
 10
51.0985175110969
 20
-88.67331269484557
 30
0.0
 10
50.93022459664244
 20
-89.30100909225808
 30
0.0
 10
51.30281167337222
 20
-89.9466199861939
 30
0.0
 10
51.93068032555899
 20
-90.11474064587408
 30
0.0
 10
52.03282740669665
 20
-90.14230140975611
 30
0.0
 10
52.13531899738284
 20
-90.15504826305152
 30
0.0
 10
52.2360880403264
 20
-90.15504826305152
 30
0.0
 10
52.75578069427633
 20
-90.15504826305152
 30
0.0
 10
53.23137612601508
 20
-89.80847165723538
 30
0.0
 10
53.37228053136179
 20
-89.28240557663775
 30
0.0
 10
53.37228053136179
 20
-89.28240557663775
 30
0.0
 10
57.26706863667065
 20
-74.74705249189267
 30
0.0
 10
57.26706863667065
 20
-74.74705249189267
 30
0.0
 10
57.58614907414513
 20
-74.80581290176296
 30
0.0
 10
57.90852388417738
 20
-74.85481938504064
 30
0.0
 10
58.23434378969489
 20
-74.89305994492692
 30
0.0
 10
58.23434378969489
 20
-74.89305994492692
 30
0.0
 10
58.23434378969489
 20
-104.9999647089931
 30
0.0
 10
58.23434378969489
 20
-104.9999647089931
 30
0.0
 10
58.23434378969489
 20
-105.9749267313188
 30
0.0
 10
59.02482094878546
 20
-106.7655761451836
 30
0.0
 10
59.99995522588543
 20
-106.7655761451836
 30
0.0
 10
60.97508950298539
 20
-106.7655761451836
 30
0.0
 10
61.76539440730171
 20
-105.9749267313188
 30
0.0
 10
61.76539440730171
 20
-104.9999647089931
 30
0.0
 10
61.76539440730171
 20
-104.9999647089931
 30
0.0
 10
61.76539440730171
 20
-74.89310300862047
 30
0.0
 10
61.76539440730171
 20
-74.89310300862047
 30
0.0
 10
62.09132197205313
 20
-74.8548624487342
 30
0.0
 10
62.41380444131929
 20
-74.80583443360974
 30
0.0
 10
62.73301406987448
 20
-74.74703096004589
 30
0.0
 10
62.73301406987448
 20
-74.74703096004589
 30
0.0
 10
66.62780217518333
 20
-89.28240557663775
 30
0.0
 10
66.62780217518333
 20
-89.28240557663775
 30
0.0
 10
66.76870658053005
 20
-89.80847165723538
 30
0.0
 10
67.24412975749451
 20
-90.15504826305152
 30
0.0
 10
67.76399466621872
 20
-90.15504826305152
 30
0.0
 10
67.86459145438802
 20
-90.15504826305152
 30
0.0
 10
67.96725529984846
 20
-90.14195690020757
 30
0.0
 10
68.06923012621187
 20
-90.11474064587408
 30
0.0
 10
68.69727103317291
 20
-89.9466199861939
 30
0.0
 10
69.06968585512841
 20
-89.30100909225808
 30
0.0
 10
68.90156519544823
 20
-88.67331269484557
 30
0.0
 10
68.90156519544823
 20
-88.67331269484557
 30
0.0
 10
65.00750917292998
 20
-74.14054343171443
 30
0.0
 10
65.00750917292998
 20
-74.14054343171443
 30
0.0
 10
65.31631891948906
 20
-74.03118318190454
 30
0.0
 10
65.62084382853837
 20
-73.9131025341476
 30
0.0
 10
65.91998577589198
 20
-73.78444974962029
 30
0.0
 10
65.91998577589198
 20
-73.78444974962029
 30
0.0
 10
80.9711127184725
 20
-99.85368107312687
 30
0.0
 10
80.9711127184725
 20
-99.85368107312687
 30
0.0
 10
81.29805228002272
 20
-100.4203992804504
 30
0.0
 10
81.89164223213126
 20
-100.7370035555449
 30
0.0
 10
82.501768642569
 20
-100.7370035555449
 30
0.0
 10
82.80114744023721
 20
-100.7370035555449
 30
0.0
 10
83.10466035248772
 20
-100.6605224357723
 30
0.0
 10
83.38267955814739
 20
-100.4999809861597
 30
0.0
 10
84.22741697113066
 20
-100.0124999749969
 30
0.0
 10
84.5164604823431
 20
-98.93280704991958
 30
0.0
 10
84.02897947118026
 20
-98.08841414648485
 30
0.0
 10
84.02897947118026
 20
-98.08841414648485
 30
0.0
 10
68.97724963688981
 20
-72.0180416350988
 30
0.0
 10
68.97724963688981
 20
-72.0180416350988
 30
0.0
 10
69.23873238422027
 20
-71.82242480707696
 30
0.0
 10
69.49104256482126
 20
-71.61552529134091
 30
0.0
 10
69.73893871683177
 20
-71.40360885530448
 30
0.0
 10
69.73893871683177
 20
-71.40360885530448
 30
0.0
 10
80.38096786184921
 20
-82.04563800032193
 30
0.0
 10
80.38096786184921
 20
-82.04563800032193
 30
0.0
 10
80.61075573071537
 20
-82.2754258691881
 30
0.0
 10
80.91220158567473
 20
-82.39049205839544
 30
0.0
 10
81.21330293108556
 20
-82.39049205839544
 30
0.0
 10
81.51440427649641
 20
-82.39049205839544
 30
0.0
 10
81.81585013145577
 20
-82.2754258691881
 30
0.0
 10
82.04563800032193
 20
-82.04563800032193
 30
0.0
 10
82.50521373805424
 20
-81.58606226258958
 30
0.0
 10
82.50521373805424
 20
-80.84054359958154
 30
0.0
 10
82.04563800032193
 20
-80.38096786184921
 30
0.0
 10
82.04563800032193
 20
-80.38096786184921
 30
0.0
 10
71.40360885530448
 20
-69.73893871683177
 30
0.0
 10
71.40360885530448
 20
-69.73893871683177
 30
0.0
 10
71.61552529134091
 20
-69.49104256482126
 30
0.0
 10
71.82242480707696
 20
-69.23875391606705
 30
0.0
 10
72.01806316694558
 20
-68.97727116873659
 30
0.0
 10
72.01806316694558
 20
-68.97727116873659
 30
0.0
 10
98.08841414648485
 20
-84.02897947118026
 30
0.0
 10
98.08841414648485
 20
-84.02897947118026
 30
0.0
 10
98.36643335214452
 20
-84.1895209207929
 30
0.0
 10
98.66994626439502
 20
-84.26600204056546
 30
0.0
 10
98.96932506206324
 20
-84.26600204056546
 30
0.0
 10
99.57945147250098
 20
-84.26600204056546
 30
0.0
 10
100.1730414246095
 20
-83.94905325592246
 30
0.0
 10
100.4999809861597
 20
-83.38267955814739
 30
0.0
 10
100.9874619973226
 20
-82.53828665471266
 30
0.0
 10
100.6984184861101
 20
-81.45859372963535
 30
0.0
 10
99.85368107312687
 20
-80.9711127184725
 30
0.0
 10
99.85368107312687
 20
-80.9711127184725
 30
0.0
 10
73.78447128146707
 20
-65.91998577589198
 30
0.0
 10
73.78447128146707
 20
-65.91998577589198
 30
0.0
 10
73.9131025341476
 20
-65.62086536038515
 30
0.0
 10
74.03120471375132
 20
-65.31631891948906
 30
0.0
 10
74.14056496356121
 20
-65.00750917292998
 30
0.0
 10
74.14056496356121
 20
-65.00750917292998
 30
0.0
 10
88.67331269484557
 20
-68.90156519544823
 30
0.0
 10
88.67331269484557
 20
-68.90156519544823
 30
0.0
 10
88.77528752120896
 20
-68.92912595933022
 30
0.0
 10
88.87760685712088
 20
-68.94187281262564
 30
0.0
 10
88.97854815483871
 20
-68.94187281262564
 30
0.0
 10
89.4984130635629
 20
-68.94187281262564
 30
0.0
 10
89.97383624052737
 20
-68.59529620680951
 30
0.0
 10
90.11474064587408
 20
-68.06923012621187
 30
0.0
 10
90.28320581510282
 20
-67.44153372879934
 30
0.0
 10
89.91044648359878
 20
-66.79592283486352
 30
0.0
 10
89.28240557663775
 20
-66.62780217518333
 30
0.0
 10
89.28240557663775
 20
-66.62780217518333
 30
0.0
 10
74.74705249189267
 20
-62.73303560172125
 30
0.0
 10
74.74705249189267
 20
-62.73303560172125
 30
0.0
 10
74.80585596545653
 20
-62.41382597316608
 30
0.0
 10
74.85488398058099
 20
-62.09134350389991
 30
0.0
 10
74.89312454046725
 20
-61.76539440730171
 30
0.0
 10
74.89312454046725
 20
-61.76539440730171
 30
0.0
 10
104.9999647089931
 20
-61.76539440730171
 30
0.0
 10
104.9999647089931
 20
-61.76539440730171
 30
0.0
 10
105.9749267313188
 20
-61.76539440730171
 30
0.0
 10
106.7655761451836
 20
-60.97508950298539
 30
0.0
 10
106.7655761451836
 20
-59.99995522588543
 30
0.0
 10
106.7655761451836
 20
-59.02482094878546
 30
0.0
 10
105.9749267313188
 20
-58.23434378969489
 30
0.0
 10
104.9999647089931
 20
-58.23434378969489
 30
0.0
  0
HATCH
  5
91
330
70
100
AcDbEntity
  8
Layer 2 copy
 62
    18
420
        0
440
 33554687
100
AcDbHatch
 10
0.0
 20
0.0
 30
0.0
210
0.0
220
0.0
230
1.0
  2
SOLID
 70
     1
 71
     1
 91
        1
 92
        1
 93
        1
 72
     4
 94
        3
 73
     0
 74
     0
 95
      395
 96
      391
 40
0.0
 40
0.0
 40
0.0
 40
0.0
 40
1.0
 40
1.0
 40
1.0
 40
2.0
 40
2.0
 40
2.0
 40
3.0
 40
3.0
 40
3.0
 40
4.0
 40
4.0
 40
4.0
 40
5.0
 40
5.0
 40
5.0
 40
6.0
 40
6.0
 40
6.0
 40
7.0
 40
7.0
 40
7.0
 40
8.0
 40
8.0
 40
8.0
 40
9.0
 40
9.0
 40
9.0
 40
10.0
 40
10.0
 40
10.0
 40
11.0
 40
11.0
 40
11.0
 40
12.0
 40
12.0
 40
12.0
 40
13.0
 40
13.0
 40
13.0
 40
14.0
 40
14.0
 40
14.0
 40
15.0
 40
15.0
 40
15.0
 40
16.0
 40
16.0
 40
16.0
 40
17.0
 40
17.0
 40
17.0
 40
18.0
 40
18.0
 40
18.0
 40
19.0
 40
19.0
 40
19.0
 40
20.0
 40
20.0
 40
20.0
 40
21.0
 40
21.0
 40
21.0
 40
22.0
 40
22.0
 40
22.0
 40
23.0
 40
23.0
 40
23.0
 40
24.0
 40
24.0
 40
24.0
 40
25.0
 40
25.0
 40
25.0
 40
26.0
 40
26.0
 40
26.0
 40
27.0
 40
27.0
 40
27.0
 40
28.0
 40
28.0
 40
28.0
 40
29.0
 40
29.0
 40
29.0
 40
30.0
 40
30.0
 40
30.0
 40
31.0
 40
31.0
 40
31.0
 40
32.0
 40
32.0
 40
32.0
 40
33.0
 40
33.0
 40
33.0
 40
34.0
 40
34.0
 40
34.0
 40
35.0
 40
35.0
 40
35.0
 40
36.0
 40
36.0
 40
36.0
 40
37.0
 40
37.0
 40
37.0
 40
38.0
 40
38.0
 40
38.0
 40
39.0
 40
39.0
 40
39.0
 40
40.0
 40
40.0
 40
40.0
 40
41.0
 40
41.0
 40
41.0
 40
42.0
 40
42.0
 40
42.0
 40
43.0
 40
43.0
 40
43.0
 40
44.0
 40
44.0
 40
44.0
 40
45.0
 40
45.0
 40
45.0
 40
46.0
 40
46.0
 40
46.0
 40
47.0
 40
47.0
 40
47.0
 40
48.0
 40
48.0
 40
48.0
 40
49.0
 40
49.0
 40
49.0
 40
50.0
 40
50.0
 40
50.0
 40
51.0
 40
51.0
 40
51.0
 40
52.0
 40
52.0
 40
52.0
 40
53.0
 40
53.0
 40
53.0
 40
54.0
 40
54.0
 40
54.0
 40
55.0
 40
55.0
 40
55.0
 40
56.0
 40
56.0
 40
56.0
 40
57.0
 40
57.0
 40
57.0
 40
58.0
 40
58.0
 40
58.0
 40
59.0
 40
59.0
 40
59.0
 40
60.0
 40
60.0
 40
60.0
 40
61.0
 40
61.0
 40
61.0
 40
62.0
 40
62.0
 40
62.0
 40
63.0
 40
63.0
 40
63.0
 40
64.0
 40
64.0
 40
64.0
 40
65.0
 40
65.0
 40
65.0
 40
66.0
 40
66.0
 40
66.0
 40
67.0
 40
67.0
 40
67.0
 40
68.0
 40
68.0
 40
68.0
 40
69.0
 40
69.0
 40
69.0
 40
70.0
 40
70.0
 40
70.0
 40
71.0
 40
71.0
 40
71.0
 40
72.0
 40
72.0
 40
72.0
 40
73.0
 40
73.0
 40
73.0
 40
74.0
 40
74.0
 40
74.0
 40
75.0
 40
75.0
 40
75.0
 40
76.0
 40
76.0
 40
76.0
 40
77.0
 40
77.0
 40
77.0
 40
78.0
 40
78.0
 40
78.0
 40
79.0
 40
79.0
 40
79.0
 40
80.0
 40
80.0
 40
80.0
 40
81.0
 40
81.0
 40
81.0
 40
82.0
 40
82.0
 40
82.0
 40
83.0
 40
83.0
 40
83.0
 40
84.0
 40
84.0
 40
84.0
 40
85.0
 40
85.0
 40
85.0
 40
86.0
 40
86.0
 40
86.0
 40
87.0
 40
87.0
 40
87.0
 40
88.0
 40
88.0
 40
88.0
 40
89.0
 40
89.0
 40
89.0
 40
90.0
 40
90.0
 40
90.0
 40
91.0
 40
91.0
 40
91.0
 40
92.0
 40
92.0
 40
92.0
 40
93.0
 40
93.0
 40
93.0
 40
94.0
 40
94.0
 40
94.0
 40
95.0
 40
95.0
 40
95.0
 40
96.0
 40
96.0
 40
96.0
 40
97.0
 40
97.0
 40
97.0
 40
98.0
 40
98.0
 40
98.0
 40
99.0
 40
99.0
 40
99.0
 40
100.0
 40
100.0
 40
100.0
 40
101.0
 40
101.0
 40
101.0
 40
102.0
 40
102.0
 40
102.0
 40
103.0
 40
103.0
 40
103.0
 40
104.0
 40
104.0
 40
104.0
 40
105.0
 40
105.0
 40
105.0
 40
106.0
 40
106.0
 40
106.0
 40
107.0
 40
107.0
 40
107.0
 40
108.0
 40
108.0
 40
108.0
 40
109.0
 40
109.0
 40
109.0
 40
110.0
 40
110.0
 40
110.0
 40
111.0
 40
111.0
 40
111.0
 40
112.0
 40
112.0
 40
112.0
 40
113.0
 40
113.0
 40
113.0
 40
114.0
 40
114.0
 40
114.0
 40
115.0
 40
115.0
 40
115.0
 40
116.0
 40
116.0
 40
116.0
 40
117.0
 40
117.0
 40
117.0
 40
118.0
 40
118.0
 40
118.0
 40
119.0
 40
119.0
 40
119.0
 40
120.0
 40
120.0
 40
120.0
 40
121.0
 40
121.0
 40
121.0
 40
122.0
 40
122.0
 40
122.0
 40
123.0
 40
123.0
 40
123.0
 40
124.0
 40
124.0
 40
124.0
 40
125.0
 40
125.0
 40
125.0
 40
126.0
 40
126.0
 40
126.0
 40
127.0
 40
127.0
 40
127.0
 40
128.0
 40
128.0
 40
128.0
 40
129.0
 40
129.0
 40
129.0
 40
130.0
 40
130.0
 40
130.0
 40
130.0
 10
104.9999647089931
 20
-58.23434378969489
 10
104.9999647089931
 20
-58.23434378969489
 10
74.8930814767737
 20
-58.23434378969489
 10
74.8930814767737
 20
-58.23434378969489
 10
74.85484091688743
 20
-57.90852388417738
 10
74.80583443360974
 20
-57.58614907414513
 10
74.74707402373944
 20
-57.26704710482387
 10
74.74707402373944
 20
-57.26704710482387
 10
89.28240557663775
 20
-53.37228053136179
 10
89.28240557663775
 20
-53.37228053136179
 10
89.91044648359878
 20
-53.20415987168161
 10
90.28320581510282
 20
-52.55872123252004
 10
90.11474064587408
 20
-51.93068032555899
 10
89.9466199861939
 20
-51.30298392814648
 10
89.30169811135513
 20
-50.92988008709392
 10
88.67331269484557
 20
-51.0985175110969
 10
88.67331269484557
 20
-51.0985175110969
 10
74.140586495408
 20
-54.99257353361514
 10
74.140586495408
 20
-54.99257353361514
 10
74.0312262455981
 20
-54.68376378705606
 10
73.91314559784117
 20
-54.37921734615997
 10
73.78449281331386
 20
-54.08007539880637
 10
73.78449281331386
 20
-54.08007539880637
 10
99.85368107312687
 20
-39.02896998807262
 10
99.85368107312687
 20
-39.02896998807262
 10
100.6984184861101
 20
-38.54148897690977
 10
100.9874619973226
 20
-37.46179605183247
 10
100.4999809861597
 20
-36.61723089362347
 10
100.0124999749969
 20
-35.773010244963
 10
98.93280704991958
 20
-35.48293320510496
 10
98.08841414648485
 20
-35.97110323536487
 10
98.08841414648485
 20
-35.97110323536487
 10
72.01810623063913
 20
-51.02279000596175
 10
72.01810623063913
 20
-51.02279000596175
 10
71.82246787077051
 20
-50.76130725863129
 10
71.61556835503448
 20
-50.5089970780303
 10
71.40365191899805
 20
-50.26110092601979
 10
71.40365191899805
 20
-50.26110092601979
 10
82.04563800032193
 20
-39.61911484469592
 10
82.04563800032193
 20
-39.61911484469592
 10
82.50521373805424
 20
-39.15936685218933
 10
82.50521373805424
 20
-38.41419269872979
 10
82.04563800032193
 20
-37.9544447062232
 10
81.58606226258958
 20
-37.49486896849087
 10
80.84054359958154
 20
-37.49486896849087
 10
80.38096786184921
 20
-37.9544447062232
 10
80.38096786184921
 20
-37.9544447062232
 10
69.7390033123721
 20
-48.5964092557003
 10
69.7390033123721
 20
-48.5964092557003
 10
69.49108562851482
 20
-48.38447128781708
 10
69.23875391606705
 20
-48.17759330392783
 10
68.97724963688981
 20
-47.98193341221241
 10
68.97724963688981
 20
-47.98193341221241
 10
84.02897947118026
 20
-21.91166856006028
 10
84.02897947118026
 20
-21.91166856006028
 10
84.5164604823431
 20
-21.06727565662554
 10
84.22741697113066
 20
-19.98741047677398
 10
83.38267955814739
 20
-19.49992946561113
 10
82.53828665471266
 20
-19.01210394489975
 10
81.45824922008683
 20
-19.301664220435
 10
80.9711127184725
 20
-20.14605712386974
 10
80.9711127184725
 20
-20.14605712386974
 10
65.91992118035162
 20
-46.21550376584413
 10
65.91992118035162
 20
-46.21550376584413
 10
65.62082229669158
 20
-46.08687251316361
 10
65.31631891948906
 20
-45.96881339725345
 10
65.00755223662356
 20
-45.85945314744356
 10
65.00755223662356
 20
-45.85945314744356
 10
68.90156519544823
 20
-31.32694226647382
 10
68.90156519544823
 20
-31.32694226647382
 10
69.06968585512841
 20
-30.69890135951278
 10
68.69727103317291
 20
-30.05346272035122
 10
68.06923012621187
 20
-29.88534206067103
 10
67.44187823834787
 20
-29.71687689144231
 10
66.79626734441204
 20
-30.08963622294634
 10
66.62780217518333
 20
-30.71750487513313
 10
66.62780217518333
 20
-30.71750487513313
 10
62.73303560172125
 20
-45.25294408726533
 10
62.73303560172125
 20
-45.25294408726533
 10
62.41382597316608
 20
-45.19414061370146
 10
62.09134350389991
 20
-45.14511259857701
 10
61.76539440730171
 20
-45.10687203869073
 10
61.76539440730171
 20
-45.10687203869073
 10
61.76539440730171
 20
-14.99994574277779
 10
61.76539440730171
 20
-14.99994574277779
 10
61.76539440730171
 20
-14.02481146567782
 10
60.97508950298539
 20
-13.23433430658725
 10
59.99995522588543
 20
-13.23433430658725
 10
59.02482094878546
 20
-13.23433430658725
 10
58.23434378969489
 20
-14.02481146567782
 10
58.23434378969489
 20
-14.99994574277779
 10
58.23434378969489
 20
-14.99994574277779
 10
58.23434378969489
 20
-45.10691510238429
 10
58.23434378969489
 20
-45.10691510238429
 10
57.90852388417738
 20
-45.14515566227056
 10
57.58614907414513
 20
-45.19416214554825
 10
57.26704710482387
 20
-45.25292255541854
 10
57.26704710482387
 20
-45.25292255541854
 10
53.37228053136179
 20
-30.71750487513313
 10
53.37228053136179
 20
-30.71750487513313
 10
53.20398761690734
 20
-30.08963622294634
 10
52.5594102516171
 20
-29.71687689144231
 10
51.93068032555899
 20
-29.88534206067103
 10
51.30281167337222
 20
-30.05346272035122
 10
50.93022459664244
 20
-30.69890135951278
 10
51.0985175110969
 20
-31.32694226647382
 10
51.0985175110969
 20
-31.32694226647382
 10
54.99253046992158
 20
-45.85941008374999
 10
54.99253046992158
 20
-45.85941008374999
 10
54.68376378705606
 20
-45.96874880171311
 10
54.37923887800675
 20
-46.08682944947005
 10
54.08013999434672
 20
-46.21546070215056
 10
54.08013999434672
 20
-46.21546070215056
 10
39.02896998807262
 20
-20.14605712386974
 10
39.02896998807262
 20
-20.14605712386974
 10
38.54183348645829
 20
-19.30200872998353
 10
37.46248507092952
 20
-19.01244845444828
 10
36.61723089362347
 20
-19.49992946561113
 10
35.77283799018874
 20
-19.98741047677398
 10
35.48344996942776
 20
-21.06727565662554
 10
35.97110323536487
 20
-21.91166856006028
 10
35.97110323536487
 20
-21.91166856006028
 10
51.02281153780854
 20
-47.98189034851885
 10
51.02281153780854
 20
-47.98189034851885
 10
50.76128572678451
 20
-48.17755024023426
 10
50.50897554618352
 20
-48.38444975597029
 10
50.26105786232623
 20
-48.59638772385351
 10
50.26105786232623
 20
-48.59638772385351
 10
39.61911484469592
 20
-37.9544447062232
 10
39.61911484469592
 20
-37.9544447062232
 10
39.15919459741507
 20
-37.49486896849087
 10
38.41436495350405
 20
-37.49486896849087
 10
37.9544447062232
 20
-37.9544447062232
 10
37.49486896849087
 20
-38.41419269872979
 10
37.49486896849087
 20
-39.15936685218933
 10
37.9544447062232
 20
-39.61911484469592
 10
37.9544447062232
 20
-39.61911484469592
 10
48.59638772385351
 20
-50.26105786232623
 10
48.59638772385351
 20
-50.26105786232623
 10
48.38444975597029
 20
-50.50897554618352
 10
48.17755024023426
 20
-50.76130725863129
 10
47.98189034851885
 20
-51.02281153780854
 10
47.98189034851885
 20
-51.02281153780854
 10
21.91166856006028
 20
-35.97110323536487
 10
21.91166856006028
 20
-35.97110323536487
 10
21.06727565662554
 20
-35.48362222420202
 10
19.98758273154824
 20
-35.77318249973726
 10
19.49992946561113
 20
-36.61723089362347
 10
19.01227619967401
 20
-37.46179605183247
 10
19.301664220435
 20
-38.54148897690977
 10
20.14605712386974
 20
-39.02896998807262
 10
20.14605712386974
 20
-39.02896998807262
 10
46.21548223399734
 20
-54.08013999434672
 10
46.21548223399734
 20
-54.08013999434672
 10
46.08685098131682
 20
-54.37923887800675
 10
45.96879186540667
 20
-54.68376378705606
 10
45.85943161559677
 20
-54.99253046992158
 10
45.85943161559677
 20
-54.99253046992158
 10
31.32694226647382
 20
-51.0985175110969
 10
31.32694226647382
 20
-51.0985175110969
 10
30.6978678308672
 20
-50.93022459664244
 10
30.05363497512548
 20
-51.30315618292073
 10
29.88534206067103
 20
-51.93068032555899
 10
29.71704914621657
 20
-52.55872123252004
 10
30.08963622294634
 20
-53.20415987168161
 10
30.71750487513313
 20
-53.37228053136179
 10
30.71750487513313
 20
-53.37228053136179
 10
45.25294408726533
 20
-57.26706863667065
 10
45.25294408726533
 20
-57.26706863667065
 10
45.19418367739503
 20
-57.58617060599192
 10
45.14517719411735
 20
-57.90852388417738
 10
45.10693663423108
 20
-58.23434378969489
 10
45.10693663423108
 20
-58.23434378969489
 10
14.99994574277779
 20
-58.23434378969489
 10
14.99994574277779
 20
-58.23434378969489
 10
14.02481146567782
 20
-58.23434378969489
 10
13.23433430658725
 20
-59.02482094878546
 10
13.23433430658725
 20
-59.99995522588543
 10
13.23433430658725
 20
-60.97508950298539
 10
14.02481146567782
 20
-61.76539440730171
 10
14.99994574277779
 20
-61.76539440730171
 10
14.99994574277779
 20
-61.76539440730171
 10
45.10689357053752
 20
-61.76539440730171
 10
45.10689357053752
 20
-61.76539440730171
 10
45.14513413042378
 20
-62.09132197205313
 10
45.19416214554825
 20
-62.41380444131929
 10
45.2529656191121
 20
-62.73301406987448
 10
45.2529656191121
 20
-62.73301406987448
 10
30.71750487513313
 20
-66.62780217518333
 10
30.71750487513313
 20
-66.62780217518333
 10
30.08963622294634
 20
-66.79592283486352
 10
29.71704914621657
 20
-67.44153372879934
 10
29.88534206067103
 20
-68.06923012621187
 10
30.02624646601775
 20
-68.59529620680951
 10
30.50184189775649
 20
-68.94187281262564
 10
31.02153455170642
 20
-68.94187281262564
 10
31.12230359464998
 20
-68.94187281262564
 10
31.22479518533616
 20
-68.92878144978169
 10
31.32694226647382
 20
-68.90156519544823
 10
31.32694226647382
 20
-68.90156519544823
 10
45.85947467929034
 20
-65.00755223662356
 10
45.85947467929034
 20
-65.00755223662356
 10
45.96883492910023
 20
-65.31631891948906
 10
46.08689404501039
 20
-65.62082229669158
 10
46.21552529769091
 20
-65.91992118035162
 10
46.21552529769091
 20
-65.91992118035162
 10
20.14605712386974
 20
-80.9711127184725
 10
20.14605712386974
 20
-80.9711127184725
 10
19.301664220435
 20
-81.45859372963535
 10
19.01227619967401
 20
-82.53828665471266
 10
19.49992946561113
 20
-83.38267955814739
 10
19.82686902716134
 20
-83.94939776547099
 10
20.42028672449562
 20
-84.26600204056546
 10
21.03058538970763
 20
-84.26600204056546
 10
21.32996418737584
 20
-84.26600204056546
 10
21.63364935440062
 20
-84.1895209207929
 10
21.91166856006028
 20
-84.02897947118026
 10
21.91166856006028
 20
-84.02897947118026
 10
47.9819549440592
 20
-68.97724963688981
 10
47.9819549440592
 20
-68.97724963688981
 10
48.17761483577461
 20
-69.23875391606705
 10
48.38449281966386
 20
-69.49106409666804
 10
48.59643078754707
 20
-69.73898178052532
 10
48.59643078754707
 20
-69.73898178052532
 10
37.9544447062232
 20
-80.38096786184921
 10
37.9544447062232
 20
-80.38096786184921
 10
37.49486896849087
 20
-80.84054359958154
 10
37.49486896849087
 20
-81.58606226258958
 10
37.9544447062232
 20
-82.04563800032193
 10
38.18440482986363
 20
-82.2754258691881
 10
38.48550617527446
 20
-82.39049205839544
 10
38.78677977545956
 20
-82.39049205839544
 10
39.08805337564466
 20
-82.39049205839544
 10
39.38915472105549
 20
-82.2754258691881
 10
39.61911484469592
 20
-82.04563800032193
 10
39.61911484469592
 20
-82.04563800032193
 10
50.26112245786658
 20
-71.40363038715126
 10
50.26112245786658
 20
-71.40363038715126
 10
50.50901860987709
 20
-71.6155468231877
 10
50.76132879047808
 20
-71.82244633892373
 10
51.02281153780854
 20
-72.01808469879235
 10
51.02281153780854
 20
-72.01808469879235
 10
35.97110323536487
 20
-98.08841414648485
 10
35.97110323536487
 20
-98.08841414648485
 10
35.48344996942776
 20
-98.93280704991958
 10
35.77283799018874
 20
-100.0124999749969
 10
36.61723089362347
 20
-100.4999809861597
 10
36.89525009928313
 20
-100.6605224357723
 10
37.19876301153365
 20
-100.7370035555449
 10
37.49831406397612
 20
-100.7370035555449
 10
38.10861272918812
 20
-100.7370035555449
 10
38.70203042652241
 20
-100.4200547709019
 10
39.02896998807262
 20
-99.85368107312687
 10
39.02896998807262
 20
-99.85368107312687
 10
54.08007539880637
 20
-73.78449281331386
 10
54.08007539880637
 20
-73.78449281331386
 10
54.37921734615997
 20
-73.91314559784117
 10
54.68376378705606
 20
-74.03120471375132
 10
54.99257353361514
 20
-74.14056496356121
 10
54.99257353361514
 20
-74.14056496356121
 10
51.0985175110969
 20
-88.67331269484557
 10
51.0985175110969
 20
-88.67331269484557
 10
50.93022459664244
 20
-89.30100909225808
 10
51.30281167337222
 20
-89.9466199861939
 10
51.93068032555899
 20
-90.11474064587408
 10
52.03282740669665
 20
-90.14230140975611
 10
52.13531899738284
 20
-90.15504826305152
 10
52.2360880403264
 20
-90.15504826305152
 10
52.75578069427633
 20
-90.15504826305152
 10
53.23137612601508
 20
-89.80847165723538
 10
53.37228053136179
 20
-89.28240557663775
 10
53.37228053136179
 20
-89.28240557663775
 10
57.26706863667065
 20
-74.74705249189267
 10
57.26706863667065
 20
-74.74705249189267
 10
57.58614907414513
 20
-74.80581290176296
 10
57.90852388417738
 20
-74.85481938504064
 10
58.23434378969489
 20
-74.89305994492692
 10
58.23434378969489
 20
-74.89305994492692
 10
58.23434378969489
 20
-104.9999647089931
 10
58.23434378969489
 20
-104.9999647089931
 10
58.23434378969489
 20
-105.9749267313188
 10
59.02482094878546
 20
-106.7655761451836
 10
59.99995522588543
 20
-106.7655761451836
 10
60.97508950298539
 20
-106.7655761451836
 10
61.76539440730171
 20
-105.9749267313188
 10
61.76539440730171
 20
-104.9999647089931
 10
61.76539440730171
 20
-104.9999647089931
 10
61.76539440730171
 20
-74.89310300862047
 10
61.76539440730171
 20
-74.89310300862047
 10
62.09132197205313
 20
-74.8548624487342
 10
62.41380444131929
 20
-74.80583443360974
 10
62.73301406987448
 20
-74.74703096004589
 10
62.73301406987448
 20
-74.74703096004589
 10
66.62780217518333
 20
-89.28240557663775
 10
66.62780217518333
 20
-89.28240557663775
 10
66.76870658053005
 20
-89.80847165723538
 10
67.24412975749451
 20
-90.15504826305152
 10
67.76399466621872
 20
-90.15504826305152
 10
67.86459145438802
 20
-90.15504826305152
 10
67.96725529984846
 20
-90.14195690020757
 10
68.06923012621187
 20
-90.11474064587408
 10
68.69727103317291
 20
-89.9466199861939
 10
69.06968585512841
 20
-89.30100909225808
 10
68.90156519544823
 20
-88.67331269484557
 10
68.90156519544823
 20
-88.67331269484557
 10
65.00750917292998
 20
-74.14054343171443
 10
65.00750917292998
 20
-74.14054343171443
 10
65.31631891948906
 20
-74.03118318190454
 10
65.62084382853837
 20
-73.9131025341476
 10
65.91998577589198
 20
-73.78444974962029
 10
65.91998577589198
 20
-73.78444974962029
 10
80.9711127184725
 20
-99.85368107312687
 10
80.9711127184725
 20
-99.85368107312687
 10
81.29805228002272
 20
-100.4203992804504
 10
81.89164223213126
 20
-100.7370035555449
 10
82.501768642569
 20
-100.7370035555449
 10
82.80114744023721
 20
-100.7370035555449
 10
83.10466035248772
 20
-100.6605224357723
 10
83.38267955814739
 20
-100.4999809861597
 10
84.22741697113066
 20
-100.0124999749969
 10
84.5164604823431
 20
-98.93280704991958
 10
84.02897947118026
 20
-98.08841414648485
 10
84.02897947118026
 20
-98.08841414648485
 10
68.97724963688981
 20
-72.0180416350988
 10
68.97724963688981
 20
-72.0180416350988
 10
69.23873238422027
 20
-71.82242480707696
 10
69.49104256482126
 20
-71.61552529134091
 10
69.73893871683177
 20
-71.40360885530448
 10
69.73893871683177
 20
-71.40360885530448
 10
80.38096786184921
 20
-82.04563800032193
 10
80.38096786184921
 20
-82.04563800032193
 10
80.61075573071537
 20
-82.2754258691881
 10
80.91220158567473
 20
-82.39049205839544
 10
81.21330293108556
 20
-82.39049205839544
 10
81.51440427649641
 20
-82.39049205839544
 10
81.81585013145577
 20
-82.2754258691881
 10
82.04563800032193
 20
-82.04563800032193
 10
82.50521373805424
 20
-81.58606226258958
 10
82.50521373805424
 20
-80.84054359958154
 10
82.04563800032193
 20
-80.38096786184921
 10
82.04563800032193
 20
-80.38096786184921
 10
71.40360885530448
 20
-69.73893871683177
 10
71.40360885530448
 20
-69.73893871683177
 10
71.61552529134091
 20
-69.49104256482126
 10
71.82242480707696
 20
-69.23875391606705
 10
72.01806316694558
 20
-68.97727116873659
 10
72.01806316694558
 20
-68.97727116873659
 10
98.08841414648485
 20
-84.02897947118026
 10
98.08841414648485
 20
-84.02897947118026
 10
98.36643335214452
 20
-84.1895209207929
 10
98.66994626439502
 20
-84.26600204056546
 10
98.96932506206324
 20
-84.26600204056546
 10
99.57945147250098
 20
-84.26600204056546
 10
100.1730414246095
 20
-83.94905325592246
 10
100.4999809861597
 20
-83.38267955814739
 10
100.9874619973226
 20
-82.53828665471266
 10
100.6984184861101
 20
-81.45859372963535
 10
99.85368107312687
 20
-80.9711127184725
 10
99.85368107312687
 20
-80.9711127184725
 10
73.78447128146707
 20
-65.91998577589198
 10
73.78447128146707
 20
-65.91998577589198
 10
73.9131025341476
 20
-65.62086536038515
 10
74.03120471375132
 20
-65.31631891948906
 10
74.14056496356121
 20
-65.00750917292998
 10
74.14056496356121
 20
-65.00750917292998
 10
88.67331269484557
 20
-68.90156519544823
 10
88.67331269484557
 20
-68.90156519544823
 10
88.77528752120896
 20
-68.92912595933022
 10
88.87760685712088
 20
-68.94187281262564
 10
88.97854815483871
 20
-68.94187281262564
 10
89.4984130635629
 20
-68.94187281262564
 10
89.97383624052737
 20
-68.59529620680951
 10
90.11474064587408
 20
-68.06923012621187
 10
90.28320581510282
 20
-67.44153372879934
 10
89.91044648359878
 20
-66.79592283486352
 10
89.28240557663775
 20
-66.62780217518333
 10
89.28240557663775
 20
-66.62780217518333
 10
74.74705249189267
 20
-62.73303560172125
 10
74.74705249189267
 20
-62.73303560172125
 10
74.80585596545653
 20
-62.41382597316608
 10
74.85488398058099
 20
-62.09134350389991
 10
74.89312454046725
 20
-61.76539440730171
 10
74.89312454046725
 20
-61.76539440730171
 10
104.9999647089931
 20
-61.76539440730171
 10
104.9999647089931
 20
-61.76539440730171
 10
105.9749267313188
 20
-61.76539440730171
 10
106.7655761451836
 20
-60.97508950298539
 10
106.7655761451836
 20
-59.99995522588543
 10
106.7655761451836
 20
-59.02482094878546
 10
105.9749267313188
 20
-58.23434378969489
 10
104.9999647089931
 20
-58.23434378969489
 97
        0
 97
        1
330
90
 75
     2
 76
     1
 98
        1
 10
0.0
 20
0.0
450
        0
451
        0
460
0.0
461
0.0
452
        0
462
0.0
453
        0
470

  0
ENDSEC
  0
SECTION
  2
OBJECTS
  0
DICTIONARY
  5
C
330
0
100
AcDbDictionary
281
     1
  3
ACAD_COLOR
350
63
  3
ACAD_DETAILVIEWSTYLE
350
6A
  3
ACAD_GROUP
350
D
  3
ACAD_LAYOUT
350
62
  3
ACAD_MATERIAL
350
10
  3
ACAD_MLEADERSTYLE
350
66
  3
ACAD_MLINESTYLE
350
5F
  3
ACAD_PLOTSETTINGS
350
61
  3
ACAD_PLOTSTYLENAME
350
E
  3
ACAD_SCALELIST
350
42
  3
ACAD_SECTIONVIEWSTYLE
350
68
  3
ACAD_TABLESTYLE
350
64
  3
ACAD_VISUALSTYLE
350
29
  3
ACDB_RECOMPOSE_DATA
350
9B
  3
AcDbVariableDictionary
350
93
  0
DICTIONARY
  5
63
102
{ACAD_REACTORS
330
C
102
}
330
C
100
AcDbDictionary
281
     1
  0
DICTIONARY
  5
6A
102
{ACAD_REACTORS
330
C
102
}
330
C
100
AcDbDictionary
281
     1
  3
Imperial24
350
6B
  0
DICTIONARY
  5
D
102
{ACAD_REACTORS
330
C
102
}
330
C
100
AcDbDictionary
281
     1
  0
DICTIONARY
  5
62
102
{ACAD_REACTORS
330
C
102
}
330
C
100
AcDbDictionary
281
     1
  3
Layout1
350
6F
  3
Layout2
350
77
  3
Model
350
73
  0
DICTIONARY
  5
10
102
{ACAD_REACTORS
330
C
102
}
330
C
100
AcDbDictionary
281
     1
  3
ByBlock
350
19
  3
ByLayer
350
11
  3
Global
350
21
  0
DICTIONARY
  5
66
102
{ACAD_REACTORS
330
C
102
}
330
C
100
AcDbDictionary
281
     1
  3
Standard
350
67
  0
DICTIONARY
  5
5F
102
{ACAD_REACTORS
330
C
102
}
330
C
100
AcDbDictionary
281
     1
  3
Standard
350
60
  0
DICTIONARY
  5
61
102
{ACAD_REACTORS
330
C
102
}
330
C
100
AcDbDictionary
281
     1
  0
ACDBDICTIONARYWDFLT
  5
E
102
{ACAD_REACTORS
330
C
102
}
330
C
100
AcDbDictionary
281
     1
  3
Normal
350
F
100
AcDbDictionaryWithDefault
340
F
  0
DICTIONARY
  5
42
102
{ACAD_REACTORS
330
C
102
}
330
C
100
AcDbDictionary
281
     1
  3
A0
350
43
  3
A1
350
44
  3
A2
350
45
  3
A3
350
46
  3
A4
350
47
  3
A5
350
48
  3
A6
350
49
  3
A7
350
4A
  3
A8
350
4B
  3
A9
350
4C
  3
B0
350
4D
  3
B1
350
4E
  3
B2
350
4F
  3
B3
350
50
  3
B4
350
51
  3
B5
350
52
  3
B6
350
53
  0
DICTIONARY
  5
68
102
{ACAD_REACTORS
330
C
102
}
330
C
100
AcDbDictionary
281
     1
  3
Imperial24
350
69
  0
DICTIONARY
  5
64
102
{ACAD_REACTORS
330
C
102
}
330
C
100
AcDbDictionary
281
     1
  3
Standard
350
65
  0
DICTIONARY
  5
29
102
{ACAD_REACTORS
330
C
102
}
330
C
100
AcDbDictionary
281
     1
  3
2dWireframe
350
2F
  3
Basic
350
2E
  3
Brighten
350
35
  3
ColorChange
350
39
  3
Conceptual
350
32
  3
Dim
350
34
  3
EdgeColorOff
350
41
  3
Facepattern
350
38
  3
Flat
350
2A
  3
FlatWithEdges
350
2B
  3
Gouraud
350
2C
  3
GouraudWithEdges
350
2D
  3
Hidden
350
31
  3
JitterOff
350
3F
  3
Linepattern
350
37
  3
OverhangOff
350
40
  3
Realistic
350
33
  3
Shaded
350
3E
  3
Shaded with edges
350
3D
  3
Shades of Gray
350
3A
  3
Sketchy
350
3B
  3
Thicken
350
36
  3
Wireframe
350
30
  3
X-Ray
350
3C
  0
XRECORD
  5
9B
102
{ACAD_REACTORS
330
C
102
}
330
C
100
AcDbXrecord
280
     1
 90
        1
330
65
  0
DICTIONARY
  5
93
102
{ACAD_REACTORS
330
C
102
}
330
C
100
AcDbDictionary
281
     1
  3
CANNOSCALE
350
98
  3
CMLEADERSTYLE
350
95
  3
CTABLESTYLE
350
94
  3
CVIEWDETAILSTYLE
350
96
  3
CVIEWSECTIONSTYLE
350
97
  0
ACDBDETAILVIEWSTYLE
  5
6B
102
{ACAD_REACTORS
330
6A
102
}
330
6A
100
AcDbModelDocViewStyle
 70
     0
  3
Imperial24
290
     1
300
Imperial24
 90
        0
100
AcDbDetailViewStyle
 70
     0
 71
     0
 90
        3
 71
     1
340
55
 62
   256
 40
0.24
340
0
 62
   256
 40
0.24
300

 40
0.36
280
     3
 71
     2
340
5D
 90
       25
 62
   256
 71
     3
340
55
 62
   256
 40
0.24
 90
        1
 40
0.75
 90
        1
300
%<\AcVar ViewType \f "%tc1">% %<\AcVar ViewDetailId>%\PSCALE %<\AcVar ViewScale \f "%sn">%
 71
     4
340
5D
 90
       25
 62
   256
340
5D
 90
       25
 62
   256
280
     0
  0
LAYOUT
  5
6F
102
{ACAD_REACTORS
330
62
102
}
330
62
100
AcDbPlotSettings
  1

  2

  4

  6

 40
0.0
 41
0.0
 42
0.0
 43
0.0
 44
0.0
 45
0.0
 46
0.0
 47
0.0
 48
0.0
 49
0.0
140
0.0
141
0.0
142
1.0
143
1.0
 70
   688
 72
     0
 73
     0
 74
     5
  7

 75
    16
147
1.0
 76
     0
 77
     2
 78
   300
148
0.0
149
0.0
100
AcDbLayout
  1
Layout1
 70
     1
 71
     1
 10
0.0
 20
0.0
 11
12.0
 21
9.0
 12
0.0
 22
0.0
 32
0.0
 14
0.0
 24
0.0
 34
0.0
 15
0.0
 25
0.0
 35
0.0
146
0.0
 13
0.0
 23
0.0
 33
0.0
 16
1.0
 26
0.0
 36
0.0
 17
0.0
 27
1.0
 37
0.0
 76
     0
330
6C
  0
LAYOUT
  5
77
102
{ACAD_REACTORS
330
62
102
}
330
62
100
AcDbPlotSettings
  1

  2

  4

  6

 40
0.0
 41
0.0
 42
0.0
 43
0.0
 44
0.0
 45
0.0
 46
0.0
 47
0.0
 48
0.0
 49
0.0
140
0.0
141
0.0
142
1.0
143
1.0
 70
   688
 72
     0
 73
     0
 74
     5
  7

 75
    16
147
1.0
 76
     0
 77
     2
 78
   300
148
0.0
149
0.0
100
AcDbLayout
  1
Layout2
 70
     1
 71
     2
 10
0.0
 20
0.0
 11
12.0
 21
9.0
 12
0.0
 22
0.0
 32
0.0
 14
0.0
 24
0.0
 34
0.0
 15
0.0
 25
0.0
 35
0.0
146
0.0
 13
0.0
 23
0.0
 33
0.0
 16
1.0
 26
0.0
 36
0.0
 17
0.0
 27
1.0
 37
0.0
 76
     0
330
74
  0
LAYOUT
  5
73
102
{ACAD_REACTORS
330
62
102
}
330
62
100
AcDbPlotSettings
  1

  2

  4

  6

 40
0.0
 41
0.0
 42
0.0
 43
0.0
 44
0.0
 45
0.0
 46
0.0
 47
0.0
 48
0.0
 49
0.0
140
0.0
141
0.0
142
1.0
143
1.0
 70
  1712
 72
     0
 73
     0
 74
     0
  7

 75
     0
147
1.0
 76
     0
 77
     2
 78
   300
148
0.0
149
0.0
100
AcDbLayout
  1
Model
 70
     1
 71
     0
 10
0.0
 20
0.0
 11
12.0
 21
9.0
 12
0.0
 22
0.0
 32
0.0
 14
0.0
 24
0.0
 34
0.0
 15
0.0
 25
0.0
 35
0.0
146
0.0
 13
0.0
 23
0.0
 33
0.0
 16
1.0
 26
0.0
 36
0.0
 17
0.0
 27
1.0
 37
0.0
 76
     0
330
70
  0
MATERIAL
  5
19
102
{ACAD_XDICTIONARY
360
1A
102
}
102
{ACAD_REACTORS
330
10
102
}
330
10
100
AcDbMaterial
  1
ByBlock
 72
     0
 43
0.0208333333333333
 43
0.0
 43
0.0
 43
0.0
 43
0.0
 43
0.0208333333333333
 43
0.0
 43
0.0
 43
0.0
 43
0.0
 43
1.0
 43
0.0
 43
0.0
 43
0.0
 43
0.0
 43
1.0
 77
     0
 47
0.0208333333333333
 47
0.0
 47
0.0
 47
0.0
 47
0.0
 47
0.0208333333333333
 47
0.0
 47
0.0
 47
0.0
 47
0.0
 47
1.0
 47
0.0
 47
0.0
 47
0.0
 47
0.0
 47
1.0
171
     0
 49
0.0208333333333333
 49
0.0
 49
0.0
 49
0.0
 49
0.0
 49
0.0208333333333333
 49
0.0
 49
0.0
 49
0.0
 49
0.0
 49
1.0
 49
0.0
 49
0.0
 49
0.0
 49
0.0
 49
1.0
175
     0
142
0.0208333333333333
142
0.0
142
0.0
142
0.0
142
0.0
142
0.0208333333333333
142
0.0
142
0.0
142
0.0
142
0.0
142
1.0
142
0.0
142
0.0
142
0.0
142
0.0
142
1.0
179
     0
144
0.0208333333333333
144
0.0
144
0.0
144
0.0
144
0.0
144
0.0208333333333333
144
0.0
144
0.0
144
0.0
144
0.0
144
1.0
144
0.0
144
0.0
144
0.0
144
0.0
144
1.0
147
0.0208333333333333
147
0.0
147
0.0
147
0.0
147
0.0
147
0.0208333333333333
147
0.0
147
0.0
147
0.0
147
0.0
147
1.0
147
0.0
147
0.0
147
0.0
147
0.0
147
1.0
  0
MATERIAL
  5
11
102
{ACAD_XDICTIONARY
360
12
102
}
102
{ACAD_REACTORS
330
10
102
}
330
10
100
AcDbMaterial
  1
ByLayer
 72
     0
 43
0.0208333333333333
 43
0.0
 43
0.0
 43
0.0
 43
0.0
 43
0.0208333333333333
 43
0.0
 43
0.0
 43
0.0
 43
0.0
 43
1.0
 43
0.0
 43
0.0
 43
0.0
 43
0.0
 43
1.0
 77
     0
 47
0.0208333333333333
 47
0.0
 47
0.0
 47
0.0
 47
0.0
 47
0.0208333333333333
 47
0.0
 47
0.0
 47
0.0
 47
0.0
 47
1.0
 47
0.0
 47
0.0
 47
0.0
 47
0.0
 47
1.0
171
     0
 49
0.0208333333333333
 49
0.0
 49
0.0
 49
0.0
 49
0.0
 49
0.0208333333333333
 49
0.0
 49
0.0
 49
0.0
 49
0.0
 49
1.0
 49
0.0
 49
0.0
 49
0.0
 49
0.0
 49
1.0
175
     0
142
0.0208333333333333
142
0.0
142
0.0
142
0.0
142
0.0
142
0.0208333333333333
142
0.0
142
0.0
142
0.0
142
0.0
142
1.0
142
0.0
142
0.0
142
0.0
142
0.0
142
1.0
179
     0
144
0.0208333333333333
144
0.0
144
0.0
144
0.0
144
0.0
144
0.0208333333333333
144
0.0
144
0.0
144
0.0
144
0.0
144
1.0
144
0.0
144
0.0
144
0.0
144
0.0
144
1.0
147
0.0208333333333333
147
0.0
147
0.0
147
0.0
147
0.0
147
0.0208333333333333
147
0.0
147
0.0
147
0.0
147
0.0
147
1.0
147
0.0
147
0.0
147
0.0
147
0.0
147
1.0
  0
MATERIAL
  5
21
102
{ACAD_XDICTIONARY
360
22
102
}
102
{ACAD_REACTORS
330
10
102
}
330
10
100
AcDbMaterial
  1
Global
 72
     0
 43
0.0208333333333333
 43
0.0
 43
0.0
 43
0.0
 43
0.0
 43
0.0208333333333333
 43
0.0
 43
0.0
 43
0.0
 43
0.0
 43
1.0
 43
0.0
 43
0.0
 43
0.0
 43
0.0
 43
1.0
 77
     0
 47
0.0208333333333333
 47
0.0
 47
0.0
 47
0.0
 47
0.0
 47
0.0208333333333333
 47
0.0
 47
0.0
 47
0.0
 47
0.0
 47
1.0
 47
0.0
 47
0.0
 47
0.0
 47
0.0
 47
1.0
171
     0
 49
0.0208333333333333
 49
0.0
 49
0.0
 49
0.0
 49
0.0
 49
0.0208333333333333
 49
0.0
 49
0.0
 49
0.0
 49
0.0
 49
1.0
 49
0.0
 49
0.0
 49
0.0
 49
0.0
 49
1.0
175
     0
142
0.0208333333333333
142
0.0
142
0.0
142
0.0
142
0.0
142
0.0208333333333333
142
0.0
142
0.0
142
0.0
142
0.0
142
1.0
142
0.0
142
0.0
142
0.0
142
0.0
142
1.0
179
     0
144
0.0208333333333333
144
0.0
144
0.0
144
0.0
144
0.0
144
0.0208333333333333
144
0.0
144
0.0
144
0.0
144
0.0
144
1.0
144
0.0
144
0.0
144
0.0
144
0.0
144
1.0
147
0.0208333333333333
147
0.0
147
0.0
147
0.0
147
0.0
147
0.0208333333333333
147
0.0
147
0.0
147
0.0
147
0.0
147
1.0
147
0.0
147
0.0
147
0.0
147
0.0
147
1.0
  0
MLEADERSTYLE
  5
67
102
{ACAD_REACTORS
330
66
102
}
330
66
100
AcDbMLeaderStyle
179
     2
170
     2
171
     1
172
     0
 90
        2
 40
0.0
 41
0.0
173
     1
 91
-1056964608
340
5B
 92
       -2
290
     1
 42
0.09
291
     1
 43
0.36
  3
Standard
 44
0.18
300

342
55
174
     1
178
     6
175
     1
176
     0
 93
-1056964608
 45
0.18
292
     0
297
     0
 46
0.18
 94
-1056964608
 47
1.0
 49
1.0
140
1.0
293
     1
141
0.0
294
     1
177
     0
142
1.0
295
     1
296
     0
143
0.125
271
     0
272
     9
273
     9
298
     1
  0
MLINESTYLE
  5
60
102
{ACAD_REACTORS
330
5F
102
}
330
5F
100
AcDbMlineStyle
  2
STANDARD
 70
     0
  3

 62
   256
 51
90.0
 52
90.0
 71
     2
 49
0.5
 62
   256
  6
BYLAYER
 49
-0.5
 62
   256
  6
BYLAYER
  0
ACDBPLACEHOLDER
  5
F
102
{ACAD_REACTORS
330
E
102
}
330
E
  0
SCALE
  5
43
102
{ACAD_REACTORS
330
42
102
}
330
42
100
AcDbScale
 70
     0
300
1:1
140
1.0
141
1.0
290
     1
  0
SCALE
  5
44
102
{ACAD_REACTORS
330
42
102
}
330
42
100
AcDbScale
 70
     0
300
1/128" = 1'-0"
140
0.0078125
141
12.0
290
     0
  0
SCALE
  5
45
102
{ACAD_REACTORS
330
42
102
}
330
42
100
AcDbScale
 70
     0
300
1/64" = 1'-0"
140
0.015625
141
12.0
290
     0
  0
SCALE
  5
46
102
{ACAD_REACTORS
330
42
102
}
330
42
100
AcDbScale
 70
     0
300
1/32" = 1'-0"
140
0.03125
141
12.0
290
     0
  0
SCALE
  5
47
102
{ACAD_REACTORS
330
42
102
}
330
42
100
AcDbScale
 70
     0
300
1/16" = 1'-0"
140
0.0625
141
12.0
290
     0
  0
SCALE
  5
48
102
{ACAD_REACTORS
330
42
102
}
330
42
100
AcDbScale
 70
     0
300
3/32" = 1'-0"
140
0.09375
141
12.0
290
     0
  0
SCALE
  5
49
102
{ACAD_REACTORS
330
42
102
}
330
42
100
AcDbScale
 70
     0
300
1/8" = 1'-0"
140
0.125
141
12.0
290
     0
  0
SCALE
  5
4A
102
{ACAD_REACTORS
330
42
102
}
330
42
100
AcDbScale
 70
     0
300
3/16" = 1'-0"
140
0.1875
141
12.0
290
     0
  0
SCALE
  5
4B
102
{ACAD_REACTORS
330
42
102
}
330
42
100
AcDbScale
 70
     0
300
1/4" = 1'-0"
140
0.25
141
12.0
290
     0
  0
SCALE
  5
4C
102
{ACAD_REACTORS
330
42
102
}
330
42
100
AcDbScale
 70
     0
300
3/8" = 1'-0"
140
0.375
141
12.0
290
     0
  0
SCALE
  5
4D
102
{ACAD_REACTORS
330
42
102
}
330
42
100
AcDbScale
 70
     0
300
1/2" = 1'-0"
140
0.5
141
12.0
290
     0
  0
SCALE
  5
4E
102
{ACAD_REACTORS
330
42
102
}
330
42
100
AcDbScale
 70
     0
300
3/4" = 1'-0"
140
0.75
141
12.0
290
     0
  0
SCALE
  5
4F
102
{ACAD_REACTORS
330
42
102
}
330
42
100
AcDbScale
 70
     0
300
1" = 1'-0"
140
1.0
141
12.0
290
     0
  0
SCALE
  5
50
102
{ACAD_REACTORS
330
42
102
}
330
42
100
AcDbScale
 70
     0
300
1-1/2" = 1'-0"
140
1.5
141
12.0
290
     0
  0
SCALE
  5
51
102
{ACAD_REACTORS
330
42
102
}
330
42
100
AcDbScale
 70
     0
300
3" = 1'-0"
140
3.0
141
12.0
290
     0
  0
SCALE
  5
52
102
{ACAD_REACTORS
330
42
102
}
330
42
100
AcDbScale
 70
     0
300
6" = 1'-0"
140
6.0
141
12.0
290
     0
  0
SCALE
  5
53
102
{ACAD_REACTORS
330
42
102
}
330
42
100
AcDbScale
 70
     0
300
1'-0" = 1'-0"
140
12.0
141
12.0
290
     0
  0
ACDBSECTIONVIEWSTYLE
  5
69
102
{ACAD_REACTORS
330
68
102
}
330
68
100
AcDbModelDocViewStyle
 70
     0
  3
Imperial24
290
     1
300
Imperial24
 90
        0
100
AcDbSectionViewStyle
 70
     0
 71
     0
 90
       78
 71
     1
340
55
 62
   256
 40
0.24
340
0
340
0
 62
   256
 40
0.24
300
I, O, Q, S, X, Z
 40
0.48
 90
        3
 40
0.18
 90
        1
 71
     2
340
5D
 90
       25
 62
   256
340
5D
 90
       50
 62
   256
 40
0.24
 40
0.0
 40
0.24
 71
     3
340
55
 62
   256
 40
0.24
 90
        1
 40
0.75
 90
        1
300
%<\AcVar ViewType \f "%tc1">% %<\AcVar ViewSectionStartId>%-%<\AcVar ViewSectionEndId>%\PSCALE %<\AcVar ViewScale \f "%sn">%
 71
     4
 62
   256
 62
   257
300
ANSI31
 40
1.0
 90
        0
290
     0
290
     0
 90
        6
 40
0.0
 40
1.570796326794896
 40
0.2617993877991494
 40
1.308996938995747
 40
-0.2617993877991494
 40
1.832595714594046
  0
TABLESTYLE
  5
65
102
{ACAD_XDICTIONARY
360
99
102
}
102
{ACAD_REACTORS
330
64
102
}
330
64
100
AcDbTableStyle
280
     0
  3
Standard
 70
     0
 71
     0
 40
0.06
 41
0.06
280
     0
281
     0
  7
Standard
140
0.18
170
     2
 62
     0
 63
     7
283
     0
 90
      512
 91
        0
  1

274
    -2
284
     1
 64
     0
275
    -2
285
     1
 65
     0
276
    -2
286
     1
 66
     0
277
    -2
287
     1
 67
     0
278
    -2
288
     1
 68
     0
279
    -2
289
     1
 69
     0
  7
Standard
140
0.25
170
     5
 62
     0
 63
     7
283
     0
 90
      512
 91
        0
  1

274
    -2
284
     1
 64
     0
275
    -2
285
     1
 65
     0
276
    -2
286
     1
 66
     0
277
    -2
287
     1
 67
     0
278
    -2
288
     1
 68
     0
279
    -2
289
     1
 69
     0
  7
Standard
140
0.18
170
     5
 62
     0
 63
     7
283
     0
 90
      512
 91
        0
  1

274
    -2
284
     1
 64
     0
275
    -2
285
     1
 65
     0
276
    -2
286
     1
 66
     0
277
    -2
287
     1
 67
     0
278
    -2
288
     1
 68
     0
279
    -2
289
     1
 69
     0
  0
VISUALSTYLE
  5
2F
102
{ACAD_REACTORS
330
29
102
}
330
29
100
AcDbVisualStyle
  2
2dWireframe
 70
     4
177
     3
291
     0
 70
    58
 90
        0
176
     1
 90
        2
176
     1
 90
        0
176
     1
 90
        0
176
     1
 40
0.6
176
     1
 40
30.0
176
     1
 62
     7
420
 16777215
176
     1
 90
        1
176
     1
 90
        4
176
     1
 62
     7
176
     1
 62
   257
176
     1
 90
        1
176
     1
 90
        1
176
     1
 40
1.0
176
     1
 90
        0
176
     1
 62
   257
176
     1
 40
1.0
176
     1
 90
        1
176
     1
 90
        6
176
     1
 90
        2
176
     1
 62
     7
176
     1
 90
        5
176
     1
 90
        0
176
     1
 90
        0
176
     1
290
     0
176
     1
 90
        1
176
     1
 40
0.0
176
     1
 90
        0
176
     1
290
     1
176
     1
290
     1
176
     1
290
     0
176
     1
290
     0
176
     1
290
     0
176
     1
290
     0
176
     1
290
     0
176
     1
290
     0
176
     1
290
     0
176
     1
 90
       50
176
     1
 40
0.0
176
     1
 40
1.0
176
     1
 90
        0
176
     1
 62
    18
420
        0
176
     1
 90
       50
176
     1
 90
        3
176
     1
 62
     5
420
      255
176
     1
290
     0
176
     1
 90
       50
176
     1
 90
       50
176
     1
 90
       50
176
     1
290
     0
176
     1
 90
       50
176
     1
 62
   256
176
     0
 40
1.0
176
     0
 90
        2
176
     1
  1
strokes_ogs.tif
176
     1
290
     0
176
     1
 40
1.0
176
     1
 40
1.0
176
     1
  0
VISUALSTYLE
  5
2E
102
{ACAD_REACTORS
330
29
102
}
330
29
100
AcDbVisualStyle
  2
Basic
 70
     7
177
     3
291
     1
 70
    58
 90
        1
176
     1
 90
        0
176
     1
 90
        1
176
     1
 90
        0
176
     1
 40
0.6
176
     1
 40
30.0
176
     1
 62
     7
420
 16777215
176
     1
 90
        0
176
     1
 90
        4
176
     1
 62
     7
176
     1
 62
   257
176
     1
 90
        1
176
     1
 90
        1
176
     1
 40
1.0
176
     1
 90
        8
176
     1
 62
     7
176
     1
 40
1.0
176
     1
 90
        1
176
     1
 90
        6
176
     1
 90
        2
176
     1
 62
     7
176
     1
 90
        5
176
     1
 90
        0
176
     1
 90
        0
176
     1
290
     0
176
     1
 90
        1
176
     1
 40
0.0
176
     1
 90
        0
176
     1
290
     0
176
     1
290
     1
176
     1
290
     1
176
     1
290
     0
176
     1
290
     0
176
     1
290
     0
176
     1
290
     0
176
     1
290
     0
176
     1
290
     0
176
     1
 90
       50
176
     1
 40
0.0
176
     1
 40
1.0
176
     1
 90
        0
176
     1
 62
    18
420
        0
176
     1
 90
       50
176
     1
 90
        3
176
     1
 62
     5
420
      255
176
     1
290
     0
176
     1
 90
       50
176
     1
 90
       50
176
     1
 90
       50
176
     1
290
     0
176
     1
 90
       50
176
     1
 62
   256
176
     0
 40
1.0
176
     0
 90
        2
176
     1
  1
strokes_ogs.tif
176
     1
290
     0
176
     1
 40
1.0
176
     1
 40
1.0
176
     1
  0
VISUALSTYLE
  5
35
102
{ACAD_REACTORS
330
29
102
}
330
29
100
AcDbVisualStyle
  2
Brighten
 70
    12
177
     3
291
     1
 70
    58
 90
        2
176
     1
 90
        2
176
     1
 90
        0
176
     1
 90
        0
176
     1
 40
0.6
176
     1
 40
30.0
176
     1
 62
     7
420
 16777215
176
     1
 90
        1
176
     1
 90
        4
176
     1
 62
     7
176
     1
 62
   257
176
     1
 90
        1
176
     1
 90
        1
176
     1
 40
1.0
176
     1
 90
        8
176
     1
 62
     7
176
     1
 40
1.0
176
     1
 90
        1
176
     1
 90
        6
176
     1
 90
        2
176
     1
 62
     7
176
     1
 90
        5
176
     1
 90
        0
176
     1
 90
        0
176
     1
290
     0
176
     1
 90
        1
176
     1
 40
50.0
176
     1
 90
        0
176
     1
290
     0
176
     1
290
     1
176
     1
290
     1
176
     1
290
     0
176
     1
290
     0
176
     1
290
     0
176
     1
290
     0
176
     1
290
     0
176
     1
290
     0
176
     1
 90
       50
176
     1
 40
0.0
176
     1
 40
1.0
176
     1
 90
        0
176
     1
 62
    18
420
        0
176
     1
 90
       50
176
     1
 90
        3
176
     1
 62
     5
420
      255
176
     1
290
     0
176
     1
 90
       50
176
     1
 90
       50
176
     1
 90
       50
176
     1
290
     0
176
     1
 90
       50
176
     1
 62
   256
176
     0
 40
1.0
176
     0
 90
        2
176
     1
  1
strokes_ogs.tif
176
     1
290
     0
176
     1
 40
1.0
176
     1
 40
1.0
176
     1
  0
VISUALSTYLE
  5
39
102
{ACAD_REACTORS
330
29
102
}
330
29
100
AcDbVisualStyle
  2
ColorChange
 70
    16
177
     3
291
     1
 70
    58
 90
        2
176
     1
 90
        2
176
     1
 90
        3
176
     1
 90
        0
176
     1
 40
0.6
176
     1
 40
30.0
176
     1
 62
     8
420
  8421504
176
     1
 90
        1
176
     1
 90
        4
176
     1
 62
     7
176
     1
 62
   257
176
     1
 90
        1
176
     1
 90
        1
176
     1
 40
1.0
176
     1
 90
        8
176
     1
 62
     8
420
  8421504
176
     1
 40
1.0
176
     1
 90
        1
176
     1
 90
        6
176
     1
 90
        2
176
     1
 62
     7
176
     1
 90
        5
176
     1
 90
        0
176
     1
 90
        0
176
     1
290
     0
176
     1
 90
        1
176
     1
 40
0.0
176
     1
 90
        0
176
     1
290
     0
176
     1
290
     1
176
     1
290
     1
176
     1
290
     0
176
     1
290
     0
176
     1
290
     0
176
     1
290
     0
176
     1
290
     0
176
     1
290
     0
176
     1
 90
       50
176
     1
 40
0.0
176
     1
 40
1.0
176
     1
 90
        0
176
     1
 62
    18
420
        0
176
     1
 90
       50
176
     1
 90
        3
176
     1
 62
     5
420
      255
176
     1
290
     0
176
     1
 90
       50
176
     1
 90
       50
176
     1
 90
       50
176
     1
290
     0
176
     1
 90
       50
176
     1
 62
   256
176
     0
 40
1.0
176
     0
 90
        2
176
     1
  1
strokes_ogs.tif
176
     1
290
     0
176
     1
 40
1.0
176
     1
 40
1.0
176
     1
  0
VISUALSTYLE
  5
32
102
{ACAD_REACTORS
330
29
102
}
330
29
100
AcDbVisualStyle
  2
Conceptual
 70
     9
177
     3
291
     0
 70
    58
 90
        3
176
     1
 90
        2
176
     1
 90
        0
176
     1
 90
        0
176
     1
 40
0.6
176
     1
 40
30.0
176
     1
 62
     7
420
 16777215
176
     1
 90
        2
176
     1
 90
        2
176
     1
 62
     7
176
     1
 62
   257
176
     1
 90
        1
176
     1
 90
        1
176
     1
 40
179.0
176
     1
 90
        8
176
     1
 62
     7
176
     1
 40
1.0
176
     1
 90
        1
176
     1
 90
        6
176
     1
 90
        2
176
     1
 62
     7
176
     1
 90
        3
176
     1
 90
        0
176
     1
 90
        0
176
     1
290
     0
176
     1
 90
        1
176
     1
 40
0.0
176
     1
 90
        0
176
     1
290
     0
176
     1
290
     1
176
     1
290
     1
176
     1
290
     0
176
     1
290
     0
176
     1
290
     0
176
     1
290
     0
176
     1
290
     0
176
     1
290
     0
176
     1
 90
       50
176
     1
 40
0.0
176
     1
 40
1.0
176
     1
 90
        0
176
     1
 62
    18
420
        0
176
     1
 90
       50
176
     1
 90
        3
176
     1
 62
     5
420
      255
176
     1
290
     0
176
     1
 90
       50
176
     1
 90
       50
176
     1
 90
       50
176
     1
290
     0
176
     1
 90
       50
176
     1
 62
   256
176
     0
 40
1.0
176
     0
 90
        2
176
     1
  1
strokes_ogs.tif
176
     1
290
     0
176
     1
 40
1.0
176
     1
 40
1.0
176
     1
  0
VISUALSTYLE
  5
34
102
{ACAD_REACTORS
330
29
102
}
330
29
100
AcDbVisualStyle
  2
Dim
 70
    11
177
     3
291
     1
 70
    58
 90
        2
176
     1
 90
        2
176
     1
 90
        0
176
     1
 90
        0
176
     1
 40
0.6
176
     1
 40
30.0
176
     1
 62
     7
420
 16777215
176
     1
 90
        1
176
     1
 90
        4
176
     1
 62
     7
176
     1
 62
   257
176
     1
 90
        1
176
     1
 90
        1
176
     1
 40
1.0
176
     1
 90
        8
176
     1
 62
     7
176
     1
 40
1.0
176
     1
 90
        1
176
     1
 90
        6
176
     1
 90
        2
176
     1
 62
     7
176
     1
 90
        5
176
     1
 90
        0
176
     1
 90
        0
176
     1
290
     0
176
     1
 90
        1
176
     1
 40
-50.0
176
     1
 90
        0
176
     1
290
     0
176
     1
290
     1
176
     1
290
     1
176
     1
290
     0
176
     1
290
     0
176
     1
290
     0
176
     1
290
     0
176
     1
290
     0
176
     1
290
     0
176
     1
 90
       50
176
     1
 40
0.0
176
     1
 40
1.0
176
     1
 90
        0
176
     1
 62
    18
420
        0
176
     1
 90
       50
176
     1
 90
        3
176
     1
 62
     5
420
      255
176
     1
290
     0
176
     1
 90
       50
176
     1
 90
       50
176
     1
 90
       50
176
     1
290
     0
176
     1
 90
       50
176
     1
 62
   256
176
     0
 40
1.0
176
     0
 90
        2
176
     1
  1
strokes_ogs.tif
176
     1
290
     0
176
     1
 40
1.0
176
     1
 40
1.0
176
     1
  0
VISUALSTYLE
  5
41
102
{ACAD_REACTORS
330
29
102
}
330
29
100
AcDbVisualStyle
  2
EdgeColorOff
 70
    22
177
     3
291
     1
 70
    58
 90
        2
176
     0
 90
        2
176
     0
 90
        0
176
     0
 90
        0
176
     0
 40
0.6
176
     0
 40
30.0
176
     0
 62
     7
420
 16777215
176
     0
 90
        1
176
     0
 90
        4
176
     0
 62
     7
176
     0
 62
   257
176
     0
 90
        1
176
     0
 90
        1
176
     0
 40
1.0
176
     0
 90
        8
176
     2
 62
     7
176
     0
 40
1.0
176
     0
 90
        1
176
     0
 90
        6
176
     0
 90
        2
176
     0
 62
     7
176
     0
 90
        5
176
     0
 90
        0
176
     0
 90
        0
176
     0
290
     0
176
     0
 90
        1
176
     0
 40
0.0
176
     0
 90
        0
176
     0
290
     0
176
     0
290
     1
176
     0
290
     1
176
     0
290
     0
176
     0
290
     0
176
     0
290
     0
176
     0
290
     0
176
     0
290
     0
176
     0
290
     0
176
     0
 90
       50
176
     0
 40
0.0
176
     0
 40
1.0
176
     0
 90
        0
176
     0
 62
    18
420
        0
176
     0
 90
       50
176
     0
 90
        3
176
     0
 62
     5
420
      255
176
     0
290
     0
176
     0
 90
       50
176
     0
 90
       50
176
     0
 90
       50
176
     0
290
     0
176
     0
 90
       50
176
     0
 62
   256
176
     0
 40
1.0
176
     0
 90
        2
176
     0
  1
strokes_ogs.tif
176
     0
290
     0
176
     0
 40
1.0
176
     0
 40
1.0
176
     0
  0
VISUALSTYLE
  5
38
102
{ACAD_REACTORS
330
29
102
}
330
29
100
AcDbVisualStyle
  2
Facepattern
 70
    15
177
     3
291
     1
 70
    58
 90
        2
176
     1
 90
        2
176
     1
 90
        0
176
     1
 90
        0
176
     1
 40
0.6
176
     1
 40
30.0
176
     1
 62
     7
420
 16777215
176
     1
 90
        1
176
     1
 90
        4
176
     1
 62
     7
176
     1
 62
   257
176
     1
 90
        1
176
     1
 90
        1
176
     1
 40
1.0
176
     1
 90
        8
176
     1
 62
     7
176
     1
 40
1.0
176
     1
 90
        1
176
     1
 90
        6
176
     1
 90
        2
176
     1
 62
     7
176
     1
 90
        5
176
     1
 90
        0
176
     1
 90
        0
176
     1
290
     0
176
     1
 90
        1
176
     1
 40
0.0
176
     1
 90
        0
176
     1
290
     0
176
     1
290
     1
176
     1
290
     1
176
     1
290
     0
176
     1
290
     0
176
     1
290
     0
176
     1
290
     0
176
     1
290
     0
176
     1
290
     0
176
     1
 90
       50
176
     1
 40
0.0
176
     1
 40
1.0
176
     1
 90
        0
176
     1
 62
    18
420
        0
176
     1
 90
       50
176
     1
 90
        3
176
     1
 62
     5
420
      255
176
     1
290
     0
176
     1
 90
       50
176
     1
 90
       50
176
     1
 90
       50
176
     1
290
     0
176
     1
 90
       50
176
     1
 62
   256
176
     0
 40
1.0
176
     0
 90
        2
176
     1
  1
strokes_ogs.tif
176
     1
290
     0
176
     1
 40
1.0
176
     1
 40
1.0
176
     1
  0
VISUALSTYLE
  5
2A
102
{ACAD_REACTORS
330
29
102
}
330
29
100
AcDbVisualStyle
  2
Flat
 70
     0
177
     3
291
     1
 70
    58
 90
        2
176
     1
 90
        1
176
     1
 90
        1
176
     1
 90
        2
176
     1
 40
0.6
176
     1
 40
30.0
176
     1
 62
     7
420
 16777215
176
     1
 90
        0
176
     1
 90
        0
176
     1
 62
     7
176
     1
 62
   257
176
     1
 90
        1
176
     1
 90
        1
176
     1
 40
1.0
176
     1
 90
        8
176
     1
 62
     7
176
     1
 40
1.0
176
     1
 90
        1
176
     1
 90
        6
176
     1
 90
        2
176
     1
 62
     7
176
     1
 90
        5
176
     1
 90
        0
176
     1
 90
        0
176
     1
290
     0
176
     1
 90
       13
176
     1
 40
0.0
176
     1
 90
        0
176
     1
290
     0
176
     1
290
     1
176
     1
290
     1
176
     1
290
     0
176
     1
290
     0
176
     1
290
     0
176
     1
290
     0
176
     1
290
     0
176
     1
290
     0
176
     1
 90
       50
176
     1
 40
0.0
176
     1
 40
1.0
176
     1
 90
        0
176
     1
 62
    18
420
        0
176
     1
 90
       50
176
     1
 90
        3
176
     1
 62
     5
420
      255
176
     1
290
     0
176
     1
 90
       50
176
     1
 90
       50
176
     1
 90
       50
176
     1
290
     0
176
     1
 90
       50
176
     1
 62
   256
176
     0
 40
1.0
176
     0
 90
        2
176
     1
  1
strokes_ogs.tif
176
     1
290
     0
176
     1
 40
1.0
176
     1
 40
1.0
176
     1
  0
VISUALSTYLE
  5
2B
102
{ACAD_REACTORS
330
29
102
}
330
29
100
AcDbVisualStyle
  2
FlatWithEdges
 70
     1
177
     3
291
     1
 70
    58
 90
        2
176
     1
 90
        1
176
     1
 90
        1
176
     1
 90
        2
176
     1
 40
0.6
176
     1
 40
30.0
176
     1
 62
     7
420
 16777215
176
     1
 90
        1
176
     1
 90
        0
176
     1
 62
     7
176
     1
 62
   257
176
     1
 90
        1
176
     1
 90
        1
176
     1
 40
1.0
176
     1
 90
        0
176
     1
 62
   257
176
     1
 40
1.0
176
     1
 90
        1
176
     1
 90
        6
176
     1
 90
        2
176
     1
 62
     7
176
     1
 90
        5
176
     1
 90
        0
176
     1
 90
        0
176
     1
290
     0
176
     1
 90
       13
176
     1
 40
0.0
176
     1
 90
        0
176
     1
290
     0
176
     1
290
     1
176
     1
290
     1
176
     1
290
     0
176
     1
290
     0
176
     1
290
     0
176
     1
290
     0
176
     1
290
     0
176
     1
290
     0
176
     1
 90
       50
176
     1
 40
0.0
176
     1
 40
1.0
176
     1
 90
        0
176
     1
 62
    18
420
        0
176
     1
 90
       50
176
     1
 90
        3
176
     1
 62
     5
420
      255
176
     1
290
     0
176
     1
 90
       50
176
     1
 90
       50
176
     1
 90
       50
176
     1
290
     0
176
     1
 90
       50
176
     1
 62
   256
176
     0
 40
1.0
176
     0
 90
        2
176
     1
  1
strokes_ogs.tif
176
     1
290
     0
176
     1
 40
1.0
176
     1
 40
1.0
176
     1
  0
VISUALSTYLE
  5
2C
102
{ACAD_REACTORS
330
29
102
}
330
29
100
AcDbVisualStyle
  2
Gouraud
 70
     2
177
     3
291
     1
 70
    58
 90
        2
176
     1
 90
        2
176
     1
 90
        1
176
     1
 90
        2
176
     1
 40
0.6
176
     1
 40
30.0
176
     1
 62
     7
420
 16777215
176
     1
 90
        0
176
     1
 90
        0
176
     1
 62
     7
176
     1
 62
   257
176
     1
 90
        1
176
     1
 90
        1
176
     1
 40
1.0
176
     1
 90
        0
176
     1
 62
     7
176
     1
 40
1.0
176
     1
 90
        1
176
     1
 90
        6
176
     1
 90
        2
176
     1
 62
     7
176
     1
 90
        5
176
     1
 90
        0
176
     1
 90
        0
176
     1
290
     0
176
     1
 90
       13
176
     1
 40
0.0
176
     1
 90
        0
176
     1
290
     0
176
     1
290
     1
176
     1
290
     1
176
     1
290
     0
176
     1
290
     0
176
     1
290
     0
176
     1
290
     0
176
     1
290
     0
176
     1
290
     0
176
     1
 90
       50
176
     1
 40
0.0
176
     1
 40
1.0
176
     1
 90
        0
176
     1
 62
    18
420
        0
176
     1
 90
       50
176
     1
 90
        3
176
     1
 62
     5
420
      255
176
     1
290
     0
176
     1
 90
       50
176
     1
 90
       50
176
     1
 90
       50
176
     1
290
     0
176
     1
 90
       50
176
     1
 62
   256
176
     0
 40
1.0
176
     0
 90
        2
176
     1
  1
strokes_ogs.tif
176
     1
290
     0
176
     1
 40
1.0
176
     1
 40
1.0
176
     1
  0
VISUALSTYLE
  5
2D
102
{ACAD_REACTORS
330
29
102
}
330
29
100
AcDbVisualStyle
  2
GouraudWithEdges
 70
     3
177
     3
291
     1
 70
    58
 90
        2
176
     1
 90
        2
176
     1
 90
        1
176
     1
 90
        2
176
     1
 40
0.6
176
     1
 40
30.0
176
     1
 62
     7
420
 16777215
176
     1
 90
        1
176
     1
 90
        0
176
     1
 62
     7
176
     1
 62
   257
176
     1
 90
        1
176
     1
 90
        1
176
     1
 40
1.0
176
     1
 90
        0
176
     1
 62
   257
176
     1
 40
1.0
176
     1
 90
        1
176
     1
 90
        6
176
     1
 90
        2
176
     1
 62
     7
176
     1
 90
        5
176
     1
 90
        0
176
     1
 90
        0
176
     1
290
     0
176
     1
 90
       13
176
     1
 40
0.0
176
     1
 90
        0
176
     1
290
     0
176
     1
290
     1
176
     1
290
     1
176
     1
290
     0
176
     1
290
     0
176
     1
290
     0
176
     1
290
     0
176
     1
290
     0
176
     1
290
     0
176
     1
 90
       50
176
     1
 40
0.0
176
     1
 40
1.0
176
     1
 90
        0
176
     1
 62
    18
420
        0
176
     1
 90
       50
176
     1
 90
        3
176
     1
 62
     5
420
      255
176
     1
290
     0
176
     1
 90
       50
176
     1
 90
       50
176
     1
 90
       50
176
     1
290
     0
176
     1
 90
       50
176
     1
 62
   256
176
     0
 40
1.0
176
     0
 90
        2
176
     1
  1
strokes_ogs.tif
176
     1
290
     0
176
     1
 40
1.0
176
     1
 40
1.0
176
     1
  0
VISUALSTYLE
  5
31
102
{ACAD_REACTORS
330
29
102
}
330
29
100
AcDbVisualStyle
  2
Hidden
 70
     6
177
     3
291
     0
 70
    58
 90
        1
176
     1
 90
        2
176
     1
 90
        2
176
     1
 90
        0
176
     1
 40
0.6
176
     1
 40
30.0
176
     1
 62
     7
420
 16777215
176
     1
 90
        2
176
     1
 90
        2
176
     1
 62
     7
176
     1
 62
   257
176
     1
 90
        2
176
     1
 90
        1
176
     1
 40
40.0
176
     1
 90
        0
176
     1
 62
   257
176
     1
 40
1.0
176
     1
 90
        1
176
     1
 90
        6
176
     1
 90
        2
176
     1
 62
     7
176
     1
 90
        3
176
     1
 90
        0
176
     1
 90
        0
176
     1
290
     0
176
     1
 90
        1
176
     1
 40
0.0
176
     1
 90
        0
176
     1
290
     0
176
     1
290
     1
176
     1
290
     1
176
     1
290
     0
176
     1
290
     0
176
     1
290
     0
176
     1
290
     0
176
     1
290
     0
176
     1
290
     0
176
     1
 90
       50
176
     1
 40
0.0
176
     1
 40
1.0
176
     1
 90
        0
176
     1
 62
    18
420
        0
176
     1
 90
       50
176
     1
 90
        3
176
     1
 62
     5
420
      255
176
     1
290
     0
176
     1
 90
       50
176
     1
 90
       50
176
     1
 90
       50
176
     1
290
     0
176
     1
 90
       50
176
     1
 62
   256
176
     0
 40
1.0
176
     0
 90
        2
176
     1
  1
strokes_ogs.tif
176
     1
290
     0
176
     1
 40
1.0
176
     1
 40
1.0
176
     1
  0
VISUALSTYLE
  5
3F
102
{ACAD_REACTORS
330
29
102
}
330
29
100
AcDbVisualStyle
  2
JitterOff
 70
    20
177
     3
291
     1
 70
    58
 90
        2
176
     0
 90
        2
176
     0
 90
        0
176
     0
 90
        0
176
     0
 40
0.6
176
     0
 40
30.0
176
     0
 62
     7
420
 16777215
176
     0
 90
        1
176
     0
 90
        4
176
     0
 62
     7
176
     0
 62
   257
176
     0
 90
        1
176
     0
 90
        1
176
     0
 40
1.0
176
     0
 90
       10
176
     2
 62
     7
176
     0
 40
1.0
176
     0
 90
        1
176
     0
 90
        6
176
     0
 90
        2
176
     0
 62
     7
176
     0
 90
        5
176
     0
 90
        0
176
     0
 90
        0
176
     0
290
     0
176
     0
 90
        1
176
     0
 40
0.0
176
     0
 90
        0
176
     0
290
     0
176
     0
290
     1
176
     0
290
     1
176
     0
290
     0
176
     0
290
     0
176
     0
290
     0
176
     0
290
     0
176
     0
290
     0
176
     0
290
     0
176
     0
 90
       50
176
     0
 40
0.0
176
     0
 40
1.0
176
     0
 90
        0
176
     0
 62
    18
420
        0
176
     0
 90
       50
176
     0
 90
        3
176
     0
 62
     5
420
      255
176
     0
290
     0
176
     0
 90
       50
176
     0
 90
       50
176
     0
 90
       50
176
     0
290
     0
176
     0
 90
       50
176
     0
 62
   256
176
     0
 40
1.0
176
     0
 90
        2
176
     0
  1
strokes_ogs.tif
176
     0
290
     0
176
     0
 40
1.0
176
     0
 40
1.0
176
     0
  0
VISUALSTYLE
  5
37
102
{ACAD_REACTORS
330
29
102
}
330
29
100
AcDbVisualStyle
  2
Linepattern
 70
    14
177
     3
291
     1
 70
    58
 90
        2
176
     1
 90
        2
176
     1
 90
        0
176
     1
 90
        0
176
     1
 40
0.6
176
     1
 40
30.0
176
     1
 62
     7
420
 16777215
176
     1
 90
        1
176
     1
 90
        4
176
     1
 62
     7
176
     1
 62
   257
176
     1
 90
        7
176
     1
 90
        7
176
     1
 40
1.0
176
     1
 90
        8
176
     1
 62
     7
176
     1
 40
1.0
176
     1
 90
        1
176
     1
 90
        6
176
     1
 90
        2
176
     1
 62
     7
176
     1
 90
        5
176
     1
 90
        0
176
     1
 90
        0
176
     1
290
     0
176
     1
 90
        1
176
     1
 40
0.0
176
     1
 90
        0
176
     1
290
     0
176
     1
290
     1
176
     1
290
     1
176
     1
290
     0
176
     1
290
     0
176
     1
290
     0
176
     1
290
     0
176
     1
290
     0
176
     1
290
     0
176
     1
 90
       50
176
     1
 40
0.0
176
     1
 40
1.0
176
     1
 90
        0
176
     1
 62
    18
420
        0
176
     1
 90
       50
176
     1
 90
        3
176
     1
 62
     5
420
      255
176
     1
290
     0
176
     1
 90
       50
176
     1
 90
       50
176
     1
 90
       50
176
     1
290
     0
176
     1
 90
       50
176
     1
 62
   256
176
     0
 40
1.0
176
     0
 90
        2
176
     1
  1
strokes_ogs.tif
176
     1
290
     0
176
     1
 40
1.0
176
     1
 40
1.0
176
     1
  0
VISUALSTYLE
  5
40
102
{ACAD_REACTORS
330
29
102
}
330
29
100
AcDbVisualStyle
  2
OverhangOff
 70
    21
177
     3
291
     1
 70
    58
 90
        2
176
     0
 90
        2
176
     0
 90
        0
176
     0
 90
        0
176
     0
 40
0.6
176
     0
 40
30.0
176
     0
 62
     7
420
 16777215
176
     0
 90
        1
176
     0
 90
        4
176
     0
 62
     7
176
     0
 62
   257
176
     0
 90
        1
176
     0
 90
        1
176
     0
 40
1.0
176
     0
 90
        9
176
     2
 62
     7
176
     0
 40
1.0
176
     0
 90
        1
176
     0
 90
        6
176
     0
 90
        2
176
     0
 62
     7
176
     0
 90
        5
176
     0
 90
        0
176
     0
 90
        0
176
     0
290
     0
176
     0
 90
        1
176
     0
 40
0.0
176
     0
 90
        0
176
     0
290
     0
176
     0
290
     1
176
     0
290
     1
176
     0
290
     0
176
     0
290
     0
176
     0
290
     0
176
     0
290
     0
176
     0
290
     0
176
     0
290
     0
176
     0
 90
       50
176
     0
 40
0.0
176
     0
 40
1.0
176
     0
 90
        0
176
     0
 62
    18
420
        0
176
     0
 90
       50
176
     0
 90
        3
176
     0
 62
     5
420
      255
176
     0
290
     0
176
     0
 90
       50
176
     0
 90
       50
176
     0
 90
       50
176
     0
290
     0
176
     0
 90
       50
176
     0
 62
   256
176
     0
 40
1.0
176
     0
 90
        2
176
     0
  1
strokes_ogs.tif
176
     0
290
     0
176
     0
 40
1.0
176
     0
 40
1.0
176
     0
  0
VISUALSTYLE
  5
33
102
{ACAD_REACTORS
330
29
102
}
330
29
100
AcDbVisualStyle
  2
Realistic
 70
     8
177
     3
291
     0
 70
    58
 90
        2
176
     1
 90
        3
176
     1
 90
        0
176
     1
 90
        2
176
     1
 40
0.6
176
     1
 40
30.0
176
     1
 62
     7
420
 16777215
176
     1
 90
        0
176
     1
 90
        0
176
     1
 62
     7
176
     1
 62
   257
176
     1
 90
        1
176
     1
 90
        1
176
     1
 40
1.0
176
     1
 90
        8
176
     1
 62
   257
176
     1
 40
1.0
176
     1
 90
        1
176
     1
 90
        6
176
     1
 90
        2
176
     1
 62
     7
176
     1
 90
        3
176
     1
 90
        0
176
     1
 90
        0
176
     1
290
     0
176
     1
 90
       13
176
     1
 40
0.0
176
     1
 90
        0
176
     1
290
     0
176
     1
290
     1
176
     1
290
     1
176
     1
290
     0
176
     1
290
     0
176
     1
290
     0
176
     1
290
     0
176
     1
290
     0
176
     1
290
     0
176
     1
 90
       50
176
     1
 40
0.0
176
     1
 40
1.0
176
     1
 90
        0
176
     1
 62
    18
420
        0
176
     1
 90
       50
176
     1
 90
        3
176
     1
 62
     5
420
      255
176
     1
290
     0
176
     1
 90
       50
176
     1
 90
       50
176
     1
 90
       50
176
     1
290
     0
176
     1
 90
       50
176
     1
 62
   256
176
     0
 40
1.0
176
     0
 90
        2
176
     1
  1
strokes_ogs.tif
176
     1
290
     0
176
     1
 40
1.0
176
     1
 40
1.0
176
     1
  0
VISUALSTYLE
  5
3E
102
{ACAD_REACTORS
330
29
102
}
330
29
100
AcDbVisualStyle
  2
Shaded
 70
    27
177
     3
291
     0
 70
    58
 90
        2
176
     1
 90
        2
176
     1
 90
        1
176
     1
 90
        2
176
     1
 40
0.6
176
     1
 40
30.0
176
     1
 62
     7
420
 16777215
176
     1
 90
        0
176
     1
 90
        4
176
     1
 62
     7
176
     1
 62
   257
176
     1
 90
        1
176
     1
 90
        1
176
     1
 40
1.0
176
     1
 90
        8
176
     1
 62
   257
176
     1
 40
1.0
176
     1
 90
        1
176
     1
 90
        6
176
     1
 90
        2
176
     1
 62
     8
420
  7895160
176
     1
 90
        3
176
     1
 90
        0
176
     1
 90
        0
176
     1
290
     0
176
     1
 90
        5
176
     1
 40
0.0
176
     1
 90
        0
176
     1
290
     0
176
     1
290
     1
176
     1
290
     1
176
     1
290
     0
176
     1
290
     0
176
     1
290
     0
176
     1
290
     0
176
     1
290
     0
176
     1
290
     0
176
     1
 90
       50
176
     1
 40
0.0
176
     1
 40
1.0
176
     1
 90
        0
176
     1
 62
    18
420
        0
176
     1
 90
       50
176
     1
 90
        3
176
     1
 62
     5
420
      255
176
     1
290
     0
176
     1
 90
       50
176
     1
 90
       50
176
     1
 90
       50
176
     1
290
     0
176
     1
 90
       50
176
     1
 62
   256
176
     0
 40
1.0
176
     0
 90
        2
176
     1
  1
strokes_ogs.tif
176
     1
290
     0
176
     1
 40
1.0
176
     1
 40
1.0
176
     1
  0
VISUALSTYLE
  5
3D
102
{ACAD_REACTORS
330
29
102
}
330
29
100
AcDbVisualStyle
  2
Shaded with edges
 70
    26
177
     3
291
     0
 70
    58
 90
        2
176
     1
 90
        2
176
     1
 90
        1
176
     1
 90
        2
176
     1
 40
0.6
176
     1
 40
30.0
176
     1
 62
     7
420
 16777215
176
     1
 90
        1
176
     1
 90
        2
176
     1
 62
     7
176
     1
 62
   257
176
     1
 90
        2
176
     1
 90
        1
176
     1
 40
1.0
176
     1
 90
        8
176
     1
 62
   257
176
     1
 40
1.0
176
     1
 90
        1
176
     1
 90
        6
176
     1
 90
        2
176
     1
 62
     7
176
     1
 90
        3
176
     1
 90
        0
176
     1
 90
        0
176
     1
290
     0
176
     1
 90
        5
176
     1
 40
0.0
176
     1
 90
        0
176
     1
290
     0
176
     1
290
     1
176
     1
290
     1
176
     1
290
     0
176
     1
290
     0
176
     1
290
     0
176
     1
290
     0
176
     1
290
     0
176
     1
290
     0
176
     1
 90
       50
176
     1
 40
0.0
176
     1
 40
1.0
176
     1
 90
        0
176
     1
 62
    18
420
        0
176
     1
 90
       50
176
     1
 90
        3
176
     1
 62
     5
420
      255
176
     1
290
     0
176
     1
 90
       50
176
     1
 90
       50
176
     1
 90
       50
176
     1
290
     0
176
     1
 90
       50
176
     1
 62
   256
176
     0
 40
1.0
176
     0
 90
        2
176
     1
  1
strokes_ogs.tif
176
     1
290
     0
176
     1
 40
1.0
176
     1
 40
1.0
176
     1
  0
VISUALSTYLE
  5
3A
102
{ACAD_REACTORS
330
29
102
}
330
29
100
AcDbVisualStyle
  2
Shades of Gray
 70
    23
177
     3
291
     0
 70
    58
 90
        2
176
     1
 90
        2
176
     1
 90
        3
176
     1
 90
        0
176
     1
 40
0.6
176
     1
 40
30.0
176
     1
 62
     7
420
 16777215
176
     1
 90
        2
176
     1
 90
        2
176
     1
 62
     7
176
     1
 62
     7
176
     1
 90
        1
176
     1
 90
        1
176
     1
 40
40.0
176
     1
 90
        8
176
     1
 62
     7
176
     1
 40
1.0
176
     1
 90
        1
176
     1
 90
        6
176
     1
 90
        2
176
     1
 62
     7
176
     1
 90
        3
176
     1
 90
        0
176
     1
 90
        0
176
     1
290
     0
176
     1
 90
        1
176
     1
 40
0.0
176
     1
 90
        0
176
     1
290
     0
176
     1
290
     1
176
     1
290
     1
176
     1
290
     0
176
     1
290
     0
176
     1
290
     0
176
     1
290
     0
176
     1
290
     0
176
     1
290
     0
176
     1
 90
       50
176
     1
 40
0.0
176
     1
 40
1.0
176
     1
 90
        0
176
     1
 62
    18
420
        0
176
     1
 90
       50
176
     1
 90
        3
176
     1
 62
     5
420
      255
176
     1
290
     0
176
     1
 90
       50
176
     1
 90
       50
176
     1
 90
       50
176
     1
290
     0
176
     1
 90
       50
176
     1
 62
   256
176
     0
 40
1.0
176
     0
 90
        2
176
     1
  1
strokes_ogs.tif
176
     1
290
     0
176
     1
 40
1.0
176
     1
 40
1.0
176
     1
  0
VISUALSTYLE
  5
3B
102
{ACAD_REACTORS
330
29
102
}
330
29
100
AcDbVisualStyle
  2
Sketchy
 70
    24
177
     3
291
     0
 70
    58
 90
        1
176
     1
 90
        2
176
     1
 90
        2
176
     1
 90
        0
176
     1
 40
0.6
176
     1
 40
30.0
176
     1
 62
     7
420
 16777215
176
     1
 90
        2
176
     1
 90
        2
176
     1
 62
     7
176
     1
 62
     7
176
     1
 90
        1
176
     1
 90
        1
176
     1
 40
40.0
176
     1
 90
       11
176
     1
 62
     7
176
     1
 40
1.0
176
     1
 90
        1
176
     1
 90
        6
176
     1
 90
        2
176
     1
 62
     7
176
     1
 90
        6
176
     1
 90
        0
176
     1
 90
        0
176
     1
290
     0
176
     1
 90
        1
176
     1
 40
0.0
176
     1
 90
        0
176
     1
290
     0
176
     1
290
     1
176
     1
290
     1
176
     1
290
     0
176
     1
290
     0
176
     1
290
     0
176
     1
290
     0
176
     1
290
     0
176
     1
290
     0
176
     1
 90
       50
176
     1
 40
0.0
176
     1
 40
1.0
176
     1
 90
        0
176
     1
 62
    18
420
        0
176
     1
 90
       50
176
     1
 90
        3
176
     1
 62
     5
420
      255
176
     1
290
     0
176
     1
 90
       50
176
     1
 90
       50
176
     1
 90
       50
176
     1
290
     0
176
     1
 90
       50
176
     1
 62
   256
176
     0
 40
1.0
176
     0
 90
        2
176
     1
  1
strokes_ogs.tif
176
     1
290
     0
176
     1
 40
1.0
176
     1
 40
1.0
176
     1
  0
VISUALSTYLE
  5
36
102
{ACAD_REACTORS
330
29
102
}
330
29
100
AcDbVisualStyle
  2
Thicken
 70
    13
177
     3
291
     1
 70
    58
 90
        2
176
     1
 90
        2
176
     1
 90
        0
176
     1
 90
        0
176
     1
 40
0.6
176
     1
 40
30.0
176
     1
 62
     7
420
 16777215
176
     1
 90
        1
176
     1
 90
        4
176
     1
 62
     7
176
     1
 62
   257
176
     1
 90
        1
176
     1
 90
        1
176
     1
 40
1.0
176
     1
 90
       12
176
     1
 62
     7
176
     1
 40
1.0
176
     1
 90
        1
176
     1
 90
        6
176
     1
 90
        2
176
     1
 62
     7
176
     1
 90
        5
176
     1
 90
        0
176
     1
 90
        0
176
     1
290
     0
176
     1
 90
        1
176
     1
 40
0.0
176
     1
 90
        0
176
     1
290
     0
176
     1
290
     1
176
     1
290
     1
176
     1
290
     0
176
     1
290
     0
176
     1
290
     0
176
     1
290
     0
176
     1
290
     0
176
     1
290
     0
176
     1
 90
       50
176
     1
 40
0.0
176
     1
 40
1.0
176
     1
 90
        0
176
     1
 62
    18
420
        0
176
     1
 90
       50
176
     1
 90
        3
176
     1
 62
     5
420
      255
176
     1
290
     0
176
     1
 90
       50
176
     1
 90
       50
176
     1
 90
       50
176
     1
290
     0
176
     1
 90
       50
176
     1
 62
   256
176
     0
 40
1.0
176
     0
 90
        2
176
     1
  1
strokes_ogs.tif
176
     1
290
     0
176
     1
 40
1.0
176
     1
 40
1.0
176
     1
  0
VISUALSTYLE
  5
30
102
{ACAD_REACTORS
330
29
102
}
330
29
100
AcDbVisualStyle
  2
Wireframe
 70
     5
177
     3
291
     0
 70
    58
 90
        0
176
     1
 90
        2
176
     1
 90
        0
176
     1
 90
        0
176
     1
 40
0.6
176
     1
 40
30.0
176
     1
 62
     7
420
 16777215
176
     1
 90
        1
176
     1
 90
        4
176
     1
 62
     7
176
     1
 62
   257
176
     1
 90
        1
176
     1
 90
        1
176
     1
 40
1.0
176
     1
 90
        0
176
     1
 62
   257
176
     1
 40
1.0
176
     1
 90
        1
176
     1
 90
        6
176
     1
 90
        2
176
     1
 62
     7
176
     1
 90
        3
176
     1
 90
        0
176
     1
 90
        0
176
     1
290
     0
176
     1
 90
        1
176
     1
 40
0.0
176
     1
 90
        0
176
     1
290
     0
176
     1
290
     1
176
     1
290
     1
176
     1
290
     0
176
     1
290
     0
176
     1
290
     0
176
     1
290
     0
176
     1
290
     0
176
     1
290
     0
176
     1
 90
       50
176
     1
 40
0.0
176
     1
 40
1.0
176
     1
 90
        0
176
     1
 62
    18
420
        0
176
     1
 90
       50
176
     1
 90
        3
176
     1
 62
     5
420
      255
176
     1
290
     0
176
     1
 90
       50
176
     1
 90
       50
176
     1
 90
       50
176
     1
290
     0
176
     1
 90
       50
176
     1
 62
   256
176
     0
 40
1.0
176
     0
 90
        2
176
     1
  1
strokes_ogs.tif
176
     1
290
     0
176
     1
 40
1.0
176
     1
 40
1.0
176
     1
  0
VISUALSTYLE
  5
3C
102
{ACAD_REACTORS
330
29
102
}
330
29
100
AcDbVisualStyle
  2
X-Ray
 70
    25
177
     3
291
     0
 70
    58
 90
        2
176
     1
 90
        2
176
     1
 90
        1
176
     1
 90
        1
176
     1
 40
0.5
176
     1
 40
30.0
176
     1
 62
     7
420
 16777215
176
     1
 90
        1
176
     1
 90
        0
176
     1
 62
     7
176
     1
 62
   257
176
     1
 90
        1
176
     1
 90
        1
176
     1
 40
1.0
176
     1
 90
        8
176
     1
 62
     7
176
     1
 40
1.0
176
     1
 90
        1
176
     1
 90
        6
176
     1
 90
        2
176
     1
 62
     7
176
     1
 90
        3
176
     1
 90
        0
176
     1
 90
        0
176
     1
290
     0
176
     1
 90
       13
176
     1
 40
0.0
176
     1
 90
        0
176
     1
290
     0
176
     1
290
     1
176
     1
290
     1
176
     1
290
     0
176
     1
290
     0
176
     1
290
     0
176
     1
290
     0
176
     1
290
     0
176
     1
290
     0
176
     1
 90
       50
176
     1
 40
0.0
176
     1
 40
1.0
176
     1
 90
        0
176
     1
 62
    18
420
        0
176
     1
 90
       50
176
     1
 90
        3
176
     1
 62
     5
420
      255
176
     1
290
     0
176
     1
 90
       50
176
     1
 90
       50
176
     1
 90
       50
176
     1
290
     0
176
     1
 90
       50
176
     1
 62
   256
176
     0
 40
1.0
176
     0
 90
        2
176
     1
  1
strokes_ogs.tif
176
     1
290
     0
176
     1
 40
1.0
176
     1
 40
1.0
176
     1
  0
DICTIONARYVAR
  5
98
102
{ACAD_REACTORS
330
93
102
}
330
93
100
DictionaryVariables
280
     0
  1
1:1
  0
DICTIONARYVAR
  5
95
102
{ACAD_REACTORS
330
93
102
}
330
93
100
DictionaryVariables
280
     0
  1
STANDARD
  0
DICTIONARYVAR
  5
94
102
{ACAD_REACTORS
330
93
102
}
330
93
100
DictionaryVariables
280
     0
  1
STANDARD
  0
DICTIONARYVAR
  5
96
102
{ACAD_REACTORS
330
93
102
}
330
93
100
DictionaryVariables
280
     0
  1
Imperial24
  0
DICTIONARYVAR
  5
97
102
{ACAD_REACTORS
330
93
102
}
330
93
100
DictionaryVariables
280
     0
  1
Imperial24
  0
DICTIONARY
  5
1A
330
19
100
AcDbDictionary
280
     1
281
     1
  3
BUMPTILE
360
1C
  3
DIFFUSETILE
360
1B
  3
OPACITYTILE
360
1F
  3
REFLECTIONTILE
360
1E
  3
REFRACTIONTILE
360
20
  3
SPECULARTILE
360
1D
  0
DICTIONARY
  5
12
330
11
100
AcDbDictionary
280
     1
281
     1
  3
BUMPTILE
360
14
  3
DIFFUSETILE
360
13
  3
OPACITYTILE
360
17
  3
REFLECTIONTILE
360
16
  3
REFRACTIONTILE
360
18
  3
SPECULARTILE
360
15
  0
DICTIONARY
  5
22
330
21
100
AcDbDictionary
280
     1
281
     1
  3
BUMPTILE
360
24
  3
DIFFUSETILE
360
23
  3
OPACITYTILE
360
27
  3
REFLECTIONTILE
360
26
  3
REFRACTIONTILE
360
28
  3
SPECULARTILE
360
25
  0
DICTIONARY
  5
99
330
65
100
AcDbDictionary
280
     1
281
     1
  3
ACAD_ROUNDTRIP_2008_TABLESTYLE_CELLSTYLEMAP
360
9A
  0
XRECORD
  5
1C
102
{ACAD_REACTORS
330
1A
102
}
330
1A
100
AcDbXrecord
280
     1
270
     1
271
     1
  0
XRECORD
  5
1B
102
{ACAD_REACTORS
330
1A
102
}
330
1A
100
AcDbXrecord
280
     1
270
     1
271
     1
  0
XRECORD
  5
1F
102
{ACAD_REACTORS
330
1A
102
}
330
1A
100
AcDbXrecord
280
     1
270
     1
271
     1
  0
XRECORD
  5
1E
102
{ACAD_REACTORS
330
1A
102
}
330
1A
100
AcDbXrecord
280
     1
270
     1
271
     1
  0
XRECORD
  5
20
102
{ACAD_REACTORS
330
1A
102
}
330
1A
100
AcDbXrecord
280
     1
270
     1
271
     1
  0
XRECORD
  5
1D
102
{ACAD_REACTORS
330
1A
102
}
330
1A
100
AcDbXrecord
280
     1
270
     1
271
     1
  0
XRECORD
  5
14
102
{ACAD_REACTORS
330
12
102
}
330
12
100
AcDbXrecord
280
     1
270
     1
271
     1
  0
XRECORD
  5
13
102
{ACAD_REACTORS
330
12
102
}
330
12
100
AcDbXrecord
280
     1
270
     1
271
     1
  0
XRECORD
  5
17
102
{ACAD_REACTORS
330
12
102
}
330
12
100
AcDbXrecord
280
     1
270
     1
271
     1
  0
XRECORD
  5
16
102
{ACAD_REACTORS
330
12
102
}
330
12
100
AcDbXrecord
280
     1
270
     1
271
     1
  0
XRECORD
  5
18
102
{ACAD_REACTORS
330
12
102
}
330
12
100
AcDbXrecord
280
     1
270
     1
271
     1
  0
XRECORD
  5
15
102
{ACAD_REACTORS
330
12
102
}
330
12
100
AcDbXrecord
280
     1
270
     1
271
     1
  0
XRECORD
  5
24
102
{ACAD_REACTORS
330
22
102
}
330
22
100
AcDbXrecord
280
     1
270
     1
271
     1
  0
XRECORD
  5
23
102
{ACAD_REACTORS
330
22
102
}
330
22
100
AcDbXrecord
280
     1
270
     1
271
     1
  0
XRECORD
  5
27
102
{ACAD_REACTORS
330
22
102
}
330
22
100
AcDbXrecord
280
     1
270
     1
271
     1
  0
XRECORD
  5
26
102
{ACAD_REACTORS
330
22
102
}
330
22
100
AcDbXrecord
280
     1
270
     1
271
     1
  0
XRECORD
  5
28
102
{ACAD_REACTORS
330
22
102
}
330
22
100
AcDbXrecord
280
     1
270
     1
271
     1
  0
XRECORD
  5
25
102
{ACAD_REACTORS
330
22
102
}
330
22
100
AcDbXrecord
280
     1
270
     1
271
     1
  0
CELLSTYLEMAP
  5
9A
102
{ACAD_REACTORS
330
99
102
}
330
99
100
AcDbCellStyleMap
 90
        3
300
CELLSTYLE
  1
TABLEFORMAT_BEGIN
 90
        5
170
     1
 91
        0
 92
    32768
 62
   257
 93
        1
300
CONTENTFORMAT
  1
CONTENTFORMAT_BEGIN
 90
        0
 91
        0
 92
      512
 93
        0
300

 40
0.0
140
1.0
 94
        5
 62
     0
340
55
144
0.25
309
CONTENTFORMAT_END
171
     0
 94
        0
309
TABLEFORMAT_END
  1
CELLSTYLE_BEGIN
 90
        1
 91
        1
300
_TITLE
309
CELLSTYLE_END
300
CELLSTYLE
  1
TABLEFORMAT_BEGIN
 90
        5
170
     1
 91
        0
 92
        0
 62
   257
 93
        1
300
CONTENTFORMAT
  1
CONTENTFORMAT_BEGIN
 90
        0
 91
        0
 92
      512
 93
        0
300

 40
0.0
140
1.0
 94
        5
 62
     0
340
55
144
0.18
309
CONTENTFORMAT_END
171
     0
 94
        0
309
TABLEFORMAT_END
  1
CELLSTYLE_BEGIN
 90
        2
 91
        1
300
_HEADER
309
CELLSTYLE_END
300
CELLSTYLE
  1
TABLEFORMAT_BEGIN
 90
        5
170
     1
 91
        0
 92
        0
 62
   257
 93
        1
300
CONTENTFORMAT
  1
CONTENTFORMAT_BEGIN
 90
        0
 91
        0
 92
      512
 93
        0
300

 40
0.0
140
1.0
 94
        2
 62
     0
340
55
144
0.18
309
CONTENTFORMAT_END
171
     0
 94
        0
309
TABLEFORMAT_END
  1
CELLSTYLE_BEGIN
 90
        3
 91
        2
300
_DATA
309
CELLSTYLE_END
  0
ENDSEC
  0
EOF
