M48
; DRILL file {KiCad 8.0.4} date 2024-08-25T15:35:27+0200
; FORMAT={-:-/ absolute / inch / decimal}
; #@! TF.CreationDate,2024-08-25T15:35:27+02:00
; #@! TF.GenerationSoftware,Kicad,Pcbnew,8.0.4
; #@! TF.FileFunction,Plated,1,2,PTH
FMAT,2
INCH
; #@! TA.AperFunction,Plated,PTH,ViaDrill
T1C0.0157
; #@! TA.AperFunction,Plated,PTH,ComponentDrill
T2C0.0236
; #@! TA.AperFunction,Plated,PTH,ComponentDrill
T3C0.0315
; #@! TA.AperFunction,Plated,PTH,ComponentDrill
T4C0.0354
; #@! TA.AperFunction,Plated,PTH,ComponentDrill
T5C0.0390
; #@! TA.AperFunction,Plated,PTH,ComponentDrill
T6C0.0394
; #@! TA.AperFunction,Plated,PTH,ComponentDrill
T7C0.0433
; #@! TA.AperFunction,Plated,PTH,ComponentDrill
T8C0.0512
; #@! TA.AperFunction,Plated,PTH,ComponentDrill
T9C0.0551
; #@! TA.AperFunction,Plated,PTH,ComponentDrill
T10C0.0630
%
G90
G05
T1
X3.19Y-3.18
X3.19Y-3.25
X3.19Y-3.41
X3.25Y-3.16
X3.27Y-4.36
X3.27Y-4.42
X3.27Y-4.48
X3.3Y-4.33
X3.3Y-4.39
X3.3Y-4.45
X3.33Y-4.36
X3.33Y-4.42
X3.33Y-4.48
X3.35Y-3.25
X3.35Y-3.41
X3.36Y-4.33
X3.41Y-3.16
X3.42Y-4.33
X3.48Y-4.33
X3.5Y-3.25
X3.5Y-3.41
X3.57Y-4.42
X3.57Y-4.48
X3.58Y-3.16
X3.6Y-4.45
X3.63Y-4.48
X3.65Y-3.25
X3.65Y-3.41
X3.66Y-4.45
X3.73Y-3.16
X3.8Y-3.25
X3.8Y-3.41
X3.81Y-3.16
X3.8251Y-2.9169
X3.86Y-2.78
X3.9Y-3.16
X3.95Y-3.25
X3.95Y-3.41
X4.08Y-2.93
X4.1Y-3.2
X4.1Y-3.25
X4.1Y-3.42
X4.1076Y-2.7366
X4.12Y-2.91
X4.13Y-2.98
X4.2238Y-2.8416
X4.25Y-3.19
X4.25Y-3.25
X4.25Y-3.42
X4.26Y-2.86
X4.28Y-2.43
X4.33Y-3.1
X4.37Y-3.0535
X4.37Y-3.0929
X4.4Y-3.19
X4.4Y-3.25
X4.4Y-3.42
X4.4427Y-2.799
X4.45Y-2.9768
X4.49Y-2.7924
X4.49Y-4.55
X4.5219Y-2.65
X4.53Y-2.902
X4.56Y-3.25
X4.56Y-3.42
X4.57Y-2.8451
X4.57Y-2.9224
X4.57Y-3.01
X4.5707Y-2.6039
X4.5842Y-2.7895
X4.62Y-3.17
X4.64Y-2.81
X4.64Y-2.902
X4.6435Y-2.9581
X4.65Y-2.59
X4.66Y-4.58
X4.66Y-4.64
X4.69Y-4.55
X4.69Y-4.61
X4.69Y-4.67
X4.7Y-3.25
X4.7Y-3.42
X4.72Y-4.58
X4.72Y-4.64
X4.73Y-3.08
X4.75Y-4.55
X4.75Y-4.61
X4.75Y-4.67
X4.78Y-3.16
X4.8038Y-3.0437
X4.8055Y-2.9174
X4.8073Y-2.9796
X4.85Y-3.25
X4.85Y-3.42
X4.8552Y-4.4326
X4.87Y-2.64
X4.904Y-4.3625
X4.93Y-3.17
X4.9917Y-4.3651
X5.0Y-3.25
X5.0Y-3.42
X5.02Y-2.67
X5.02Y-2.73
X5.0277Y-4.3808
X5.1166Y-4.3643
X5.1437Y-4.4331
X5.15Y-3.25
X5.15Y-3.42
X5.24Y-3.04
X5.3Y-3.25
X5.3Y-3.42
X5.42Y-2.92
X5.45Y-3.25
X5.45Y-3.42
X5.4749Y-2.7806
X5.52Y-2.94
X5.55Y-3.15
X5.57Y-2.91
X5.6Y-3.25
X5.6Y-3.42
X5.7Y-3.15
X5.75Y-3.25
X5.75Y-3.42
X5.9Y-3.25
X5.9Y-3.42
X5.97Y-3.16
X6.05Y-3.25
X6.05Y-3.42
X6.11Y-3.15
X6.2Y-3.25
X6.2Y-3.42
X6.21Y-3.15
X6.2255Y-2.7809
X6.275Y-2.9376
X6.32Y-2.91
X6.35Y-3.16
X6.35Y-3.25
X6.35Y-3.42
X6.5Y-3.25
X6.5Y-3.42
X6.51Y-3.16
X6.65Y-3.25
X6.65Y-3.42
X6.67Y-3.15
X6.8Y-3.25
X6.8Y-3.42
T3
X3.33Y-2.71
X3.4284Y-2.71
X3.5816Y-2.57
X3.68Y-2.57
X4.02Y-4.09
X4.1184Y-4.09
T4
X3.275Y-3.5
X3.275Y-3.6
X3.425Y-3.75
X3.425Y-3.85
X3.575Y-3.5
X3.575Y-3.6
X3.725Y-3.75
X3.725Y-3.85
X3.875Y-3.5
X3.875Y-3.6
X4.025Y-3.75
X4.025Y-3.85
X4.175Y-3.5
X4.175Y-3.6
X4.325Y-3.75
X4.325Y-3.85
X4.475Y-3.5
X4.475Y-3.6
X4.625Y-3.75
X4.625Y-3.85
X4.775Y-3.5
X4.775Y-3.6
X4.925Y-3.75
X4.925Y-3.85
X5.075Y-3.5
X5.075Y-3.6
X5.225Y-3.75
X5.225Y-3.85
X5.375Y-3.5
X5.375Y-3.6
X5.525Y-3.75
X5.525Y-3.85
X5.675Y-3.5
X5.675Y-3.6
X5.825Y-3.75
X5.825Y-3.85
X5.975Y-3.5
X5.975Y-3.6
X6.125Y-3.75
X6.125Y-3.85
X6.275Y-3.5
X6.275Y-3.6
X6.425Y-3.75
X6.425Y-3.85
X6.575Y-3.5
X6.575Y-3.6
X6.725Y-3.75
X6.725Y-3.85
T5
X4.1624Y-4.5513
X4.3396Y-4.5513
T6
X3.16Y-4.06
X3.16Y-4.16
X3.16Y-4.26
X3.16Y-4.36
X3.85Y-2.7
X3.8504Y-2.5
X3.95Y-2.7
X3.9504Y-2.5
X4.0504Y-2.5
X4.1504Y-2.5
X4.2002Y-2.6098
X4.2002Y-2.7098
X4.3002Y-2.6098
X4.3002Y-2.7098
X4.35Y-2.4996
X4.45Y-2.4996
X4.55Y-2.4996
X4.65Y-2.4996
X4.85Y-2.5
X4.95Y-2.5
X5.29Y-4.3104
X5.29Y-4.4104
X5.29Y-4.5104
X5.29Y-4.6104
X6.59Y-2.9
X6.59Y-3.0
X6.69Y-2.9
X6.69Y-3.0
T7
X5.552Y-2.5114
X5.552Y-2.6886
X5.808Y-2.5114
X5.808Y-2.6886
X6.152Y-2.5114
X6.152Y-2.6886
X6.408Y-2.5114
X6.408Y-2.6886
T8
X4.1128Y-4.4533
X4.3888Y-4.4533
T9
X5.4578Y-4.2519
X5.5562Y-4.1535
X5.5562Y-4.6456
X5.7531Y-4.2519
X5.95Y-4.1535
X5.95Y-4.6456
X6.0484Y-4.2519
X6.2547Y-4.2519
X6.3531Y-4.1535
X6.3531Y-4.6456
X6.55Y-4.2519
X6.7469Y-4.1535
X6.7469Y-4.6456
X6.8453Y-4.2519
T10
X3.4505Y-4.2059
X3.4505Y-4.4421
X3.6355Y-4.324
T2
G00X4.8299Y-4.5262
M15
G01X4.8299Y-4.4829
M16
G05
G00X4.8299Y-4.6845
M15
G01X4.8299Y-4.653
M16
G05
G00X5.1701Y-4.5262
M15
G01X5.1701Y-4.4829
M16
G05
G00X5.1701Y-4.6845
M15
G01X5.1701Y-4.653
M16
G05
M30
