%TF.GenerationSoftware,KiCad,Pcbnew,8.0.4*%
%TF.CreationDate,2024-08-26T14:04:23+02:00*%
%TF.ProjectId,Laserharp_Panels,4c617365-7268-4617-9270-5f50616e656c,rev?*%
%TF.SameCoordinates,Original*%
%TF.FileFunction,Legend,Top*%
%TF.FilePolarity,Positive*%
%FSLAX46Y46*%
G04 Gerber Fmt 4.6, Leading zero omitted, Abs format (unit mm)*
G04 Created by KiCad (PCBNEW 8.0.4) date 2024-08-26 14:04:23*
%MOMM*%
%LPD*%
G01*
G04 APERTURE LIST*
%ADD10C,0.100000*%
G04 APERTURE END LIST*
D10*
G36*
X318380851Y-234546824D02*
G01*
X318435561Y-234491137D01*
X318716929Y-234491137D01*
X318771639Y-234546824D01*
X318771639Y-236008374D01*
X318799972Y-236036706D01*
X320150146Y-236036706D01*
X320178478Y-236008374D01*
X320178478Y-234546824D01*
X320233189Y-234491137D01*
X320514556Y-234491137D01*
X320569267Y-234546824D01*
X320569267Y-236008374D01*
X320597599Y-236036706D01*
X322263335Y-236036706D01*
X322320000Y-236092393D01*
X322320000Y-236395254D01*
X322263335Y-236450942D01*
X318437515Y-236450942D01*
X318380851Y-236395254D01*
X318380851Y-234546824D01*
G37*
G36*
X319631374Y-232732588D02*
G01*
X319637236Y-232648569D01*
X319692923Y-232598743D01*
X319988946Y-232598743D01*
X320038771Y-232637822D01*
X320030956Y-232718911D01*
X320022163Y-232794138D01*
X320048670Y-233001686D01*
X320128191Y-233182495D01*
X320260726Y-233336566D01*
X320357264Y-233410607D01*
X320499902Y-233449685D01*
X322263335Y-233449685D01*
X322320000Y-233505373D01*
X322320000Y-233802372D01*
X322263335Y-233858060D01*
X319750565Y-233858060D01*
X319693900Y-233802372D01*
X319693900Y-233533705D01*
X319750565Y-233478018D01*
X319951821Y-233478018D01*
X319980153Y-233467271D01*
X319968429Y-233437962D01*
X319820968Y-233291294D01*
X319715638Y-233124842D01*
X319652440Y-232938607D01*
X319631374Y-232732588D01*
G37*
G36*
X321177207Y-229757557D02*
G01*
X321369609Y-229798129D01*
X321572693Y-229874932D01*
X321650774Y-229915003D01*
X321830712Y-230033938D01*
X321985845Y-230178251D01*
X322116171Y-230347943D01*
X322139260Y-230384926D01*
X322234572Y-230579157D01*
X322294583Y-230786935D01*
X322318411Y-230985518D01*
X322320000Y-231054152D01*
X322305703Y-231256393D01*
X322262812Y-231447661D01*
X322181621Y-231647311D01*
X322139260Y-231723377D01*
X322013895Y-231898240D01*
X321863723Y-232047915D01*
X321688746Y-232172402D01*
X321650774Y-232194277D01*
X321472558Y-232276452D01*
X321263845Y-232336215D01*
X321066377Y-232361614D01*
X320975687Y-232364270D01*
X320774244Y-232350824D01*
X320582074Y-232310483D01*
X320379429Y-232234119D01*
X320301577Y-232194277D01*
X320121123Y-232074827D01*
X319965666Y-231930190D01*
X319835206Y-231760365D01*
X319812114Y-231723377D01*
X319716802Y-231529147D01*
X319656791Y-231321369D01*
X319632963Y-231122785D01*
X319631374Y-231054152D01*
X320022163Y-231054152D01*
X320043285Y-231254844D01*
X320113276Y-231451139D01*
X320150146Y-231516259D01*
X320279335Y-231677906D01*
X320442932Y-231805519D01*
X320495994Y-231835729D01*
X320680265Y-231909737D01*
X320879047Y-231946016D01*
X320975687Y-231950034D01*
X321181167Y-231931169D01*
X321372135Y-231874575D01*
X321455380Y-231835729D01*
X321628808Y-231717840D01*
X321767827Y-231565917D01*
X321801228Y-231516259D01*
X321888716Y-231327311D01*
X321926086Y-231133440D01*
X321929211Y-231054152D01*
X321908089Y-230853459D01*
X321838098Y-230657164D01*
X321801228Y-230592044D01*
X321672038Y-230430584D01*
X321508442Y-230303532D01*
X321455380Y-230273551D01*
X321271109Y-230198910D01*
X321072327Y-230162322D01*
X320975687Y-230158269D01*
X320770207Y-230177295D01*
X320579239Y-230234373D01*
X320495994Y-230273551D01*
X320322566Y-230390773D01*
X320183546Y-230542402D01*
X320150146Y-230592044D01*
X320062657Y-230780993D01*
X320025287Y-230974863D01*
X320022163Y-231054152D01*
X319631374Y-231054152D01*
X319645671Y-230851910D01*
X319688561Y-230660642D01*
X319769753Y-230460993D01*
X319812114Y-230384926D01*
X319937575Y-230210159D01*
X320088032Y-230060770D01*
X320263486Y-229936760D01*
X320301577Y-229915003D01*
X320479321Y-229832356D01*
X320687690Y-229772250D01*
X320885012Y-229746704D01*
X320975687Y-229744033D01*
X321177207Y-229757557D01*
G37*
G36*
X322263335Y-228670341D02*
G01*
X322320000Y-228726029D01*
X322320000Y-229023028D01*
X322263335Y-229078715D01*
X319750565Y-229078715D01*
X319693900Y-229023028D01*
X319693900Y-228754361D01*
X319750565Y-228698674D01*
X319935212Y-228698674D01*
X319963545Y-228684996D01*
X319945959Y-228653733D01*
X319805403Y-228502764D01*
X319713440Y-228356734D01*
X319649406Y-228168428D01*
X319631374Y-227975715D01*
X319646639Y-227780137D01*
X319700306Y-227587702D01*
X319805254Y-227408145D01*
X319875617Y-227331891D01*
X320041015Y-227210819D01*
X320233128Y-227134588D01*
X320428869Y-227104320D01*
X320498925Y-227102302D01*
X322263335Y-227102302D01*
X322320000Y-227157990D01*
X322320000Y-227454989D01*
X322263335Y-227510676D01*
X320583921Y-227510676D01*
X320382001Y-227533895D01*
X320203513Y-227618387D01*
X320165778Y-227651360D01*
X320058066Y-227821842D01*
X320022724Y-228021503D01*
X320022163Y-228053872D01*
X320052457Y-228251881D01*
X320117906Y-228390928D01*
X320252201Y-228544423D01*
X320393412Y-228642009D01*
X320510648Y-228670341D01*
X322263335Y-228670341D01*
G37*
G36*
X318748192Y-226176133D02*
G01*
X318680781Y-226136078D01*
X318518604Y-225834193D01*
X318512742Y-225805861D01*
X318557683Y-225766782D01*
X319666545Y-225766782D01*
X319693900Y-225738450D01*
X319693900Y-225430704D01*
X319755450Y-225375017D01*
X320023140Y-225375017D01*
X320084689Y-225430704D01*
X320084689Y-225738450D01*
X320113021Y-225766782D01*
X322264312Y-225766782D01*
X322320000Y-225822470D01*
X322320000Y-226119469D01*
X322264312Y-226176133D01*
X320113021Y-226176133D01*
X320084689Y-226203489D01*
X320084689Y-226511235D01*
X320023140Y-226567899D01*
X319755450Y-226567899D01*
X319693900Y-226511235D01*
X319693900Y-226203489D01*
X319666545Y-226176133D01*
X318748192Y-226176133D01*
G37*
G36*
X322445052Y-222267271D02*
G01*
X322430214Y-222482083D01*
X322385701Y-222683949D01*
X322311512Y-222872871D01*
X322207648Y-223048848D01*
X322077100Y-223205896D01*
X321923838Y-223338032D01*
X321747861Y-223445254D01*
X321549169Y-223527564D01*
X321526699Y-223533426D01*
X321475896Y-223494347D01*
X321357683Y-223208094D01*
X321351821Y-223180739D01*
X321363545Y-223152407D01*
X321390900Y-223135799D01*
X321573872Y-223065693D01*
X321743625Y-222956400D01*
X321880362Y-222813398D01*
X321979370Y-222643382D01*
X322037281Y-222453048D01*
X322054263Y-222262386D01*
X322037725Y-222053095D01*
X321980557Y-221854266D01*
X321870509Y-221676547D01*
X321845191Y-221648848D01*
X321686352Y-221525922D01*
X321498653Y-221454022D01*
X321302972Y-221432937D01*
X321091093Y-221455795D01*
X320896026Y-221532869D01*
X320774431Y-221626378D01*
X320643685Y-221791516D01*
X320555455Y-221978135D01*
X320505764Y-222155896D01*
X320449099Y-222441172D01*
X320394328Y-222653663D01*
X320315010Y-222842707D01*
X320211146Y-223008304D01*
X320082735Y-223150453D01*
X319911637Y-223276076D01*
X319714882Y-223360586D01*
X319518450Y-223401191D01*
X319357822Y-223410327D01*
X319156605Y-223392434D01*
X318966702Y-223338753D01*
X318803879Y-223258897D01*
X318642385Y-223141282D01*
X318505827Y-222996653D01*
X318403321Y-222841730D01*
X318319331Y-222650032D01*
X318273230Y-222460133D01*
X318255943Y-222255351D01*
X318255799Y-222234054D01*
X318269476Y-222031027D01*
X318317561Y-221819409D01*
X318400268Y-221625565D01*
X318474640Y-221506210D01*
X318609940Y-221346318D01*
X318770743Y-221212856D01*
X318957047Y-221105823D01*
X319071570Y-221057780D01*
X319094040Y-221052896D01*
X319144842Y-221091974D01*
X319269895Y-221383112D01*
X319275757Y-221410467D01*
X319264033Y-221438799D01*
X319234724Y-221455408D01*
X319045909Y-221546266D01*
X318889792Y-221667899D01*
X318803879Y-221766085D01*
X318702039Y-221944650D01*
X318652117Y-222139017D01*
X318646587Y-222234054D01*
X318665955Y-222433837D01*
X318731999Y-222621421D01*
X318844912Y-222775296D01*
X319009181Y-222896150D01*
X319204499Y-222961226D01*
X319351960Y-222973621D01*
X319558904Y-222947823D01*
X319747505Y-222862338D01*
X319806252Y-222817306D01*
X319932787Y-222664514D01*
X320013525Y-222479111D01*
X320044633Y-222351290D01*
X320103251Y-222066015D01*
X320154823Y-221870368D01*
X320236431Y-221665891D01*
X320342218Y-221481808D01*
X320472186Y-221318119D01*
X320490132Y-221299092D01*
X320647547Y-221166591D01*
X320830607Y-221071946D01*
X321039312Y-221015160D01*
X321242967Y-220996527D01*
X321273663Y-220996231D01*
X321473942Y-221011306D01*
X321680144Y-221062709D01*
X321871570Y-221150593D01*
X322041544Y-221272091D01*
X322184735Y-221425683D01*
X322291667Y-221593161D01*
X322372554Y-221782831D01*
X322423482Y-221991582D01*
X322443704Y-222195773D01*
X322445052Y-222267271D01*
G37*
G36*
X319068639Y-220077878D02*
G01*
X319003260Y-220264046D01*
X318976803Y-220293789D01*
X318798622Y-220383382D01*
X318760893Y-220385624D01*
X318571650Y-220315313D01*
X318548890Y-220293789D01*
X318461203Y-220115607D01*
X318459009Y-220077878D01*
X318527824Y-219893444D01*
X318548890Y-219870760D01*
X318730652Y-219782283D01*
X318760893Y-219780879D01*
X318947060Y-219844867D01*
X318976803Y-219870760D01*
X319067204Y-220048783D01*
X319068639Y-220077878D01*
G37*
G36*
X322320000Y-220234193D02*
G01*
X322263335Y-220289881D01*
X319750565Y-220289881D01*
X319693900Y-220234193D01*
X319693900Y-219937194D01*
X319750565Y-219881507D01*
X322263335Y-219881507D01*
X322320000Y-219937194D01*
X322320000Y-220234193D01*
G37*
G36*
X321929211Y-218393579D02*
G01*
X321989783Y-218337892D01*
X322259427Y-218337892D01*
X322320000Y-218393579D01*
X322320000Y-218494207D01*
X322299361Y-218689021D01*
X322217295Y-218875225D01*
X322194947Y-218903558D01*
X322022439Y-219017142D01*
X321822404Y-219048985D01*
X321806113Y-219049127D01*
X318311486Y-219049127D01*
X318255799Y-218992463D01*
X318255799Y-218695464D01*
X318311486Y-218639776D01*
X321729909Y-218639776D01*
X321909748Y-218560351D01*
X321929211Y-218471737D01*
X321929211Y-218393579D01*
G37*
G36*
X322320000Y-216204187D02*
G01*
X322269197Y-216288206D01*
X321149588Y-216954501D01*
X321119302Y-216985764D01*
X321138841Y-217021912D01*
X321418255Y-217257362D01*
X321518883Y-217290579D01*
X322264312Y-217290579D01*
X322303391Y-217307187D01*
X322320000Y-217352128D01*
X322320000Y-217643265D01*
X322264312Y-217698953D01*
X318311486Y-217698953D01*
X318255799Y-217643265D01*
X318255799Y-217352128D01*
X318272407Y-217307187D01*
X318311486Y-217290579D01*
X320775408Y-217290579D01*
X320811556Y-217273970D01*
X320786154Y-217234891D01*
X319728094Y-216360502D01*
X319693900Y-216294068D01*
X319693900Y-215907187D01*
X319716371Y-215863224D01*
X319767173Y-215873970D01*
X320718743Y-216657501D01*
X320766615Y-216682903D01*
X320814487Y-216669225D01*
X322251612Y-215823168D01*
X322285806Y-215812421D01*
X322320000Y-215862247D01*
X322320000Y-216204187D01*
G37*
G36*
X318380851Y-211841032D02*
G01*
X318435561Y-211785345D01*
X318716929Y-211785345D01*
X318771639Y-211841032D01*
X318771639Y-212820935D01*
X318799972Y-212849267D01*
X322263335Y-212849267D01*
X322320000Y-212904954D01*
X322320000Y-213207815D01*
X322263335Y-213263503D01*
X318799972Y-213263503D01*
X318771639Y-213291835D01*
X318771639Y-214271737D01*
X318716929Y-214327424D01*
X318435561Y-214327424D01*
X318380851Y-214271737D01*
X318380851Y-211841032D01*
G37*
G36*
X321025512Y-209363433D02*
G01*
X321069476Y-209419120D01*
X321069476Y-211396510D01*
X321140795Y-211446336D01*
X321332458Y-211405833D01*
X321518044Y-211325118D01*
X321674818Y-211206813D01*
X321716231Y-211163991D01*
X321828545Y-211002218D01*
X321899261Y-210814877D01*
X321928379Y-210601965D01*
X321929211Y-210556315D01*
X321909366Y-210352922D01*
X321849832Y-210162840D01*
X321750608Y-209986069D01*
X321611695Y-209822609D01*
X321589225Y-209726866D01*
X321794389Y-209542219D01*
X321868639Y-209542219D01*
X322005974Y-209688180D01*
X322119759Y-209847995D01*
X322202763Y-210005303D01*
X322274204Y-210204605D01*
X322312672Y-210412700D01*
X322320000Y-210556315D01*
X322306862Y-210766585D01*
X322267449Y-210963254D01*
X322192841Y-211165823D01*
X322153914Y-211242149D01*
X322036277Y-211416725D01*
X321890972Y-211565542D01*
X321717998Y-211688598D01*
X321680083Y-211710118D01*
X321499712Y-211791348D01*
X321304812Y-211845993D01*
X321095383Y-211874055D01*
X320972756Y-211878157D01*
X320755960Y-211865097D01*
X320554002Y-211825916D01*
X320366881Y-211760614D01*
X320269337Y-211713049D01*
X320091860Y-211597320D01*
X319941670Y-211457739D01*
X319818766Y-211294306D01*
X319797459Y-211258757D01*
X319709875Y-211071759D01*
X319654730Y-210871022D01*
X319632023Y-210656546D01*
X319631374Y-210612002D01*
X320022163Y-210612002D01*
X320042596Y-210820671D01*
X320103896Y-211007405D01*
X320195087Y-211158129D01*
X320338793Y-211303393D01*
X320510526Y-211399197D01*
X320640586Y-211435589D01*
X320665010Y-211440474D01*
X320694319Y-211384787D01*
X320694319Y-209845080D01*
X320635701Y-209794277D01*
X320442993Y-209859856D01*
X320281060Y-209971598D01*
X320190202Y-210071737D01*
X320087803Y-210251210D01*
X320035455Y-210440106D01*
X320022163Y-210612002D01*
X319631374Y-210612002D01*
X319647498Y-210397870D01*
X319695870Y-210196331D01*
X319776489Y-210007387D01*
X319796482Y-209971109D01*
X319911181Y-209803288D01*
X320050113Y-209660081D01*
X320213279Y-209541490D01*
X320248820Y-209520725D01*
X320436200Y-209434687D01*
X320638082Y-209380515D01*
X320854466Y-209358208D01*
X320899483Y-209357571D01*
X321025512Y-209363433D01*
G37*
G36*
X322320000Y-208021074D02*
G01*
X322303494Y-208217346D01*
X322247210Y-208409884D01*
X322150983Y-208577948D01*
X322008422Y-208728707D01*
X321834262Y-208840997D01*
X321700600Y-208894487D01*
X321678129Y-208900348D01*
X321633189Y-208860293D01*
X321537445Y-208591625D01*
X321532561Y-208569155D01*
X321576524Y-208519330D01*
X321755890Y-208419953D01*
X321836399Y-208325889D01*
X321916159Y-208139959D01*
X321929211Y-208021074D01*
X321905812Y-207825026D01*
X321822721Y-207662526D01*
X321657288Y-207553973D01*
X321550146Y-207539427D01*
X321356412Y-207596225D01*
X321291249Y-207659595D01*
X321200195Y-207835014D01*
X321161311Y-207992742D01*
X321119302Y-208216468D01*
X321057340Y-208414534D01*
X320944635Y-208591586D01*
X320864312Y-208670760D01*
X320688364Y-208778926D01*
X320485972Y-208831949D01*
X320383642Y-208837822D01*
X320184096Y-208811444D01*
X320001646Y-208732309D01*
X319846796Y-208604082D01*
X319730048Y-208432379D01*
X319659223Y-208240725D01*
X319632241Y-208043254D01*
X319631374Y-207998604D01*
X319650422Y-207797439D01*
X319714651Y-207603266D01*
X319792575Y-207474947D01*
X319932251Y-207331561D01*
X320110945Y-207225270D01*
X320251751Y-207175017D01*
X320274221Y-207169155D01*
X320325024Y-207214096D01*
X320392435Y-207477878D01*
X320398297Y-207500348D01*
X320353356Y-207544312D01*
X320178506Y-207633591D01*
X320110090Y-207704535D01*
X320030749Y-207892644D01*
X320022163Y-207998604D01*
X320053384Y-208194929D01*
X320120837Y-208315143D01*
X320288531Y-208425805D01*
X320368988Y-208435310D01*
X320560413Y-208382004D01*
X320606392Y-208340544D01*
X320698410Y-208164105D01*
X320725582Y-208054291D01*
X320766615Y-207835450D01*
X320825208Y-207634159D01*
X320926255Y-207447222D01*
X321027466Y-207329378D01*
X321194666Y-207211501D01*
X321397311Y-207148028D01*
X321552100Y-207135938D01*
X321750414Y-207159217D01*
X321941451Y-207238600D01*
X322104089Y-207374319D01*
X322217948Y-207539488D01*
X322289637Y-207738241D01*
X322318102Y-207945832D01*
X322320000Y-208021074D01*
G37*
G36*
X318748192Y-206359246D02*
G01*
X318680781Y-206319190D01*
X318518604Y-206017306D01*
X318512742Y-205988974D01*
X318557683Y-205949895D01*
X319666545Y-205949895D01*
X319693900Y-205921563D01*
X319693900Y-205613817D01*
X319755450Y-205558129D01*
X320023140Y-205558129D01*
X320084689Y-205613817D01*
X320084689Y-205921563D01*
X320113021Y-205949895D01*
X322264312Y-205949895D01*
X322320000Y-206005582D01*
X322320000Y-206302581D01*
X322264312Y-206359246D01*
X320113021Y-206359246D01*
X320084689Y-206386601D01*
X320084689Y-206694347D01*
X320023140Y-206751011D01*
X319755450Y-206751011D01*
X319693900Y-206694347D01*
X319693900Y-206386601D01*
X319666545Y-206359246D01*
X318748192Y-206359246D01*
G37*
%LPC*%
%LPD*%
M02*
