0
SECTION
2
HEADER
9
$INSUNITS
70
4
9
$ACADVER
1
AC1014
9
$HANDSEED
5
FFFF
0
ENDSEC
0
SECTION
2
TABLES
0
TABLE
2
VPORT
5
8
100
AcDbSymbolTable
0
ENDTAB
0
TABLE
2
LTYPE
5
5
100
AcDbSymbolTable
0
LTYPE
5
14
100
AcDbSymbolTableRecord
100
AcDbLinetypeTableRecord
2
BYBLOCK
70
0
0
LTYPE
5
15
100
AcDbSymbolTableRecord
100
AcDbLinetypeTableRecord
2
BYLAYER
70
0
0
ENDTAB
0
TABLE
2
LAYER
5
2
100
AcDbSymbolTable
70
2
0
LAYER
5
50
100
AcDbSymbolTableRecord
100
AcDbLayerTableRecord
2
0
70
0
6
CONTINUOUS
0
ENDTAB
0
TABLE
2
STYLE
5
3
100
AcDbSymbolTable
70
1
0
STYLE
5
11
100
AcDbSymbolTableRecord
100
AcDbTextStyleTableRecord
2
STANDARD
70
0
0
ENDTAB
0
TABLE
2
VIEW
5
6
100
AcDbSymbolTable
70
0
0
ENDTAB
0
TABLE
2
UCS
5
7
100
AcDbSymbolTable
70
0
0
ENDTAB
0
TABLE
2
APPID
5
9
100
AcDbSymbolTable
70
2
0
APPID
5
12
100
AcDbSymbolTableRecord
100
AcDbRegAppTableRecord
2
ACAD
70
0
0
ENDTAB
0
TABLE
2
DIMSTYLE
5
A
100
AcDbSymbolTable
70
1
0
ENDTAB
0
TABLE
2
BLOCK_RECORD
5
1
100
AcDbSymbolTable
70
1
0
BLOCK_RECORD
5
1F
100
AcDbSymbolTableRecord
100
AcDbBlockTableRecord
2
*MODEL_SPACE
0
BLOCK_RECORD
5
1B
100
AcDbSymbolTableRecord
100
AcDbBlockTableRecord
2
*PAPER_SPACE
0
ENDTAB
0
ENDSEC
0
SECTION
2
BLOCKS
0
BLOCK
5
20
100
AcDbEntity
100
AcDbBlockBegin
2
*MODEL_SPACE
0
ENDBLK
5
21
100
AcDbEntity
100
AcDbBlockEnd
0
BLOCK
5
1C
100
AcDbEntity
100
AcDbBlockBegin
2
*PAPER_SPACE
0
ENDBLK
5
1D
100
AcDbEntity
100
AcDbBlockEnd
0
ENDSEC
0
SECTION
2
ENTITIES
0
CIRCLE
5
100
100
AcDbEntity
8
0
100
AcDbCircle
10
-227.08330993652342
20
43.850015640258775
30
0
40
2.3499999999999943
210
-0
220
2.4651903288156619e-32
230
1
0
CIRCLE
5
101
100
AcDbEntity
8
0
100
AcDbCircle
10
-265.78330992371411
20
17.039126502500785
30
0
40
2.3499999999999943
210
-0
220
2.4651903288156619e-32
230
1
0
CIRCLE
5
102
100
AcDbEntity
8
0
100
AcDbCircle
10
-307.48169454558683
20
53.815406005787601
30
0
40
2.3500000000000032
210
0
220
0
230
1
0
CIRCLE
5
103
100
AcDbEntity
8
0
100
AcDbCircle
10
-360.86661242848709
20
98.350015640210245
30
0
40
2.3499999999999943
210
-0
220
2.4651903288156619e-32
230
1
0
CIRCLE
5
104
100
AcDbEntity
8
0
100
AcDbCircle
10
-360.86661242848709
20
126.35001564021017
30
0
40
2.3499999999999943
210
-0
220
2.4651903288156619e-32
230
1
0
CIRCLE
5
105
100
AcDbEntity
8
0
100
AcDbCircle
10
-388.86661242848703
20
126.35001564021017
30
0
40
2.3499999999999943
210
-0
220
2.4651903288156619e-32
230
1
0
CIRCLE
5
106
100
AcDbEntity
8
0
100
AcDbCircle
10
-244.08330993652345
20
180.8500156402587
30
0
40
2.3499999999999943
210
-0
220
2.4651903288156619e-32
230
1
0
CIRCLE
5
107
100
AcDbEntity
8
0
100
AcDbCircle
10
-213.28330993652446
20
177.35000711149468
30
0
40
2.3500000000000032
210
0
220
0
230
1
0
LWPOLYLINE
5
108
100
AcDbEntity
8
0
100
AcDbPolyline
90
4
70
1
43
0.0
10
-241.58330993652345
20
52.350015640258789
10
-241.58330993652345
20
172.35001564025879
42
-0.99999999999999989
10
-229.58330993652342
20
172.35001564025879
10
-229.58330993652342
20
52.350015640258775
42
-0.99999999999999989
0
CIRCLE
5
109
100
AcDbEntity
8
0
100
AcDbCircle
10
-374.86661242848709
20
112.35001564021019
30
0
40
15
210
0
220
-0
230
1
0
LWPOLYLINE
5
110
100
AcDbEntity
8
0
100
AcDbPolyline
90
6
70
1
43
0.0
10
-381.36660987909829
20
147.85705866155155
42
0.57735029271695759
10
-381.36661241502202
20
76.842974084472274
10
-268.7833099208263
20
11.842974084986153
42
0.57735027022150265
10
-207.28330970081197
20
47.350015640264928
10
-207.28330993652347
20
177.35001564025879
42
0.57735026882188567
10
-268.78330989746956
20
212.85705721805843
0
CIRCLE
5
111
100
AcDbEntity
8
0
100
AcDbCircle
10
-227.08330993652342
20
180.8500156402587
30
0
40
2.3499999999999943
210
-0
220
2.4651903288156619e-32
230
1
0
CIRCLE
5
112
100
AcDbEntity
8
0
100
AcDbCircle
10
-265.7833099031991
20
207.66090479204382
30
0
40
2.3499999999999943
210
-0
220
2.4651903288156619e-32
230
1
0
CIRCLE
5
113
100
AcDbEntity
8
0
100
AcDbCircle
10
-378.36661239156069
20
142.66090478825072
30
0
40
2.3500000000000076
210
0
220
0
230
1
0
CIRCLE
5
114
100
AcDbEntity
8
0
100
AcDbCircle
10
-388.86661242848703
20
98.350015640210216
30
0
40
2.3499999999999943
210
-0
220
2.4651903288156619e-32
230
1
0
CIRCLE
5
115
100
AcDbEntity
8
0
100
AcDbCircle
10
-378.36661241237124
20
82.039126507934853
30
0
40
2.3500000000000076
210
0
220
0
230
1
0
CIRCLE
5
116
100
AcDbEntity
8
0
100
AcDbCircle
10
-278.03683076620075
20
36.815406002093312
30
0
40
2.3500000000000032
210
0
220
0
230
1
0
CIRCLE
5
117
100
AcDbEntity
8
0
100
AcDbCircle
10
-244.08330993652345
20
43.850015640258775
30
0
40
2.3499999999999943
210
-0
220
2.4651903288156619e-32
230
1
0
CIRCLE
5
118
100
AcDbEntity
8
0
100
AcDbCircle
10
-213.28330993652344
20
47.350014556894884
30
0
40
2.3500000000000032
210
0
220
0
230
1
0
CIRCLE
5
119
100
AcDbEntity
8
0
100
AcDbCircle
10
-213.28330993652344
20
47.350014556894884
30
0
40
1.3500000000000068
210
0
220
0
230
1
0
CIRCLE
5
120
100
AcDbEntity
8
0
100
AcDbCircle
10
-227.08330993652342
20
43.850015640258775
30
0
40
1.3499999999999979
210
0
220
0
230
1
0
CIRCLE
5
121
100
AcDbEntity
8
0
100
AcDbCircle
10
-244.08330993652345
20
43.850015640258775
30
0
40
1.3499999999999979
210
0
220
0
230
1
0
CIRCLE
5
122
100
AcDbEntity
8
0
100
AcDbCircle
10
-265.78330992371411
20
17.039126502500785
30
0
40
1.3499999999999979
210
0
220
0
230
1
0
CIRCLE
5
123
100
AcDbEntity
8
0
100
AcDbCircle
10
-278.03683076620075
20
36.815406002093312
30
0
40
1.3500000000000068
210
0
220
0
230
1
0
CIRCLE
5
124
100
AcDbEntity
8
0
100
AcDbCircle
10
-307.48169454558683
20
53.815406005787601
30
0
40
1.3500000000000068
210
0
220
0
230
1
0
CIRCLE
5
125
100
AcDbEntity
8
0
100
AcDbCircle
10
-378.36661241237124
20
82.039126507934853
30
0
40
1.3500000000000068
210
0
220
0
230
1
0
CIRCLE
5
126
100
AcDbEntity
8
0
100
AcDbCircle
10
-360.86661242848709
20
98.350015640210245
30
0
40
1.3499999999999934
210
0
220
0
230
1
0
CIRCLE
5
127
100
AcDbEntity
8
0
100
AcDbCircle
10
-388.86661242848703
20
98.350015640210216
30
0
40
1.3499999999999934
210
0
220
0
230
1
0
CIRCLE
5
128
100
AcDbEntity
8
0
100
AcDbCircle
10
-360.86661242848709
20
126.35001564021017
30
0
40
1.3499999999999934
210
0
220
0
230
1
0
CIRCLE
5
129
100
AcDbEntity
8
0
100
AcDbCircle
10
-378.36661239156069
20
142.66090478825072
30
0
40
1.3500000000000068
210
0
220
0
230
1
0
CIRCLE
5
130
100
AcDbEntity
8
0
100
AcDbCircle
10
-388.86661242848703
20
126.35001564021017
30
0
40
1.3499999999999934
210
0
220
0
230
1
0
CIRCLE
5
131
100
AcDbEntity
8
0
100
AcDbCircle
10
-265.7833099031991
20
207.66090479204382
30
0
40
1.3499999999999979
210
0
220
0
230
1
0
CIRCLE
5
132
100
AcDbEntity
8
0
100
AcDbCircle
10
-244.08330993652345
20
180.8500156402587
30
0
40
1.3499999999999979
210
0
220
0
230
1
0
CIRCLE
5
133
100
AcDbEntity
8
0
100
AcDbCircle
10
-227.08330993652342
20
180.8500156402587
30
0
40
1.3499999999999979
210
0
220
0
230
1
0
CIRCLE
5
134
100
AcDbEntity
8
0
100
AcDbCircle
10
-213.28330993652446
20
177.35000711149468
30
0
40
1.3500000000000068
210
0
220
0
230
1
0
LWPOLYLINE
5
135
100
AcDbEntity
8
0
100
AcDbPolyline
90
4
70
1
43
0.0
10
-241.58330993652345
20
172.35001564025879
10
-241.58330993652345
20
52.350015640258789
42
0.99999999999999989
10
-229.58330993652345
20
52.350015640258775
10
-229.58330993652345
20
172.35001564025879
42
0.99999999999999989
0
CIRCLE
5
136
100
AcDbEntity
8
0
100
AcDbCircle
10
-374.86661242848709
20
112.35001564021019
30
0
40
15
210
0
220
0
230
1
0
LWPOLYLINE
5
137
100
AcDbEntity
8
0
100
AcDbPolyline
90
6
70
1
43
0.0
10
-268.78330989746962
20
212.85705721805843
10
-381.36660987909818
20
147.85705866155155
42
0.57735029271695759
10
-381.36661241402697
20
76.842974086195852
10
-268.7833099208263
20
11.842974084986162
42
0.57735027022150232
10
-207.28330993562608
20
47.350015640264914
10
-207.28330993652344
20
177.35001564025879
42
0.57735026882188578
0
ENDSEC
0
SECTION
2
OBJECTS
0
DICTIONARY
5
C
100
AcDbDictionary
3
ACAD_GROUP
350
D
3
ACAD_MLINESTYLE
350
17
0
DICTIONARY
5
D
100
AcDbDictionary
0
DICTIONARY
5
1A
330
C
100
AcDbDictionary
0
DICTIONARY
5
17
100
AcDbDictionary
0
ENDSEC
0
EOF
