<?xml version="1.0" encoding="UTF-8"?>
<svg id="Layer_2" xmlns="http://www.w3.org/2000/svg" viewBox="0 0 327 80.34">
  <path d="M10.5,58.04c-1.96,0-3.54-1.59-3.54-3.54v-28c0-1.96,1.59-3.54,3.54-3.54s3.54,1.59,3.54,3.54v28c0,1.96-1.59,3.54-3.54,3.54Z"/>
  <path d="M24.5,80.04c-1.96,0-3.54-1.59-3.54-3.54V5.5c0-1.96,1.59-3.54,3.54-3.54s3.54,1.59,3.54,3.54v71c0,1.96-1.59,3.54-3.54,3.54Z"/>
  <path d="M38.5,58.04c-1.96,0-3.54-1.59-3.54-3.54v-28c0-1.96,1.59-3.54,3.54-3.54s3.54,1.59,3.54,3.54v28c0,1.96-1.59,3.54-3.54,3.54Z"/>
  <path d="M52.5,72.04c-1.96,0-3.54-1.59-3.54-3.54V12.5c0-1.96,1.59-3.54,3.54-3.54s3.54,1.59,3.54,3.54v56c0,1.96-1.59,3.54-3.54,3.54Z"/>
  <path d="M66.5,65.04c-1.96,0-3.54-1.59-3.54-3.54V19.5c0-1.96,1.59-3.54,3.54-3.54s3.54,1.59,3.54,3.54v42c0,1.96-1.59,3.54-3.54,3.54Z"/>
  <path d="M81.5,58.04c-1.96,0-3.54-1.59-3.54-3.54v-28c0-1.96,1.59-3.54,3.54-3.54s3.54,1.59,3.54,3.54v28c0,1.96-1.59,3.54-3.54,3.54Z"/>
  <path d="M95.5,72.04c-1.96,0-3.54-1.59-3.54-3.54V12.5c0-1.96,1.59-3.54,3.54-3.54s3.54,1.59,3.54,3.54v56c0,1.96-1.59,3.54-3.54,3.54Z"/>
  <path d="M109.5,80.04c-1.96,0-3.54-1.59-3.54-3.54V5.5c0-1.96,1.59-3.54,3.54-3.54s3.54,1.59,3.54,3.54v71c0,1.96-1.59,3.54-3.54,3.54Z"/>
  <path d="M123.5,65.04c-1.96,0-3.54-1.59-3.54-3.54V19.5c0-1.96,1.59-3.54,3.54-3.54s3.54,1.59,3.54,3.54v42c0,1.96-1.59,3.54-3.54,3.54Z"/>
  <path d="M137.5,80.04c-1.96,0-3.54-1.59-3.54-3.54V5.5c0-1.96,1.59-3.54,3.54-3.54s3.54,1.59,3.54,3.54v71c0,1.96-1.59,3.54-3.54,3.54Z"/>
  <path d="M151.5,72.04c-1.96,0-3.54-1.59-3.54-3.54V12.5c0-1.96,1.59-3.54,3.54-3.54s3.54,1.59,3.54,3.54v56c0,1.96-1.59,3.54-3.54,3.54Z"/>
  <path d="M166.5,51.04c-1.96,0-3.54-1.59-3.54-3.54v-14c0-1.96,1.59-3.54,3.54-3.54s3.54,1.59,3.54,3.54v14c0,1.96-1.59,3.54-3.54,3.54Z"/>
  <path d="M180.5,58.04c-1.96,0-3.54-1.59-3.54-3.54v-28c0-1.96,1.59-3.54,3.54-3.54s3.54,1.59,3.54,3.54v28c0,1.96-1.59,3.54-3.54,3.54Z"/>
  <path d="M194.5,51.04c-1.96,0-3.54-1.59-3.54-3.54v-14c0-1.96,1.59-3.54,3.54-3.54s3.54,1.59,3.54,3.54v14c0,1.96-1.59,3.54-3.54,3.54Z"/>
  <path d="M208.5,65.04c-1.96,0-3.54-1.59-3.54-3.54V19.5c0-1.96,1.59-3.54,3.54-3.54s3.54,1.59,3.54,3.54v42c0,1.96-1.59,3.54-3.54,3.54Z"/>
  <path d="M222.5,80.04c-1.96,0-3.54-1.59-3.54-3.54V5.5c0-1.96,1.59-3.54,3.54-3.54s3.54,1.59,3.54,3.54v71c0,1.96-1.59,3.54-3.54,3.54Z"/>
  <path d="M236.5,72.04c-1.96,0-3.54-1.59-3.54-3.54V12.5c0-1.96,1.59-3.54,3.54-3.54s3.54,1.59,3.54,3.54v56c0,1.96-1.59,3.54-3.54,3.54Z"/>
  <path d="M251.5,80.04c-1.96,0-3.54-1.59-3.54-3.54V5.5c0-1.96,1.59-3.54,3.54-3.54s3.54,1.59,3.54,3.54v71c0,1.96-1.59,3.54-3.54,3.54Z"/>
  <path d="M265.5,72.04c-1.96,0-3.54-1.59-3.54-3.54V12.5c0-1.96,1.59-3.54,3.54-3.54s3.54,1.59,3.54,3.54v56c0,1.96-1.59,3.54-3.54,3.54Z"/>
  <path d="M279.5,58.04c-1.96,0-3.54-1.59-3.54-3.54v-28c0-1.96,1.59-3.54,3.54-3.54s3.54,1.59,3.54,3.54v28c0,1.96-1.59,3.54-3.54,3.54Z"/>
  <path d="M293.5,51.04c-1.96,0-3.54-1.59-3.54-3.54v-14c0-1.96,1.59-3.54,3.54-3.54s3.54,1.59,3.54,3.54v14c0,1.96-1.59,3.54-3.54,3.54Z"/>
  <path d="M307.5,72.04c-1.96,0-3.54-1.59-3.54-3.54V12.5c0-1.96,1.59-3.54,3.54-3.54s3.54,1.59,3.54,3.54v56c0,1.96-1.59,3.54-3.54,3.54Z"/>
  <path d="M321.5,80.04c-1.96,0-3.54-1.59-3.54-3.54V5.5c0-1.96,1.59-3.54,3.54-3.54s3.54,1.59,3.54,3.54v71c0,1.96-1.59,3.54-3.54,3.54Z"/>
</svg>