<svg width="128" height="128" viewBox="0 0 128 128" fill="none" xmlns="http://www.w3.org/2000/svg">
<path fill-rule="evenodd" clip-rule="evenodd" d="M67.9863 120.936C64.1556 123.138 59.2654 121.817 57.0639 117.986L7.06389 30.9863C4.86233 27.1556 6.18302 22.2654 10.0137 20.0639C13.8444 17.8623 18.7346 19.183 20.9361 23.0137L70.9361 110.014C73.1377 113.844 71.817 118.735 67.9863 120.936Z" fill="#E11D48"/>
<path fill-rule="evenodd" clip-rule="evenodd" d="M64 122C59.5817 122 56 118.418 56 114L56 14C56 9.58173 59.5817 6.00001 64 6.00001C68.4183 6.00001 72 9.58173 72 14L72 114C72 118.418 68.4183 122 64 122Z" fill="#E11D48"/>
<path fill-rule="evenodd" clip-rule="evenodd" d="M60.0137 120.936C56.183 118.735 54.8623 113.844 57.0639 110.014L107.064 23.0137C109.265 19.183 114.156 17.8623 117.986 20.0639C121.817 22.2655 123.138 27.1556 120.936 30.9863L70.9361 117.986C68.7346 121.817 63.8444 123.138 60.0137 120.936Z" fill="#E11D48"/>
<path fill-rule="evenodd" clip-rule="evenodd" d="M31 114C31 109.582 34.5817 106 39 106H89C93.4183 106 97 109.582 97 114C97 118.418 93.4183 122 89 122H39C34.5817 122 31 118.418 31 114Z" fill="black"/>
</svg>
