%TF.GenerationSoftware,KiCad,Pcbnew,8.0.4*%
%TF.CreationDate,2024-08-25T15:35:27+02:00*%
%TF.ProjectId,LaserHarp3,4c617365-7248-4617-9270-332e6b696361,rev?*%
%TF.SameCoordinates,Original*%
%TF.FileFunction,Soldermask,Top*%
%TF.FilePolarity,Negative*%
%FSLAX46Y46*%
G04 Gerber Fmt 4.6, Leading zero omitted, Abs format (unit mm)*
G04 Created by KiCad (PCBNEW 8.0.4) date 2024-08-25 15:35:27*
%MOMM*%
%LPD*%
G01*
G04 APERTURE LIST*
G04 Aperture macros list*
%AMRoundRect*
0 Rectangle with rounded corners*
0 $1 Rounding radius*
0 $2 $3 $4 $5 $6 $7 $8 $9 X,Y pos of 4 corners*
0 Add a 4 corners polygon primitive as box body*
4,1,4,$2,$3,$4,$5,$6,$7,$8,$9,$2,$3,0*
0 Add four circle primitives for the rounded corners*
1,1,$1+$1,$2,$3*
1,1,$1+$1,$4,$5*
1,1,$1+$1,$6,$7*
1,1,$1+$1,$8,$9*
0 Add four rect primitives between the rounded corners*
20,1,$1+$1,$2,$3,$4,$5,0*
20,1,$1+$1,$4,$5,$6,$7,0*
20,1,$1+$1,$6,$7,$8,$9,0*
20,1,$1+$1,$8,$9,$2,$3,0*%
G04 Aperture macros list end*
%ADD10RoundRect,0.200000X-0.275000X0.200000X-0.275000X-0.200000X0.275000X-0.200000X0.275000X0.200000X0*%
%ADD11RoundRect,0.200000X0.275000X-0.200000X0.275000X0.200000X-0.275000X0.200000X-0.275000X-0.200000X0*%
%ADD12R,1.700000X1.700000*%
%ADD13O,1.700000X1.700000*%
%ADD14RoundRect,0.150000X-0.150000X0.587500X-0.150000X-0.587500X0.150000X-0.587500X0.150000X0.587500X0*%
%ADD15C,2.700000*%
%ADD16RoundRect,0.225000X0.250000X-0.225000X0.250000X0.225000X-0.250000X0.225000X-0.250000X-0.225000X0*%
%ADD17RoundRect,0.375000X-0.625000X-0.375000X0.625000X-0.375000X0.625000X0.375000X-0.625000X0.375000X0*%
%ADD18RoundRect,0.500000X-0.500000X-1.400000X0.500000X-1.400000X0.500000X1.400000X-0.500000X1.400000X0*%
%ADD19R,1.800000X1.800000*%
%ADD20C,1.800000*%
%ADD21RoundRect,0.200000X0.200000X0.275000X-0.200000X0.275000X-0.200000X-0.275000X0.200000X-0.275000X0*%
%ADD22RoundRect,0.112500X-0.187500X-0.112500X0.187500X-0.112500X0.187500X0.112500X-0.187500X0.112500X0*%
%ADD23RoundRect,0.225000X-0.250000X0.225000X-0.250000X-0.225000X0.250000X-0.225000X0.250000X0.225000X0*%
%ADD24RoundRect,0.250000X0.400000X0.600000X-0.400000X0.600000X-0.400000X-0.600000X0.400000X-0.600000X0*%
%ADD25C,2.000000*%
%ADD26C,2.100000*%
%ADD27C,1.750000*%
%ADD28R,2.600000X2.600000*%
%ADD29C,2.600000*%
%ADD30RoundRect,0.225000X0.225000X0.250000X-0.225000X0.250000X-0.225000X-0.250000X0.225000X-0.250000X0*%
%ADD31R,2.000000X4.500000*%
%ADD32R,1.800000X1.000000*%
%ADD33RoundRect,0.150000X0.150000X-0.725000X0.150000X0.725000X-0.150000X0.725000X-0.150000X-0.725000X0*%
%ADD34RoundRect,0.112500X0.112500X-0.187500X0.112500X0.187500X-0.112500X0.187500X-0.112500X-0.187500X0*%
%ADD35C,1.600000*%
%ADD36R,1.520000X1.780000*%
%ADD37R,1.520000X1.750000*%
%ADD38C,0.600000*%
%ADD39R,0.600000X1.160000*%
%ADD40R,0.300000X1.160000*%
%ADD41O,0.900000X2.000000*%
%ADD42O,0.900000X1.700000*%
%ADD43RoundRect,0.150000X0.150000X-0.587500X0.150000X0.587500X-0.150000X0.587500X-0.150000X-0.587500X0*%
%ADD44RoundRect,0.112500X0.187500X0.112500X-0.187500X0.112500X-0.187500X-0.112500X0.187500X-0.112500X0*%
%ADD45C,2.500000*%
%ADD46RoundRect,0.225000X-0.225000X-0.250000X0.225000X-0.250000X0.225000X0.250000X-0.225000X0.250000X0*%
%ADD47RoundRect,0.075000X0.662500X0.075000X-0.662500X0.075000X-0.662500X-0.075000X0.662500X-0.075000X0*%
%ADD48RoundRect,0.075000X0.075000X0.662500X-0.075000X0.662500X-0.075000X-0.662500X0.075000X-0.662500X0*%
%ADD49RoundRect,0.200000X-0.200000X-0.275000X0.200000X-0.275000X0.200000X0.275000X-0.200000X0.275000X0*%
G04 APERTURE END LIST*
D10*
%TO.C,R38*%
X137414000Y-65215000D03*
X137414000Y-66865000D03*
%TD*%
D11*
%TO.C,R37*%
X135636000Y-66865000D03*
X135636000Y-65215000D03*
%TD*%
D12*
%TO.C,J11*%
X109225000Y-66289000D03*
D13*
X109225000Y-68829000D03*
X106685000Y-66289000D03*
X106685000Y-68829000D03*
%TD*%
%TO.C,J6*%
X100330000Y-68580000D03*
D12*
X97790000Y-68580000D03*
%TD*%
D14*
%TO.C,Q24*%
X167955000Y-83771500D03*
X166055000Y-83771500D03*
X167005000Y-85646500D03*
%TD*%
%TO.C,Q11*%
X118425000Y-83771500D03*
X116525000Y-83771500D03*
X117475000Y-85646500D03*
%TD*%
D15*
%TO.C,H3*%
X80772000Y-117348000D03*
%TD*%
D14*
%TO.C,Q14*%
X129855000Y-83771500D03*
X127955000Y-83771500D03*
X128905000Y-85646500D03*
%TD*%
D16*
%TO.C,C9*%
X109220000Y-76975000D03*
X109220000Y-75425000D03*
%TD*%
D10*
%TO.C,R11*%
X152602000Y-65215000D03*
X152602000Y-66865000D03*
%TD*%
D17*
%TO.C,U2*%
X79908000Y-73900000D03*
X79908000Y-76200000D03*
D18*
X86208000Y-76200000D03*
D17*
X79908000Y-78500000D03*
%TD*%
D19*
%TO.C,LD6*%
X102235000Y-95250000D03*
D20*
X102235000Y-97790000D03*
%TD*%
D12*
%TO.C,J9*%
X110490000Y-63490000D03*
D13*
X113030000Y-63490000D03*
X115570000Y-63490000D03*
X118110000Y-63490000D03*
%TD*%
D21*
%TO.C,R21*%
X118300000Y-81661000D03*
X116650000Y-81661000D03*
%TD*%
D14*
%TO.C,Q3*%
X87945000Y-83771500D03*
X86045000Y-83771500D03*
X86995000Y-85646500D03*
%TD*%
D16*
%TO.C,C11*%
X126238000Y-71895000D03*
X126238000Y-70345000D03*
%TD*%
D21*
%TO.C,R34*%
X167830000Y-81661000D03*
X166180000Y-81661000D03*
%TD*%
%TO.C,R26*%
X137350000Y-81661000D03*
X135700000Y-81661000D03*
%TD*%
D22*
%TO.C,D1*%
X115790000Y-113792000D03*
X117890000Y-113792000D03*
%TD*%
D23*
%TO.C,C4*%
X98806000Y-112636000D03*
X98806000Y-114186000D03*
%TD*%
D24*
%TO.C,D2*%
X99540000Y-110490000D03*
X96040000Y-110490000D03*
%TD*%
D25*
%TO.C,SW2*%
X147522000Y-68290000D03*
X141022000Y-68290000D03*
X147522000Y-63790000D03*
X141022000Y-63790000D03*
%TD*%
D19*
%TO.C,LD15*%
X136525000Y-88900000D03*
D20*
X136525000Y-91440000D03*
%TD*%
D11*
%TO.C,R7*%
X174498000Y-77279000D03*
X174498000Y-75629000D03*
%TD*%
D21*
%TO.C,R28*%
X144970000Y-81661000D03*
X143320000Y-81661000D03*
%TD*%
D14*
%TO.C,Q17*%
X141285000Y-83771500D03*
X139385000Y-83771500D03*
X140335000Y-85646500D03*
%TD*%
D26*
%TO.C,SW1*%
X111475000Y-113113500D03*
X104465000Y-113113500D03*
D27*
X110225000Y-115603500D03*
X105725000Y-115603500D03*
%TD*%
D28*
%TO.C,J2*%
X87642000Y-106830000D03*
D29*
X87642000Y-112830000D03*
X92342000Y-109830000D03*
%TD*%
D25*
%TO.C,SW3*%
X156262000Y-63790000D03*
X162762000Y-63790000D03*
X156262000Y-68290000D03*
X162762000Y-68290000D03*
%TD*%
D10*
%TO.C,R5*%
X172974000Y-75629000D03*
X172974000Y-77279000D03*
%TD*%
D30*
%TO.C,C14*%
X124981000Y-73914000D03*
X123431000Y-73914000D03*
%TD*%
%TO.C,C13*%
X124981000Y-75692000D03*
X123431000Y-75692000D03*
%TD*%
D21*
%TO.C,R19*%
X110680000Y-81661000D03*
X109030000Y-81661000D03*
%TD*%
D19*
%TO.C,LD22*%
X163195000Y-95250000D03*
D20*
X163195000Y-97790000D03*
%TD*%
D14*
%TO.C,Q21*%
X156525000Y-83771500D03*
X154625000Y-83771500D03*
X155575000Y-85646500D03*
%TD*%
%TO.C,Q9*%
X110805000Y-83771500D03*
X108905000Y-83771500D03*
X109855000Y-85646500D03*
%TD*%
D12*
%TO.C,J10*%
X134366000Y-109484000D03*
D13*
X134366000Y-112024000D03*
X134366000Y-114564000D03*
X134366000Y-117104000D03*
%TD*%
D19*
%TO.C,LD16*%
X140335000Y-95250000D03*
D20*
X140335000Y-97790000D03*
%TD*%
D21*
%TO.C,R27*%
X141160000Y-81661000D03*
X139510000Y-81661000D03*
%TD*%
D19*
%TO.C,LD12*%
X125095000Y-95250000D03*
D20*
X125095000Y-97790000D03*
%TD*%
D14*
%TO.C,Q20*%
X152715000Y-83771500D03*
X150815000Y-83771500D03*
X151765000Y-85646500D03*
%TD*%
D12*
%TO.C,J8*%
X97800000Y-63500000D03*
D13*
X100340000Y-63500000D03*
X102880000Y-63500000D03*
X105420000Y-63500000D03*
%TD*%
D23*
%TO.C,C12*%
X126238000Y-66789000D03*
X126238000Y-68339000D03*
%TD*%
D31*
%TO.C,Y1*%
X131064000Y-66362000D03*
X131064000Y-74862000D03*
%TD*%
D32*
%TO.C,Y2*%
X127000000Y-73934000D03*
X127000000Y-76434000D03*
%TD*%
D33*
%TO.C,U5*%
X135255000Y-77505000D03*
X136525000Y-77505000D03*
X137795000Y-77505000D03*
X139065000Y-77505000D03*
X140335000Y-77505000D03*
X141605000Y-77505000D03*
X142875000Y-77505000D03*
X144145000Y-77505000D03*
X144145000Y-72355000D03*
X142875000Y-72355000D03*
X141605000Y-72355000D03*
X140335000Y-72355000D03*
X139065000Y-72355000D03*
X137795000Y-72355000D03*
X136525000Y-72355000D03*
X135255000Y-72355000D03*
%TD*%
D14*
%TO.C,Q16*%
X137475000Y-83771500D03*
X135575000Y-83771500D03*
X136525000Y-85646500D03*
%TD*%
D16*
%TO.C,C5*%
X108712000Y-105423000D03*
X108712000Y-103873000D03*
%TD*%
D11*
%TO.C,R6*%
X172974000Y-73977000D03*
X172974000Y-72327000D03*
%TD*%
D21*
%TO.C,R20*%
X114490000Y-81661000D03*
X112840000Y-81661000D03*
%TD*%
D19*
%TO.C,LD3*%
X90805000Y-88900000D03*
D20*
X90805000Y-91440000D03*
%TD*%
D21*
%TO.C,R14*%
X91630000Y-81661000D03*
X89980000Y-81661000D03*
%TD*%
D34*
%TO.C,D4*%
X124587000Y-106841000D03*
X124587000Y-104741000D03*
%TD*%
D19*
%TO.C,LD8*%
X109855000Y-95250000D03*
D20*
X109855000Y-97790000D03*
%TD*%
D19*
%TO.C,LD13*%
X128905000Y-88900000D03*
D20*
X128905000Y-91440000D03*
%TD*%
D14*
%TO.C,Q13*%
X126045000Y-83771500D03*
X124145000Y-83771500D03*
X125095000Y-85646500D03*
%TD*%
D30*
%TO.C,C8*%
X124981000Y-77470000D03*
X123431000Y-77470000D03*
%TD*%
D21*
%TO.C,R18*%
X106870000Y-81661000D03*
X105220000Y-81661000D03*
%TD*%
D33*
%TO.C,U4*%
X93345000Y-77505000D03*
X94615000Y-77505000D03*
X95885000Y-77505000D03*
X97155000Y-77505000D03*
X98425000Y-77505000D03*
X99695000Y-77505000D03*
X100965000Y-77505000D03*
X102235000Y-77505000D03*
X102235000Y-72355000D03*
X100965000Y-72355000D03*
X99695000Y-72355000D03*
X98425000Y-72355000D03*
X97155000Y-72355000D03*
X95885000Y-72355000D03*
X94615000Y-72355000D03*
X93345000Y-72355000D03*
%TD*%
D35*
%TO.C,C3*%
X102108000Y-103886000D03*
X104608000Y-103886000D03*
%TD*%
D19*
%TO.C,LD23*%
X167005000Y-88900000D03*
D20*
X167005000Y-91440000D03*
%TD*%
D12*
%TO.C,J7*%
X123190000Y-63500000D03*
D13*
X125730000Y-63500000D03*
%TD*%
D21*
%TO.C,R32*%
X160210000Y-81661000D03*
X158560000Y-81661000D03*
%TD*%
%TO.C,R24*%
X129730000Y-81661000D03*
X128080000Y-81661000D03*
%TD*%
%TO.C,R35*%
X171640000Y-81661000D03*
X169990000Y-81661000D03*
%TD*%
%TO.C,R9*%
X117665000Y-67310000D03*
X116015000Y-67310000D03*
%TD*%
D15*
%TO.C,H2*%
X80772000Y-64262000D03*
%TD*%
D21*
%TO.C,R15*%
X95440000Y-81661000D03*
X93790000Y-81661000D03*
%TD*%
D15*
%TO.C,H1*%
X173228000Y-64262000D03*
%TD*%
D36*
%TO.C,U3*%
X121346000Y-109601000D03*
D37*
X121346000Y-107061000D03*
D36*
X121346000Y-104521000D03*
X121346000Y-101981000D03*
X111826000Y-101981000D03*
X111826000Y-104521000D03*
X111826000Y-107061000D03*
X111826000Y-109601000D03*
%TD*%
D14*
%TO.C,Q23*%
X164145000Y-83771500D03*
X162245000Y-83771500D03*
X163195000Y-85646500D03*
%TD*%
D23*
%TO.C,C7*%
X122428000Y-69583000D03*
X122428000Y-71133000D03*
%TD*%
D38*
%TO.C,J1*%
X124110000Y-114896000D03*
X129890000Y-114896000D03*
D39*
X123800000Y-113836000D03*
X124600000Y-113836000D03*
D40*
X125750000Y-113836000D03*
X126750000Y-113836000D03*
X127250000Y-113836000D03*
X128250000Y-113836000D03*
D39*
X129400000Y-113836000D03*
X130200000Y-113836000D03*
X130200000Y-113836000D03*
X129400000Y-113836000D03*
D40*
X128750000Y-113836000D03*
X127750000Y-113836000D03*
X126250000Y-113836000D03*
X125250000Y-113836000D03*
D39*
X124600000Y-113836000D03*
X123800000Y-113836000D03*
D41*
X122680000Y-114416000D03*
D42*
X122680000Y-118586000D03*
D41*
X131320000Y-114416000D03*
D42*
X131320000Y-118586000D03*
%TD*%
D43*
%TO.C,Q1*%
X96840000Y-108252500D03*
X98740000Y-108252500D03*
X97790000Y-106377500D03*
%TD*%
D19*
%TO.C,LD19*%
X151765000Y-88900000D03*
D20*
X151765000Y-91440000D03*
%TD*%
D11*
%TO.C,R2*%
X125730000Y-111873110D03*
X125730000Y-110223110D03*
%TD*%
D44*
%TO.C,D3*%
X103920000Y-108712000D03*
X101820000Y-108712000D03*
%TD*%
D23*
%TO.C,C16*%
X151078000Y-65265000D03*
X151078000Y-66815000D03*
%TD*%
D21*
%TO.C,R30*%
X152590000Y-81661000D03*
X150940000Y-81661000D03*
%TD*%
%TO.C,R23*%
X125920000Y-81661000D03*
X124270000Y-81661000D03*
%TD*%
D19*
%TO.C,LD24*%
X170815000Y-95250000D03*
D20*
X170815000Y-97790000D03*
%TD*%
D45*
%TO.C,J4*%
X153628740Y-107998000D03*
X146128740Y-107998000D03*
X138628740Y-107998000D03*
X151128740Y-105498000D03*
X141128740Y-105498000D03*
X141128740Y-117998000D03*
X151128740Y-117998000D03*
%TD*%
D11*
%TO.C,R36*%
X106680000Y-77025000D03*
X106680000Y-75375000D03*
%TD*%
D14*
%TO.C,Q22*%
X160335000Y-83771500D03*
X158435000Y-83771500D03*
X159385000Y-85646500D03*
%TD*%
D21*
%TO.C,R12*%
X84010000Y-81661000D03*
X82360000Y-81661000D03*
%TD*%
D14*
%TO.C,Q10*%
X114615000Y-83771500D03*
X112715000Y-83771500D03*
X113665000Y-85646500D03*
%TD*%
D46*
%TO.C,C15*%
X114033000Y-117094000D03*
X115583000Y-117094000D03*
%TD*%
D21*
%TO.C,R31*%
X156400000Y-81661000D03*
X154750000Y-81661000D03*
%TD*%
D19*
%TO.C,LD4*%
X94615000Y-95250000D03*
D20*
X94615000Y-97790000D03*
%TD*%
D10*
%TO.C,R10*%
X124460000Y-69533000D03*
X124460000Y-71183000D03*
%TD*%
D19*
%TO.C,LD7*%
X106045000Y-88900000D03*
D20*
X106045000Y-91440000D03*
%TD*%
D14*
%TO.C,Q5*%
X95565000Y-83771500D03*
X93665000Y-83771500D03*
X94615000Y-85646500D03*
%TD*%
%TO.C,Q18*%
X145095000Y-83771500D03*
X143195000Y-83771500D03*
X144145000Y-85646500D03*
%TD*%
D19*
%TO.C,LD18*%
X147955000Y-95250000D03*
D20*
X147955000Y-97790000D03*
%TD*%
D47*
%TO.C,U1*%
X119732500Y-76410000D03*
X119732500Y-75910000D03*
X119732500Y-75410000D03*
X119732500Y-74909999D03*
X119732500Y-74410000D03*
X119732500Y-73910000D03*
X119732500Y-73410000D03*
X119732500Y-72910000D03*
X119732500Y-72410001D03*
X119732500Y-71910000D03*
X119732500Y-71410000D03*
X119732500Y-70910000D03*
D48*
X118320000Y-69497500D03*
X117820000Y-69497500D03*
X117320000Y-69497500D03*
X116819999Y-69497500D03*
X116320000Y-69497500D03*
X115820000Y-69497500D03*
X115320000Y-69497500D03*
X114820000Y-69497500D03*
X114320001Y-69497500D03*
X113820000Y-69497500D03*
X113320000Y-69497500D03*
X112820000Y-69497500D03*
D47*
X111407500Y-70910000D03*
X111407500Y-71410000D03*
X111407500Y-71910000D03*
X111407500Y-72410001D03*
X111407500Y-72910000D03*
X111407500Y-73410000D03*
X111407500Y-73910000D03*
X111407500Y-74410000D03*
X111407500Y-74909999D03*
X111407500Y-75410000D03*
X111407500Y-75910000D03*
X111407500Y-76410000D03*
D48*
X112820000Y-77822500D03*
X113320000Y-77822500D03*
X113820000Y-77822500D03*
X114320001Y-77822500D03*
X114820000Y-77822500D03*
X115320000Y-77822500D03*
X115820000Y-77822500D03*
X116320000Y-77822500D03*
X116819999Y-77822500D03*
X117320000Y-77822500D03*
X117820000Y-77822500D03*
X118320000Y-77822500D03*
%TD*%
D14*
%TO.C,Q25*%
X171765000Y-83771500D03*
X169865000Y-83771500D03*
X170815000Y-85646500D03*
%TD*%
D11*
%TO.C,R1*%
X128778000Y-111886000D03*
X128778000Y-110236000D03*
%TD*%
D14*
%TO.C,Q12*%
X122235000Y-83771500D03*
X120335000Y-83771500D03*
X121285000Y-85646500D03*
%TD*%
%TO.C,Q15*%
X133665000Y-83771500D03*
X131765000Y-83771500D03*
X132715000Y-85646500D03*
%TD*%
D19*
%TO.C,LD21*%
X159385000Y-88900000D03*
D20*
X159385000Y-91440000D03*
%TD*%
D21*
%TO.C,R17*%
X103060000Y-81661000D03*
X101410000Y-81661000D03*
%TD*%
%TO.C,R4*%
X130873000Y-107950000D03*
X129223000Y-107950000D03*
%TD*%
D12*
%TO.C,JP3*%
X169926000Y-76200000D03*
D13*
X167386000Y-76200000D03*
%TD*%
D19*
%TO.C,LD1*%
X83185000Y-88900000D03*
D20*
X83185000Y-91440000D03*
%TD*%
D45*
%TO.C,J5*%
X173870000Y-107998000D03*
X166370000Y-107998000D03*
X158870000Y-107998000D03*
X171370000Y-105498000D03*
X161370000Y-105498000D03*
X161370000Y-117998000D03*
X171370000Y-117998000D03*
%TD*%
D10*
%TO.C,R3*%
X96774000Y-112586000D03*
X96774000Y-114236000D03*
%TD*%
D19*
%TO.C,LD20*%
X155575000Y-95250000D03*
D20*
X155575000Y-97790000D03*
%TD*%
D21*
%TO.C,R22*%
X122110000Y-81661000D03*
X120460000Y-81661000D03*
%TD*%
D49*
%TO.C,R8*%
X113983000Y-118745000D03*
X115633000Y-118745000D03*
%TD*%
D33*
%TO.C,U6*%
X154305000Y-77505000D03*
X155575000Y-77505000D03*
X156845000Y-77505000D03*
X158115000Y-77505000D03*
X159385000Y-77505000D03*
X160655000Y-77505000D03*
X161925000Y-77505000D03*
X163195000Y-77505000D03*
X163195000Y-72355000D03*
X161925000Y-72355000D03*
X160655000Y-72355000D03*
X159385000Y-72355000D03*
X158115000Y-72355000D03*
X156845000Y-72355000D03*
X155575000Y-72355000D03*
X154305000Y-72355000D03*
%TD*%
D14*
%TO.C,Q4*%
X91755000Y-83771500D03*
X89855000Y-83771500D03*
X90805000Y-85646500D03*
%TD*%
%TO.C,Q7*%
X103185000Y-83771500D03*
X101285000Y-83771500D03*
X102235000Y-85646500D03*
%TD*%
D19*
%TO.C,LD10*%
X117475000Y-95250000D03*
D20*
X117475000Y-97790000D03*
%TD*%
D46*
%TO.C,C10*%
X112255000Y-67310000D03*
X113805000Y-67310000D03*
%TD*%
D14*
%TO.C,Q6*%
X99375000Y-83771500D03*
X97475000Y-83771500D03*
X98425000Y-85646500D03*
%TD*%
D21*
%TO.C,R16*%
X99250000Y-81661000D03*
X97600000Y-81661000D03*
%TD*%
D19*
%TO.C,LD11*%
X121285000Y-88900000D03*
D20*
X121285000Y-91440000D03*
%TD*%
D12*
%TO.C,J3*%
X80264000Y-103124000D03*
D13*
X80264000Y-105664000D03*
X80264000Y-108204000D03*
X80264000Y-110744000D03*
%TD*%
D15*
%TO.C,H4*%
X132080000Y-103632000D03*
%TD*%
D19*
%TO.C,LD9*%
X113665000Y-88900000D03*
D20*
X113665000Y-91440000D03*
%TD*%
D19*
%TO.C,LD5*%
X98425000Y-88900000D03*
D20*
X98425000Y-91440000D03*
%TD*%
D14*
%TO.C,Q19*%
X148905000Y-83771500D03*
X147005000Y-83771500D03*
X147955000Y-85646500D03*
%TD*%
D35*
%TO.C,C2*%
X93472000Y-65278000D03*
X90972000Y-65278000D03*
%TD*%
D21*
%TO.C,R13*%
X87820000Y-81661000D03*
X86170000Y-81661000D03*
%TD*%
%TO.C,R29*%
X148780000Y-81661000D03*
X147130000Y-81661000D03*
%TD*%
D19*
%TO.C,LD17*%
X144145000Y-88900000D03*
D20*
X144145000Y-91440000D03*
%TD*%
D21*
%TO.C,R33*%
X164020000Y-81661000D03*
X162370000Y-81661000D03*
%TD*%
D14*
%TO.C,Q8*%
X106995000Y-83771500D03*
X105095000Y-83771500D03*
X106045000Y-85646500D03*
%TD*%
D19*
%TO.C,LD14*%
X132715000Y-95250000D03*
D20*
X132715000Y-97790000D03*
%TD*%
D12*
%TO.C,JP4*%
X169926000Y-73660000D03*
D13*
X167386000Y-73660000D03*
%TD*%
D35*
%TO.C,C1*%
X84582000Y-68834000D03*
X87082000Y-68834000D03*
%TD*%
D21*
%TO.C,R25*%
X133540000Y-81661000D03*
X131890000Y-81661000D03*
%TD*%
D19*
%TO.C,LD2*%
X86995000Y-95250000D03*
D20*
X86995000Y-97790000D03*
%TD*%
D14*
%TO.C,Q2*%
X84135000Y-83771500D03*
X82235000Y-83771500D03*
X83185000Y-85646500D03*
%TD*%
M02*
