%TF.GenerationSoftware,KiCad,Pcbnew,8.0.4*%
%TF.CreationDate,2024-08-25T15:35:27+02:00*%
%TF.ProjectId,LaserHarp3,4c617365-7248-4617-9270-332e6b696361,rev?*%
%TF.SameCoordinates,Original*%
%TF.FileFunction,Legend,Bot*%
%TF.FilePolarity,Positive*%
%FSLAX46Y46*%
G04 Gerber Fmt 4.6, Leading zero omitted, Abs format (unit mm)*
G04 Created by KiCad (PCBNEW 8.0.4) date 2024-08-25 15:35:27*
%MOMM*%
%LPD*%
G01*
G04 APERTURE LIST*
%ADD10C,0.200000*%
%ADD11R,1.700000X1.700000*%
%ADD12O,1.700000X1.700000*%
%ADD13C,2.700000*%
%ADD14R,1.800000X1.800000*%
%ADD15C,1.800000*%
%ADD16C,2.000000*%
%ADD17C,2.100000*%
%ADD18C,1.750000*%
%ADD19R,2.600000X2.600000*%
%ADD20C,2.600000*%
%ADD21C,1.600000*%
%ADD22C,0.600000*%
%ADD23O,0.900000X2.000000*%
%ADD24O,0.900000X1.700000*%
%ADD25C,2.500000*%
G04 APERTURE END LIST*
D10*
X174635219Y-110188951D02*
X175349504Y-110188951D01*
X175349504Y-110188951D02*
X175492361Y-110141332D01*
X175492361Y-110141332D02*
X175587600Y-110046094D01*
X175587600Y-110046094D02*
X175635219Y-109903237D01*
X175635219Y-109903237D02*
X175635219Y-109807999D01*
X175635219Y-111141332D02*
X175635219Y-110665142D01*
X175635219Y-110665142D02*
X174635219Y-110665142D01*
X175539980Y-112046094D02*
X175587600Y-111998475D01*
X175587600Y-111998475D02*
X175635219Y-111855618D01*
X175635219Y-111855618D02*
X175635219Y-111760380D01*
X175635219Y-111760380D02*
X175587600Y-111617523D01*
X175587600Y-111617523D02*
X175492361Y-111522285D01*
X175492361Y-111522285D02*
X175397123Y-111474666D01*
X175397123Y-111474666D02*
X175206647Y-111427047D01*
X175206647Y-111427047D02*
X175063790Y-111427047D01*
X175063790Y-111427047D02*
X174873314Y-111474666D01*
X174873314Y-111474666D02*
X174778076Y-111522285D01*
X174778076Y-111522285D02*
X174682838Y-111617523D01*
X174682838Y-111617523D02*
X174635219Y-111760380D01*
X174635219Y-111760380D02*
X174635219Y-111855618D01*
X174635219Y-111855618D02*
X174682838Y-111998475D01*
X174682838Y-111998475D02*
X174730457Y-112046094D01*
X174635219Y-112760380D02*
X175349504Y-112760380D01*
X175349504Y-112760380D02*
X175492361Y-112712761D01*
X175492361Y-112712761D02*
X175587600Y-112617523D01*
X175587600Y-112617523D02*
X175635219Y-112474666D01*
X175635219Y-112474666D02*
X175635219Y-112379428D01*
X175635219Y-113712761D02*
X175635219Y-113236571D01*
X175635219Y-113236571D02*
X174635219Y-113236571D01*
X175539980Y-114617523D02*
X175587600Y-114569904D01*
X175587600Y-114569904D02*
X175635219Y-114427047D01*
X175635219Y-114427047D02*
X175635219Y-114331809D01*
X175635219Y-114331809D02*
X175587600Y-114188952D01*
X175587600Y-114188952D02*
X175492361Y-114093714D01*
X175492361Y-114093714D02*
X175397123Y-114046095D01*
X175397123Y-114046095D02*
X175206647Y-113998476D01*
X175206647Y-113998476D02*
X175063790Y-113998476D01*
X175063790Y-113998476D02*
X174873314Y-114046095D01*
X174873314Y-114046095D02*
X174778076Y-114093714D01*
X174778076Y-114093714D02*
X174682838Y-114188952D01*
X174682838Y-114188952D02*
X174635219Y-114331809D01*
X174635219Y-114331809D02*
X174635219Y-114427047D01*
X174635219Y-114427047D02*
X174682838Y-114569904D01*
X174682838Y-114569904D02*
X174730457Y-114617523D01*
X174635219Y-115331809D02*
X175349504Y-115331809D01*
X175349504Y-115331809D02*
X175492361Y-115284190D01*
X175492361Y-115284190D02*
X175587600Y-115188952D01*
X175587600Y-115188952D02*
X175635219Y-115046095D01*
X175635219Y-115046095D02*
X175635219Y-114950857D01*
X175635219Y-116284190D02*
X175635219Y-115808000D01*
X175635219Y-115808000D02*
X174635219Y-115808000D01*
X175539980Y-117188952D02*
X175587600Y-117141333D01*
X175587600Y-117141333D02*
X175635219Y-116998476D01*
X175635219Y-116998476D02*
X175635219Y-116903238D01*
X175635219Y-116903238D02*
X175587600Y-116760381D01*
X175587600Y-116760381D02*
X175492361Y-116665143D01*
X175492361Y-116665143D02*
X175397123Y-116617524D01*
X175397123Y-116617524D02*
X175206647Y-116569905D01*
X175206647Y-116569905D02*
X175063790Y-116569905D01*
X175063790Y-116569905D02*
X174873314Y-116617524D01*
X174873314Y-116617524D02*
X174778076Y-116665143D01*
X174778076Y-116665143D02*
X174682838Y-116760381D01*
X174682838Y-116760381D02*
X174635219Y-116903238D01*
X174635219Y-116903238D02*
X174635219Y-116998476D01*
X174635219Y-116998476D02*
X174682838Y-117141333D01*
X174682838Y-117141333D02*
X174730457Y-117188952D01*
X174635219Y-117903238D02*
X175349504Y-117903238D01*
X175349504Y-117903238D02*
X175492361Y-117855619D01*
X175492361Y-117855619D02*
X175587600Y-117760381D01*
X175587600Y-117760381D02*
X175635219Y-117617524D01*
X175635219Y-117617524D02*
X175635219Y-117522286D01*
X175635219Y-118855619D02*
X175635219Y-118379429D01*
X175635219Y-118379429D02*
X174635219Y-118379429D01*
X175539980Y-119760381D02*
X175587600Y-119712762D01*
X175587600Y-119712762D02*
X175635219Y-119569905D01*
X175635219Y-119569905D02*
X175635219Y-119474667D01*
X175635219Y-119474667D02*
X175587600Y-119331810D01*
X175587600Y-119331810D02*
X175492361Y-119236572D01*
X175492361Y-119236572D02*
X175397123Y-119188953D01*
X175397123Y-119188953D02*
X175206647Y-119141334D01*
X175206647Y-119141334D02*
X175063790Y-119141334D01*
X175063790Y-119141334D02*
X174873314Y-119188953D01*
X174873314Y-119188953D02*
X174778076Y-119236572D01*
X174778076Y-119236572D02*
X174682838Y-119331810D01*
X174682838Y-119331810D02*
X174635219Y-119474667D01*
X174635219Y-119474667D02*
X174635219Y-119569905D01*
X174635219Y-119569905D02*
X174682838Y-119712762D01*
X174682838Y-119712762D02*
X174730457Y-119760381D01*
%LPC*%
D11*
%TO.C,J11*%
X109225000Y-66289000D03*
D12*
X109225000Y-68829000D03*
X106685000Y-66289000D03*
X106685000Y-68829000D03*
%TD*%
%TO.C,J6*%
X100330000Y-68580000D03*
D11*
X97790000Y-68580000D03*
%TD*%
D13*
%TO.C,H3*%
X80772000Y-117348000D03*
%TD*%
D14*
%TO.C,LD6*%
X102235000Y-95250000D03*
D15*
X102235000Y-97790000D03*
%TD*%
D11*
%TO.C,J9*%
X110490000Y-63490000D03*
D12*
X113030000Y-63490000D03*
X115570000Y-63490000D03*
X118110000Y-63490000D03*
%TD*%
D16*
%TO.C,SW2*%
X147522000Y-68290000D03*
X141022000Y-68290000D03*
X147522000Y-63790000D03*
X141022000Y-63790000D03*
%TD*%
D14*
%TO.C,LD15*%
X136525000Y-88900000D03*
D15*
X136525000Y-91440000D03*
%TD*%
D17*
%TO.C,SW1*%
X111475000Y-113113500D03*
X104465000Y-113113500D03*
D18*
X110225000Y-115603500D03*
X105725000Y-115603500D03*
%TD*%
D19*
%TO.C,J2*%
X87642000Y-106830000D03*
D20*
X87642000Y-112830000D03*
X92342000Y-109830000D03*
%TD*%
D16*
%TO.C,SW3*%
X156262000Y-63790000D03*
X162762000Y-63790000D03*
X156262000Y-68290000D03*
X162762000Y-68290000D03*
%TD*%
D14*
%TO.C,LD22*%
X163195000Y-95250000D03*
D15*
X163195000Y-97790000D03*
%TD*%
D11*
%TO.C,J10*%
X134366000Y-109484000D03*
D12*
X134366000Y-112024000D03*
X134366000Y-114564000D03*
X134366000Y-117104000D03*
%TD*%
D14*
%TO.C,LD16*%
X140335000Y-95250000D03*
D15*
X140335000Y-97790000D03*
%TD*%
D14*
%TO.C,LD12*%
X125095000Y-95250000D03*
D15*
X125095000Y-97790000D03*
%TD*%
D11*
%TO.C,J8*%
X97800000Y-63500000D03*
D12*
X100340000Y-63500000D03*
X102880000Y-63500000D03*
X105420000Y-63500000D03*
%TD*%
D14*
%TO.C,LD3*%
X90805000Y-88900000D03*
D15*
X90805000Y-91440000D03*
%TD*%
D14*
%TO.C,LD8*%
X109855000Y-95250000D03*
D15*
X109855000Y-97790000D03*
%TD*%
D14*
%TO.C,LD13*%
X128905000Y-88900000D03*
D15*
X128905000Y-91440000D03*
%TD*%
D21*
%TO.C,C3*%
X102108000Y-103886000D03*
X104608000Y-103886000D03*
%TD*%
D14*
%TO.C,LD23*%
X167005000Y-88900000D03*
D15*
X167005000Y-91440000D03*
%TD*%
D11*
%TO.C,J7*%
X123190000Y-63500000D03*
D12*
X125730000Y-63500000D03*
%TD*%
D13*
%TO.C,H2*%
X80772000Y-64262000D03*
%TD*%
%TO.C,H1*%
X173228000Y-64262000D03*
%TD*%
D22*
%TO.C,J1*%
X124110000Y-114896000D03*
X129890000Y-114896000D03*
D23*
X122680000Y-114416000D03*
D24*
X122680000Y-118586000D03*
D23*
X131320000Y-114416000D03*
D24*
X131320000Y-118586000D03*
%TD*%
D14*
%TO.C,LD19*%
X151765000Y-88900000D03*
D15*
X151765000Y-91440000D03*
%TD*%
D14*
%TO.C,LD24*%
X170815000Y-95250000D03*
D15*
X170815000Y-97790000D03*
%TD*%
D25*
%TO.C,J4*%
X153628740Y-107998000D03*
X146128740Y-107998000D03*
X138628740Y-107998000D03*
X151128740Y-105498000D03*
X141128740Y-105498000D03*
X141128740Y-117998000D03*
X151128740Y-117998000D03*
%TD*%
D14*
%TO.C,LD4*%
X94615000Y-95250000D03*
D15*
X94615000Y-97790000D03*
%TD*%
D14*
%TO.C,LD7*%
X106045000Y-88900000D03*
D15*
X106045000Y-91440000D03*
%TD*%
D14*
%TO.C,LD18*%
X147955000Y-95250000D03*
D15*
X147955000Y-97790000D03*
%TD*%
D14*
%TO.C,LD21*%
X159385000Y-88900000D03*
D15*
X159385000Y-91440000D03*
%TD*%
D11*
%TO.C,JP3*%
X169926000Y-76200000D03*
D12*
X167386000Y-76200000D03*
%TD*%
D14*
%TO.C,LD1*%
X83185000Y-88900000D03*
D15*
X83185000Y-91440000D03*
%TD*%
D25*
%TO.C,J5*%
X173870000Y-107998000D03*
X166370000Y-107998000D03*
X158870000Y-107998000D03*
X171370000Y-105498000D03*
X161370000Y-105498000D03*
X161370000Y-117998000D03*
X171370000Y-117998000D03*
%TD*%
D14*
%TO.C,LD20*%
X155575000Y-95250000D03*
D15*
X155575000Y-97790000D03*
%TD*%
D14*
%TO.C,LD10*%
X117475000Y-95250000D03*
D15*
X117475000Y-97790000D03*
%TD*%
D14*
%TO.C,LD11*%
X121285000Y-88900000D03*
D15*
X121285000Y-91440000D03*
%TD*%
D11*
%TO.C,J3*%
X80264000Y-103124000D03*
D12*
X80264000Y-105664000D03*
X80264000Y-108204000D03*
X80264000Y-110744000D03*
%TD*%
D13*
%TO.C,H4*%
X132080000Y-103632000D03*
%TD*%
D14*
%TO.C,LD9*%
X113665000Y-88900000D03*
D15*
X113665000Y-91440000D03*
%TD*%
D14*
%TO.C,LD5*%
X98425000Y-88900000D03*
D15*
X98425000Y-91440000D03*
%TD*%
D21*
%TO.C,C2*%
X93472000Y-65278000D03*
X90972000Y-65278000D03*
%TD*%
D14*
%TO.C,LD17*%
X144145000Y-88900000D03*
D15*
X144145000Y-91440000D03*
%TD*%
D14*
%TO.C,LD14*%
X132715000Y-95250000D03*
D15*
X132715000Y-97790000D03*
%TD*%
D11*
%TO.C,JP4*%
X169926000Y-73660000D03*
D12*
X167386000Y-73660000D03*
%TD*%
D21*
%TO.C,C1*%
X84582000Y-68834000D03*
X87082000Y-68834000D03*
%TD*%
D14*
%TO.C,LD2*%
X86995000Y-95250000D03*
D15*
X86995000Y-97790000D03*
%TD*%
%LPD*%
M02*
